<?xml version="1.0" encoding="UTF-8" standalone="no"?>
<!-- Created with Inkscape (http://www.inkscape.org/) -->

<svg
   width="299.14795mm"
   height="517.32263mm"
   viewBox="0 0 299.14795 517.32263"
   version="1.1"
   id="svg7898"
   xml:space="preserve"
   inkscape:version="1.2.2 (732a01da63, 2022-12-09)"
   sodipodi:docname="ajax.svg"
   xmlns:inkscape="http://www.inkscape.org/namespaces/inkscape"
   xmlns:sodipodi="http://sodipodi.sourceforge.net/DTD/sodipodi-0.dtd"
   xmlns="http://www.w3.org/2000/svg"
   xmlns:svg="http://www.w3.org/2000/svg"><sodipodi:namedview
     id="namedview7900"
     pagecolor="#505050"
     bordercolor="#eeeeee"
     borderopacity="1"
     inkscape:showpageshadow="0"
     inkscape:pageopacity="0"
     inkscape:pagecheckerboard="0"
     inkscape:deskcolor="#505050"
     inkscape:document-units="mm"
     showgrid="false"
     inkscape:zoom="0.13590701"
     inkscape:cx="-1637.1489"
     inkscape:cy="1103.6959"
     inkscape:window-width="1920"
     inkscape:window-height="1017"
     inkscape:window-x="-8"
     inkscape:window-y="-8"
     inkscape:window-maximized="1"
     inkscape:current-layer="layer1" /><defs
     id="defs7895"><inkscape:path-effect
       effect="bspline"
       id="path-effect15907"
       is_visible="true"
       lpeversion="1"
       weight="33.333333"
       steps="2"
       helper_size="0"
       apply_no_weight="true"
       apply_with_weight="true"
       only_selected="false" /><inkscape:path-effect
       effect="bspline"
       id="path-effect14397"
       is_visible="true"
       lpeversion="1"
       weight="33.333333"
       steps="2"
       helper_size="0"
       apply_no_weight="true"
       apply_with_weight="true"
       only_selected="false" /><inkscape:path-effect
       effect="bspline"
       id="path-effect14393"
       is_visible="true"
       lpeversion="1"
       weight="33.333333"
       steps="2"
       helper_size="0"
       apply_no_weight="true"
       apply_with_weight="true"
       only_selected="false" /><inkscape:path-effect
       effect="bspline"
       id="path-effect14281"
       is_visible="true"
       lpeversion="1"
       weight="33.333333"
       steps="2"
       helper_size="0"
       apply_no_weight="true"
       apply_with_weight="true"
       only_selected="false" /><inkscape:path-effect
       effect="bspline"
       id="path-effect10538"
       is_visible="true"
       lpeversion="1"
       weight="33.333333"
       steps="2"
       helper_size="0"
       apply_no_weight="true"
       apply_with_weight="true"
       only_selected="false" /><inkscape:path-effect
       effect="bspline"
       id="path-effect8504"
       is_visible="true"
       lpeversion="1"
       weight="33.333333"
       steps="2"
       helper_size="0"
       apply_no_weight="true"
       apply_with_weight="true"
       only_selected="false" /><inkscape:path-effect
       effect="bspline"
       id="path-effect15907-7"
       is_visible="true"
       lpeversion="1"
       weight="33.333333"
       steps="2"
       helper_size="0"
       apply_no_weight="true"
       apply_with_weight="true"
       only_selected="false" /></defs><g
     inkscape:label="Layer 1"
     inkscape:groupmode="layer"
     id="layer1"
     transform="translate(23.271538,148.47648)"><path
       id="path10536"
       style="opacity:1;fill:#fdb835;fill-opacity:1;stroke:#1f1c30;stroke-width:2;stroke-dasharray:none;stroke-opacity:1"
       d="m 26.558586,-31.635278 c -0.05529,1.290468 -0.06035,2.721891 -0.03359,4.380611 0.08113,5.029264 0.405724,12.004729 1.054716,16.709574 0.648992,4.7048467 2.82682,6.4502568 3.475698,60.230465 0.648877,53.780208 1.059619,159.507358 0.978489,213.856428 -0.08113,54.34905 -0.223897,55.5954 -0.872831,61.11137 -0.648934,5.51596 -1.804083,16.67789 -1.966272,21.38276 -0.162188,4.70487 -0.966312,5.36129 0.574963,8.44372 1.541277,3.08245 4.56744,6.95622 7.893295,9.38963 3.325857,2.4334 6.951286,3.42621 28.690519,3.75066 21.739231,0.32445 61.161167,0.32444 90.363477,-0.16227 29.20231,-0.48671 53.05009,-1.2164 64.08198,-3.32542 11.0319,-2.10903 9.24716,-5.59712 10.86952,-8.355 1.62234,-2.75787 1.78484,-5.02906 1.5415,-15.33085 -0.24333,-10.30179 -0.89202,-28.63383 -1.37872,-39.90919 -0.48669,-11.27536 -0.81116,-15.49359 -2.59571,-28.95895 -1.78456,-13.46537 -5.02952,-36.17722 -6.97632,-48.58825 -1.9468,-12.41104 -2.59549,-14.52014 -1.78439,-52.96938 0.81111,-38.44925 3.08209,-113.237345 -0.97358,-156.554269 -2.01896,-21.5636574 -5.60626,-35.32472 -10.0707,-45.101639 z"
       sodipodi:nodetypes="csssssssssssssssssscc" /><g
       transform="matrix(0.02644554,0,0,-0.02644554,-139.90881,369.01149)"
       fill="#000000"
       stroke="none"
       id="g10096"><path
         d="m 9860,19563 c -185,-10 -405,-41 -528,-75 -148,-40 -194,-69 -228,-142 -23,-49 -24,-60 -24,-286 0,-129 -3,-279 -7,-333 -5,-88 -8,-100 -27,-107 -81,-31 -111,-48 -141,-81 -71,-79 -70,-69 -73,-431 -2,-181 0,-328 5,-328 4,0 26,7 48,15 22,8 51,14 65,14 25,1 25,0 -8,-25 -38,-30 -34,-49 6,-28 15,7 33,14 40,14 15,0 16,-36 1,-46 -13,-7 40,-34 54,-27 4,2 7,19 7,38 0,32 3,35 43,46 23,6 76,13 117,15 41,2 93,8 115,14 22,5 77,10 123,10 72,0 82,-2 82,-18 0,-10 5,-23 12,-30 15,-15 5,-18 -112,-32 -52,-6 -104,-15 -115,-19 -11,-5 -33,-12 -49,-17 -36,-11 -45,-33 -17,-41 12,-3 21,-13 21,-24 0,-13 7,-19 21,-19 30,0 12,-20 -19,-21 -15,0 -51,-2 -80,-2 -29,-1 -48,-3 -42,-5 28,-10 10,-19 -102,-49 -30,-7 -20,5 20,27 l 37,21 -55,-6 c -66,-7 -83,-20 -56,-41 19,-14 19,-14 1,-28 -16,-12 -17,-16 -6,-30 17,-21 45,-21 37,-1 -6,16 8,24 114,64 42,16 92,23 215,30 88,4 164,5 168,1 4,-4 9,-18 9,-31 1,-13 5,-28 9,-34 3,-5 7,-49 7,-98 0,-54 5,-93 12,-102 17,-21 -8,-30 -93,-34 -17,0 -38,-12 -53,-28 -26,-28 -92,-44 -299,-72 -65,-9 -184,-68 -279,-139 -45,-34 -161,-99 -306,-173 -141,-71 -544,-307 -815,-477 -153,-96 -478,-307 -500,-325 -5,-4 -19,-15 -30,-23 -35,-27 44,19 225,133 547,343 712,441 860,510 185,87 215,101 251,116 19,8 51,28 70,44 50,44 129,90 169,98 36,7 210,64 271,88 38,16 91,16 96,0 2,-5 -6,-18 -17,-28 -16,-15 -22,-16 -35,-5 -17,14 -31,8 -20,-10 5,-7 21,-9 47,-5 l 41,7 -7,-46 c -3,-25 -9,-66 -12,-91 -4,-31 -13,-49 -30,-60 -13,-8 -24,-22 -24,-31 0,-12 -10,-15 -37,-14 -79,4 -138,-1 -123,-9 23,-12 166,-34 178,-27 6,3 13,20 17,36 8,38 22,38 30,0 6,-26 34,-44 36,-22 0,4 2,32 5,62 9,101 6,172 -7,196 -7,13 -10,26 -7,29 12,12 105,17 112,6 4,-6 0,-11 -11,-12 -12,-1 -10,-3 7,-8 23,-6 25,-12 27,-65 2,-52 0,-60 -23,-79 -23,-18 -25,-22 -11,-32 14,-10 13,-14 -4,-42 -11,-17 -31,-34 -45,-37 -14,-4 -22,-11 -19,-16 3,-5 -8,-16 -25,-25 -68,-35 -12,-83 130,-109 168,-31 197,-36 330,-53 168,-21 889,-26 980,-6 30,7 79,15 108,18 37,5 52,11 52,22 0,11 -7,14 -25,11 -17,-4 -25,-1 -25,8 0,8 -7,14 -15,14 -8,0 -15,-7 -15,-15 0,-9 -9,-15 -25,-15 -16,0 -25,6 -25,15 0,8 5,15 10,15 6,0 15,11 20,25 5,14 14,25 19,25 5,0 17,8 27,17 15,16 15,17 -2,24 -11,4 -32,8 -47,8 -28,1 -48,27 -30,40 5,3 15,37 22,75 13,63 12,70 -3,81 -15,11 -14,13 6,18 12,4 24,4 27,2 2,-3 -1,-5 -7,-5 -7,0 -12,-4 -12,-10 0,-5 7,-10 15,-10 8,0 15,-6 15,-13 0,-8 11,-20 25,-27 22,-12 27,-11 40,6 20,26 19,35 -5,41 -33,9 -17,27 31,35 24,4 60,10 79,13 37,7 110,-17 110,-35 0,-6 21,-31 48,-55 41,-39 44,-45 25,-45 -40,0 -28,-34 21,-58 24,-12 47,-22 52,-22 5,0 9,25 8,55 -1,30 2,55 6,55 17,0 40,-39 40,-68 0,-31 1,-32 44,-32 25,0 48,5 51,10 4,6 15,8 25,5 26,-8 30,4 17,52 l -11,42 -65,3 -65,3 -18,50 c -22,61 -22,65 -3,65 8,0 15,-4 15,-10 0,-5 11,-10 25,-10 28,0 69,35 60,50 -11,17 57,11 99,-9 76,-36 121,-52 170,-62 64,-12 174,-86 229,-154 24,-29 82,-83 128,-120 177,-142 310,-265 607,-558 127,-127 234,-228 236,-226 11,11 -758,768 -904,890 -63,53 -171,146 -240,208 -128,114 -187,151 -275,172 -72,17 -138,43 -143,57 -5,17 37,15 72,-3 30,-16 46,-12 46,11 0,8 -13,17 -30,20 -28,6 -29,8 -15,27 19,27 22,191 4,185 -6,-2 -13,-26 -15,-53 -7,-87 -14,-114 -37,-130 -38,-26 -51,-18 -23,16 26,30 30,62 29,212 0,23 13,22 30,-4 14,-19 17,-20 45,-5 30,15 46,41 37,56 -3,5 -1,12 5,15 12,7 137,-31 158,-47 8,-7 12,-7 12,1 0,6 -4,11 -10,11 -15,0 -35,43 -22,48 38,12 -55,77 -146,102 -41,10 -63,33 -48,48 4,3 16,1 26,-6 25,-15 30,-15 30,1 0,7 -10,21 -22,32 l -23,20 22,3 c 12,2 35,-4 52,-13 47,-24 37,1 -15,38 -25,17 -40,33 -35,35 14,5 109,-26 138,-44 13,-8 24,-10 28,-4 10,16 6,425 -5,549 -17,186 -61,250 -202,297 -27,9 -51,21 -54,28 -2,6 -8,159 -13,339 -8,318 -10,329 -33,375 -18,35 -36,54 -74,74 -69,37 -210,77 -334,93 -209,28 -635,41 -880,28 z m 1191,-1753 c 10,-6 28,-10 41,-10 32,0 81,-54 73,-80 -5,-16 1,-21 39,-31 25,-6 46,-17 46,-24 0,-8 11,-22 25,-33 46,-36 33,-44 -62,-37 -49,3 -95,6 -103,5 -77,-5 -229,4 -250,16 l -25,13 25,1 c 42,1 54,15 26,29 -23,13 -23,14 -5,32 10,10 24,19 30,19 5,0 8,4 5,8 -3,5 -38,14 -78,21 -94,17 -98,18 -98,33 0,26 18,39 66,48 57,10 219,3 245,-10 z m -41,-235 c 88,-17 132,-29 157,-44 15,-8 10,-11 -27,-11 l -45,-1 30,-24 c 28,-23 30,-29 31,-99 2,-67 0,-77 -25,-106 l -26,-32 -90,12 c -50,6 -129,15 -177,19 -95,8 -119,17 -71,27 27,5 30,9 26,37 -7,48 -1,116 12,138 4,5 1,17 -6,25 -15,19 2,34 40,34 16,0 21,4 18,14 -4,10 2,16 16,19 42,8 62,7 137,-8 z m -375,-397 c 27,-12 32,-27 13,-46 -6,-6 -10,-14 -7,-16 2,-3 83,0 179,5 169,9 270,5 270,-11 0,-13 -117,-20 -335,-20 -168,0 -220,-3 -249,-15 -20,-9 -34,-20 -31,-25 3,-6 -1,-10 -10,-10 -9,0 -14,4 -10,10 8,13 -50,41 -69,34 -9,-3 -16,-1 -16,5 0,6 8,11 18,11 9,0 30,7 46,15 23,12 36,13 59,5 38,-13 107,-13 107,0 0,6 -3,10 -7,10 -5,0 -17,7 -27,15 -16,12 -17,17 -6,30 15,18 40,19 75,3 z"
         id="path9960"
         style="fill:#1f1c30;fill-opacity:1" /><path
         d="m 10937,16757 c 4,-22 12,-27 52,-33 58,-8 111,-29 111,-45 0,-6 -7,-8 -15,-5 -9,3 -18,-1 -22,-9 -5,-13 -7,-13 -19,2 -7,10 -14,14 -14,10 0,-4 -9,-3 -20,3 -28,15 -43,4 -29,-21 7,-15 16,-18 32,-13 19,6 20,5 8,-10 -7,-9 -28,-20 -45,-25 l -31,-9 30,-1 c 48,-1 104,18 136,47 l 31,27 -25,25 c -34,34 -101,69 -147,76 -36,6 -37,5 -33,-19 z"
         id="path9962" /><path
         d="m 6452,13572 c -3,-429 13,-3220 23,-3907 12,-841 16,-1661 21,-4535 3,-1680 8,-3058 12,-3062 8,-8 7,1686 -2,4792 -6,1950 -9,2416 -25,3995 -5,407 -9,1280 -10,1940 -1,659 -5,1203 -9,1207 -4,4 -8,-190 -10,-430 z"
         id="path9964" /><path
         d="m 7200,13519 v -81 l 40,4 c 33,3 40,0 40,-14 0,-10 4,-18 9,-18 13,0 32,26 24,33 -3,4 5,7 20,7 16,0 27,-6 30,-17 2,-10 3,-2 1,17 -2,19 -4,61 -4,93 v 57 h -80 -80 z"
         id="path9968"
         style="fill:#1f1c30;fill-opacity:1" /><path
         d="m 8465,13080 c -18,-8 -18,-9 -2,-9 10,-1 15,-5 12,-11 -4,-6 13,-10 42,-11 43,-1 45,-2 18,-9 -28,-7 -29,-8 -5,-10 46,-4 105,2 116,11 7,6 22,5 40,-1 16,-6 50,-8 81,-4 45,5 56,3 70,-13 11,-12 44,-25 83,-32 36,-7 69,-17 75,-22 5,-5 17,-9 27,-9 10,0 18,-4 18,-10 0,-5 6,-10 13,-10 7,0 34,-20 61,-45 27,-25 53,-45 58,-45 4,0 8,-9 8,-20 0,-11 -3,-20 -7,-20 -5,0 -6,-27 -5,-61 3,-46 0,-65 -13,-79 -9,-10 -24,-40 -34,-66 -17,-48 -18,-49 -89,-73 -42,-14 -72,-30 -72,-38 0,-7 7,-13 15,-13 11,0 15,-11 15,-40 0,-22 -5,-40 -10,-40 -7,0 -7,-6 0,-20 9,-16 8,-20 -5,-20 -8,0 -15,-4 -15,-10 0,-5 -5,-10 -12,-10 -9,0 -9,3 0,12 15,15 15,28 1,28 -5,0 -8,-4 -5,-9 3,-5 -1,-12 -9,-15 -10,-4 -19,3 -25,19 -8,21 -16,25 -52,25 -58,-1 -143,-24 -143,-40 0,-6 -13,-18 -30,-25 -16,-7 -24,-14 -17,-14 20,-2 13,-21 -8,-21 -14,0 -20,-7 -20,-21 0,-14 6,-19 18,-17 9,1 23,-1 30,-6 10,-6 9,-11 -5,-23 -16,-13 -15,-14 15,-9 19,3 47,17 64,31 20,17 42,25 68,25 33,0 38,3 39,25 4,59 5,62 23,57 13,-3 16,-11 11,-35 -6,-29 -5,-30 22,-23 15,4 49,26 75,49 39,34 44,43 29,45 -15,3 -19,12 -19,48 0,32 4,44 15,44 8,0 15,-7 15,-15 0,-11 12,-15 43,-17 51,-1 77,0 97,8 12,4 13,6 0,14 -12,8 -12,10 3,16 9,3 17,11 17,17 0,6 7,19 17,29 14,16 14,18 0,18 -8,0 -17,-5 -19,-11 -3,-8 -10,-8 -26,2 -26,16 -28,34 -6,43 25,10 34,7 34,-10 0,-13 4,-13 33,3 17,10 35,23 39,28 9,12 10,211 2,243 -4,12 -11,22 -16,22 -5,0 -32,22 -59,49 -30,30 -63,52 -82,56 -18,4 -61,22 -95,41 -62,33 -67,34 -177,34 -63,0 -125,4 -139,10 -35,13 -216,21 -241,10 z"
         id="path9970"
         style="fill:#1f1c30;fill-opacity:1" /><path
         d="m 8520,12909 -45,-6 38,-1 c 20,-1 45,-6 55,-11 36,-18 115,-41 123,-35 5,3 12,-2 15,-10 3,-9 21,-18 40,-22 19,-3 37,-10 40,-15 3,-5 9,-7 14,-4 4,3 11,-6 14,-20 4,-14 11,-25 17,-25 6,0 9,9 6,20 -3,11 -1,20 4,20 5,0 9,-20 9,-45 0,-33 4,-45 15,-45 9,0 12,6 9,18 -3,9 4,3 15,-14 14,-20 24,-55 28,-97 8,-85 14,-95 47,-77 29,15 34,44 11,57 -13,7 -14,20 -7,72 11,77 0,107 -45,121 -17,6 -48,26 -68,45 -20,19 -43,35 -50,35 -7,0 -21,8 -30,17 -20,19 -63,24 -73,8 -14,-22 -41,-25 -52,-5 -9,16 -15,18 -36,9 -20,-7 -29,-6 -38,4 -8,9 -25,11 -56,6 z"
         id="path9972"
         style="fill:#1f1c30;fill-opacity:1" /><path
         d="m 10205,12682 c -31,-7 -45,-22 -45,-49 0,-14 -7,-49 -16,-79 -13,-47 -20,-56 -52,-70 -69,-28 -127,-101 -168,-211 -27,-71 -26,-113 4,-113 26,0 77,35 108,74 35,44 44,45 44,7 0,-32 16,-43 43,-29 13,7 16,17 11,47 -8,50 9,129 62,285 24,72 41,133 37,136 -5,4 -17,5 -28,2 z"
         id="path9974"
         style="fill:#1f1c30;fill-opacity:1" /><path
         d="m 10301,12525 c -42,-38 -81,-109 -101,-183 -23,-87 38,-120 117,-63 36,26 73,82 73,110 0,20 -12,12 -52,-34 -22,-25 -48,-45 -59,-45 -29,0 -22,22 13,45 35,22 95,104 105,143 3,14 1,32 -4,41 -18,29 -50,24 -92,-14 z"
         id="path9976"
         style="fill:#1f1c30;fill-opacity:1" /><path
         d="m 9782,12381 c -112,-82 -227,-311 -155,-311 38,0 116,71 152,138 16,30 32,19 22,-16 -10,-37 -3,-62 17,-62 34,0 46,17 43,60 -1,22 3,63 10,89 7,29 9,56 4,67 -5,11 -9,28 -9,39 -1,31 -37,29 -84,-4 z"
         id="path9978"
         style="fill:#1f1c30;fill-opacity:1" /><path
         d="m 9528,12288 c -13,-13 -33,-37 -45,-53 l -22,-30 v 32 c -1,39 -12,47 -44,32 -20,-9 -24,-18 -25,-60 0,-27 -10,-83 -21,-124 -25,-91 -25,-85 -2,-85 24,0 38,17 81,103 19,39 40,69 45,68 6,-2 8,-8 6,-14 -12,-39 -11,-94 2,-112 15,-20 16,-20 44,2 15,11 26,27 23,35 -3,7 -3,42 -1,78 7,125 6,143 -6,147 -7,3 -23,-6 -35,-19 z"
         id="path9980"
         style="fill:#1f1c30;fill-opacity:1" /><path
         d="m 9296,12241 c -16,-11 -33,-27 -38,-35 -11,-20 -28,-21 -28,-1 0,18 -20,19 -44,2 -12,-9 -19,-30 -21,-62 -2,-28 -15,-85 -29,-128 -31,-93 -31,-87 -7,-87 28,0 49,25 62,73 27,101 97,204 128,187 21,-11 45,22 36,51 -8,24 -22,24 -59,0 z"
         id="path9982"
         style="fill:#1f1c30;fill-opacity:1" /><path
         d="m 8920,12220 c -14,-4 -42,-8 -63,-9 -27,-1 -44,-8 -60,-26 -15,-17 -42,-29 -81,-38 -64,-14 -76,-26 -52,-50 11,-11 27,-14 56,-10 26,4 40,2 40,-6 0,-6 -23,-68 -50,-138 -55,-138 -55,-160 3,-124 28,17 37,31 47,72 7,28 24,81 37,117 14,37 29,80 35,95 11,29 90,77 128,77 24,0 28,35 4,44 -9,3 -16,6 -17,5 -1,-1 -13,-5 -27,-9 z"
         id="path9984"
         style="fill:#1f1c30;fill-opacity:1" /><path
         d="m 8987,12157 c -40,-41 -63,-86 -83,-169 -26,-108 5,-145 76,-93 82,61 143,214 110,276 -17,31 -64,25 -103,-14 z"
         id="path9986"
         style="fill:#1f1c30;fill-opacity:1" /><path
         d="m 10112,12115 c -30,-7 -55,-15 -57,-17 -7,-6 -8,-178 -1,-179 4,-1 33,4 66,11 48,10 60,17 60,32 0,14 -5,18 -17,14 -64,-19 -73,-19 -73,2 0,13 10,24 30,31 38,13 42,44 5,35 -20,-5 -25,-3 -25,14 0,15 11,24 42,34 23,7 43,19 46,26 4,14 -6,14 -76,-3 z"
         id="path9988"
         style="fill:#1f1c30;fill-opacity:1" /><path
         d="m 9764,12023 -51,-15 -7,-60 c -8,-76 -8,-128 0,-128 3,0 35,8 70,17 50,13 64,21 64,36 0,14 -5,17 -17,12 -10,-3 -30,-9 -45,-12 -23,-5 -28,-2 -28,15 0,13 10,24 31,31 18,6 29,16 26,23 -2,7 -10,12 -16,11 -6,-2 -17,-4 -23,-5 -7,-2 -13,6 -13,16 0,14 12,23 43,34 23,7 42,20 42,28 0,17 -10,17 -76,-3 z"
         id="path9990"
         style="fill:#1f1c30;fill-opacity:1" /><path
         d="m 9555,11967 c -35,-11 -41,-17 -47,-52 -4,-22 -7,-64 -7,-93 -1,-50 1,-53 22,-50 18,2 23,10 25,46 2,33 7,43 19,40 9,-2 21,-16 27,-33 8,-23 16,-29 34,-27 24,4 28,19 11,55 -9,20 -8,30 6,50 9,14 15,36 13,49 -4,28 -42,33 -103,15 z"
         id="path9992"
         style="fill:#1f1c30;fill-opacity:1" /><path
         d="m 11650,11943 c 0,-10 -5,-25 -10,-33 -9,-13 -11,-13 -20,0 -15,24 -13,-11 5,-62 8,-24 28,-97 45,-163 17,-66 33,-127 37,-135 4,-8 7,-22 9,-30 12,-91 49,-239 56,-220 2,8 -4,41 -14,73 -14,46 -16,63 -6,80 11,21 11,21 19,2 5,-12 6,0 2,29 -10,83 -11,81 20,78 22,-3 27,1 28,20 1,13 1,26 0,31 0,4 4,7 9,7 20,0 9,19 -12,22 -16,2 -23,10 -24,28 -1,13 -7,26 -13,28 -6,2 -12,16 -12,30 -2,25 -2,25 -6,4 -3,-18 -10,-23 -24,-19 -16,4 -17,2 -8,-15 6,-11 17,-17 25,-14 9,3 15,-2 16,-14 0,-11 1,-26 2,-32 1,-7 7,-17 14,-21 10,-6 9,-11 -3,-23 -8,-8 -20,-12 -27,-8 -8,5 -10,-6 -6,-42 3,-27 2,-58 -2,-69 -10,-24 -13,-15 -15,44 0,25 -6,46 -13,49 -18,6 -14,33 4,30 10,-2 19,3 22,11 3,9 -1,11 -16,7 -24,-8 -39,11 -23,27 6,6 11,15 11,21 0,5 -3,6 -7,3 -13,-14 -33,16 -27,42 5,21 3,23 -6,11 -9,-12 -11,-10 -6,12 6,25 0,48 -26,104 -11,24 -2,84 13,84 12,0 12,27 -1,35 -5,3 -10,-2 -10,-12 z"
         id="path9994" /><path
         d="m 9367,11916 c -21,-8 -40,-16 -42,-18 -2,-1 -6,-43 -10,-91 l -8,-89 24,4 c 20,2 25,10 29,42 4,34 10,41 37,50 52,18 75,42 71,79 -3,28 -7,32 -33,34 -16,2 -47,-4 -68,-11 z"
         id="path9996"
         style="fill:#1f1c30;fill-opacity:1" /><path
         d="m 10264,11893 -51,-15 -7,-61 c -9,-91 -8,-127 7,-127 24,0 36,16 39,54 4,52 24,57 44,11 12,-30 18,-35 37,-29 31,9 30,8 17,49 -10,31 -9,39 4,54 21,23 21,67 0,75 -20,8 -29,7 -90,-11 z"
         id="path9998"
         style="fill:#1f1c30;fill-opacity:1" /><path
         d="m 9174,11861 c -46,-28 -64,-59 -64,-112 0,-34 5,-51 21,-64 18,-18 23,-18 61,-5 51,19 79,55 85,113 4,36 1,49 -16,66 -26,26 -47,26 -87,2 z"
         id="path10000"
         style="fill:#1f1c30;fill-opacity:1" /><path
         d="m 10127,11853 c -4,-3 -7,-34 -7,-67 0,-57 -18,-106 -38,-106 -27,1 -35,22 -33,84 1,49 -1,66 -11,66 -33,-1 -39,-16 -36,-96 3,-79 3,-79 32,-82 38,-5 83,15 105,47 23,34 30,161 8,161 -7,0 -17,-3 -20,-7 z"
         id="path10002"
         style="fill:#1f1c30;fill-opacity:1" /><path
         d="m 8963,11807 c -42,-10 -43,-11 -43,-51 0,-23 -3,-65 -7,-94 -6,-52 -5,-54 18,-50 20,2 24,9 27,46 3,33 7,42 22,42 12,0 21,-10 25,-30 6,-30 19,-36 48,-24 14,5 14,10 1,40 -13,32 -13,36 7,63 14,19 19,36 14,50 -7,24 -39,26 -112,8 z"
         id="path10004"
         style="fill:#1f1c30;fill-opacity:1" /><path
         d="m 9885,11792 -60,-17 -9,-88 c -5,-48 -6,-91 -2,-94 10,-11 134,28 140,44 5,13 0,14 -31,8 -21,-4 -42,-7 -47,-8 -6,-1 -12,6 -14,16 -3,13 5,22 27,30 38,14 43,42 7,33 -14,-3 -28,-1 -32,5 -9,16 15,36 56,46 20,5 36,16 38,26 4,20 4,20 -73,-1 z"
         id="path10006"
         style="fill:#1f1c30;fill-opacity:1" /><path
         d="m 8773,11757 c -17,-7 -34,-14 -36,-17 -3,-3 -7,-45 -9,-93 -4,-84 -3,-88 16,-85 16,2 22,12 26,42 4,33 10,41 35,49 57,18 91,65 73,100 -10,20 -56,22 -105,4 z"
         id="path10008"
         style="fill:#1f1c30;fill-opacity:1" /><path
         d="m 9738,11749 c -12,-6 -18,-22 -18,-43 0,-22 -6,-36 -16,-40 -34,-13 -44,-7 -44,30 0,32 -2,35 -22,28 -13,-3 -24,-7 -24,-8 -1,0 -5,-43 -9,-93 -7,-94 -5,-100 29,-87 11,4 16,19 16,44 0,39 11,50 52,50 16,0 19,-6 16,-32 -3,-33 8,-44 31,-29 15,10 30,191 15,191 -5,0 -17,-5 -26,-11 z"
         id="path10010"
         style="fill:#1f1c30;fill-opacity:1" /><path
         d="m 9479,11681 c -66,-36 -98,-116 -65,-166 27,-42 103,-26 139,29 25,37 2,42 -29,6 -33,-37 -51,-38 -66,-5 -8,19 -8,35 1,65 13,45 33,59 56,40 14,-12 55,-5 55,9 0,10 -19,26 -41,34 -10,3 -32,-2 -50,-12 z"
         id="path10012"
         style="fill:#1f1c30;fill-opacity:1" /><path
         d="m 10141,11611 c -8,-5 -24,-47 -35,-92 -21,-83 -22,-84 -67,-106 -56,-26 -98,-75 -144,-167 -78,-155 -16,-207 94,-79 24,28 41,42 42,33 1,-8 2,-19 4,-25 1,-5 3,-16 3,-22 2,-16 34,-17 48,-3 6,6 9,32 6,59 -5,53 21,166 68,299 17,46 30,90 30,98 0,16 -27,19 -49,5 z"
         id="path10014"
         style="fill:#1f1c30;fill-opacity:1" /><path
         d="m 9174,11600 c -15,-6 -31,-37 -57,-106 -20,-54 -35,-100 -33,-101 8,-8 36,11 36,24 0,8 17,21 37,29 33,14 38,14 49,0 13,-19 54,-21 54,-3 0,18 -53,167 -59,166 -3,0 -15,-4 -27,-9 z"
         id="path10016"
         style="fill:#1f1c30;fill-opacity:1" /><path
         d="m 8940,11539 c -19,-6 -38,-14 -41,-17 -4,-4 -9,-47 -13,-95 -6,-88 -6,-88 16,-85 18,2 24,11 26,38 7,67 43,74 55,11 5,-24 10,-28 27,-24 29,8 33,19 19,57 -11,29 -10,36 5,51 10,10 16,29 14,44 -3,22 -8,26 -38,28 -19,1 -51,-3 -70,-8 z"
         id="path10018"
         style="fill:#1f1c30;fill-opacity:1" /><path
         d="m 10305,11492 c -41,-9 -78,-47 -108,-111 -48,-101 -49,-211 -2,-211 23,0 101,78 129,130 37,68 47,158 20,181 -11,8 -28,13 -39,11 z"
         id="path10020"
         style="fill:#1f1c30;fill-opacity:1" /><path
         d="m 9759,11329 c -77,-39 -199,-217 -199,-290 0,-66 90,-24 151,71 18,27 36,50 41,50 4,0 6,-17 2,-38 -7,-45 13,-70 42,-54 13,7 18,24 19,63 1,30 8,74 15,98 12,39 11,45 -3,56 -10,7 -14,20 -11,32 8,29 -15,34 -57,12 z"
         id="path10022"
         style="fill:#1f1c30;fill-opacity:1" /><path
         d="m 11940,11311 c 5,-11 15,-23 20,-26 6,-3 10,-10 10,-16 0,-15 -22,-10 -35,8 -10,13 -11,11 -7,-15 4,-27 1,-32 -17,-32 -12,0 -24,-7 -27,-15 -4,-8 -12,-15 -20,-15 -16,0 -19,-16 -4,-25 15,-9 12,-52 -5,-69 -17,-17 -20,-46 -5,-46 12,0 13,-77 1,-84 -9,-6 -26,121 -22,162 1,12 -2,22 -7,22 -13,0 -32,55 -32,91 0,16 -4,29 -10,29 -5,0 -10,-8 -10,-17 1,-32 25,-110 39,-127 7,-9 9,-16 4,-16 -13,0 23,-189 67,-350 5,-19 21,-84 35,-145 14,-60 29,-117 32,-125 3,-8 5,-27 4,-42 -1,-15 1,-33 5,-39 10,-17 24,12 17,38 -3,13 -1,23 5,23 6,0 13,-12 15,-27 2,-16 3,-10 1,12 -1,22 -10,45 -19,51 -9,7 -19,29 -22,50 -3,22 -10,47 -15,57 -5,11 -5,17 2,17 17,0 11,27 -10,41 -10,8 -22,28 -25,44 -4,21 -3,24 3,11 6,-14 11,-16 16,-8 4,7 4,17 0,24 -4,6 -8,30 -9,52 -1,23 -2,60 -3,84 -1,23 -6,42 -12,42 -13,0 -13,-36 2,-76 9,-25 9,-38 0,-56 -7,-13 -11,-16 -9,-8 2,8 -2,32 -9,54 -17,46 -18,113 -3,118 7,2 7,12 1,29 -16,41 -2,121 24,144 23,20 23,21 4,33 -29,18 -25,32 9,32 31,0 59,-24 41,-35 -15,-9 -12,-25 5,-25 10,0 15,10 15,30 0,19 -5,30 -14,30 -28,0 -28,22 -2,44 19,14 25,27 21,39 -4,9 -11,17 -16,17 -5,0 -9,7 -9,15 0,8 -7,15 -15,15 -12,0 -14,-4 -5,-19 z"
         id="path10024" /><path
         d="m 9458,11196 c -35,-51 -54,-59 -44,-22 7,29 -6,40 -40,32 -20,-5 -24,-13 -24,-44 0,-33 -15,-117 -35,-194 -6,-25 -4,-28 18,-28 21,0 30,12 65,85 23,47 45,85 50,85 6,0 7,-28 4,-65 -5,-72 9,-90 50,-63 18,12 21,26 25,99 2,46 5,100 6,119 2,29 -2,36 -20,38 -17,3 -30,-8 -55,-42 z"
         id="path10026"
         style="fill:#1f1c30;fill-opacity:1" /><path
         d="m 9230,11160 c -26,-24 -35,-28 -47,-19 -10,9 -20,9 -37,1 -19,-8 -23,-18 -23,-55 -1,-24 -15,-84 -31,-131 l -30,-87 31,3 c 29,3 33,8 54,68 31,87 74,170 95,181 9,5 23,6 31,3 18,-6 48,32 40,52 -9,24 -49,16 -83,-16 z"
         id="path10028"
         style="fill:#1f1c30;fill-opacity:1" /><path
         d="m 10420,11157 c -19,-6 -37,-14 -41,-19 -3,-4 -6,-46 -8,-94 l -2,-86 33,7 c 58,12 97,36 118,72 25,43 26,87 0,113 -22,22 -47,24 -100,7 z"
         id="path10030"
         style="fill:#1f1c30;fill-opacity:1" /><path
         d="m 8855,11150 c -11,-5 -35,-9 -53,-9 -20,-1 -41,-9 -50,-20 -19,-20 -91,-51 -122,-51 -21,0 -25,-16 -11,-39 6,-10 21,-12 50,-8 23,3 43,2 45,-2 3,-4 -18,-63 -45,-131 -54,-137 -57,-150 -33,-150 31,0 68,41 80,88 22,85 77,225 95,243 10,10 43,26 74,35 42,12 55,20 51,31 -3,8 -6,17 -6,19 0,7 -54,3 -75,-6 z"
         id="path10032"
         style="fill:#1f1c30;fill-opacity:1" /><path
         d="m 8967,11112 c -42,-28 -76,-80 -97,-150 -32,-104 -26,-152 20,-152 40,0 112,76 139,146 27,73 28,149 2,164 -26,14 -31,13 -64,-8 z"
         id="path10034"
         style="fill:#1f1c30;fill-opacity:1" /><path
         d="m 10153,11087 c -23,-7 -44,-14 -46,-17 -5,-5 -20,-190 -15,-190 2,1 32,9 68,19 45,13 66,23 68,36 3,15 0,16 -25,10 -46,-12 -57,-11 -61,8 -2,12 6,21 27,28 38,13 44,44 7,35 -28,-7 -44,10 -27,27 7,7 28,16 48,22 42,12 57,36 21,34 -12,-1 -42,-6 -65,-12 z"
         id="path10036"
         style="fill:#1f1c30;fill-opacity:1" /><path
         d="m 10028,11053 c -13,-3 -18,-14 -18,-37 0,-36 -15,-56 -42,-56 -14,0 -18,8 -18,35 0,34 -12,43 -36,27 -7,-4 -13,-46 -16,-100 -3,-76 -2,-92 10,-87 7,3 18,5 23,5 5,0 9,15 9,34 0,37 19,60 47,54 14,-3 17,-12 15,-37 -2,-30 0,-32 20,-25 13,3 24,7 24,8 5,6 11,186 6,185 -4,-1 -15,-3 -24,-6 z"
         id="path10038"
         style="fill:#1f1c30;fill-opacity:1" /><path
         d="m 9745,10976 -40,-12 -5,-89 c -3,-50 -5,-92 -4,-93 2,-2 12,-1 23,3 14,4 21,16 23,43 4,48 33,57 43,13 5,-23 12,-31 29,-31 32,0 35,6 23,45 -8,29 -7,41 8,69 34,62 -3,82 -100,52 z"
         id="path10040"
         style="fill:#1f1c30;fill-opacity:1" /><path
         d="m 9585,10933 c -27,-8 -52,-17 -54,-19 -2,-2 -6,-45 -9,-94 l -4,-91 28,7 c 86,21 109,31 112,48 3,13 -1,17 -15,12 -68,-20 -75,-20 -71,5 2,15 12,25 28,29 35,8 33,36 -2,32 -22,-3 -28,1 -28,16 0,15 11,22 45,31 28,7 45,17 45,26 0,18 -11,18 -75,-2 z"
         id="path10042"
         style="fill:#1f1c30;fill-opacity:1" /><path
         d="m 9382,10880 c -18,-4 -34,-9 -36,-11 -9,-11 -16,-189 -7,-189 29,0 41,14 41,49 0,35 3,39 38,49 50,15 74,42 70,79 -3,24 -7,28 -38,30 -19,1 -50,-2 -68,-7 z"
         id="path10044"
         style="fill:#1f1c30;fill-opacity:1" /><path
         d="m 9178,10817 c -34,-29 -48,-58 -48,-102 0,-53 15,-75 51,-75 39,0 82,25 103,60 18,32 21,92 6,121 -15,27 -77,26 -112,-4 z"
         id="path10046"
         style="fill:#1f1c30;fill-opacity:1" /><path
         d="m 10055,10797 -50,-12 -5,-90 c -3,-50 -4,-93 -3,-97 5,-12 103,26 135,52 25,21 31,35 35,77 5,44 3,52 -18,67 -27,18 -26,18 -94,3 z"
         id="path10048"
         style="fill:#1f1c30;fill-opacity:1" /><path
         d="m 8995,10776 -50,-12 -8,-93 c -5,-51 -6,-95 -3,-98 2,-3 14,-2 25,2 15,4 21,16 23,47 4,54 24,60 44,13 12,-30 18,-35 37,-29 30,9 30,7 11,46 -16,34 -16,36 7,67 18,25 21,36 13,49 -14,21 -36,23 -99,8 z"
         id="path10050"
         style="fill:#1f1c30;fill-opacity:1" /><path
         d="m 8807,10725 c -27,-7 -50,-15 -52,-17 -1,-2 -5,-45 -7,-96 -5,-79 -3,-92 9,-88 8,3 19,6 24,6 5,0 9,18 9,39 0,37 3,40 38,51 64,21 87,53 71,98 -9,25 -23,26 -92,7 z"
         id="path10052"
         style="fill:#1f1c30;fill-opacity:1" /><path
         d="m 9775,10721 -60,-18 -3,-91 c -1,-51 0,-92 3,-92 3,0 35,7 70,16 50,13 65,21 65,35 0,15 -4,16 -32,8 -47,-13 -58,-11 -58,10 0,12 11,23 30,30 41,14 40,39 -1,33 -49,-7 -34,27 20,47 24,9 46,22 49,29 5,16 -9,14 -83,-7 z"
         id="path10054"
         style="fill:#1f1c30;fill-opacity:1" /><path
         d="m 9638,10683 c -13,-3 -18,-14 -18,-38 0,-24 -6,-38 -21,-45 -33,-18 -52,-5 -44,30 6,26 4,30 -14,30 -14,0 -25,-9 -31,-26 -12,-31 -13,-174 -2,-174 20,0 41,28 44,59 2,28 8,36 31,42 26,7 27,6 27,-33 0,-36 2,-39 23,-32 12,3 23,7 23,8 7,6 14,186 8,185 -5,-1 -17,-3 -26,-6 z"
         id="path10056"
         style="fill:#1f1c30;fill-opacity:1" /><path
         d="m 9339,10590 c -22,-22 -29,-37 -27,-57 3,-25 8,-29 47,-33 25,-3 46,-10 48,-17 6,-17 -32,-35 -60,-28 -30,8 -59,-21 -33,-31 33,-13 90,5 119,36 46,52 31,90 -35,90 -26,0 -38,4 -38,14 0,17 34,31 50,21 12,-7 40,12 40,26 0,5 -18,9 -41,9 -32,0 -47,-6 -70,-30 z"
         id="path10058"
         style="fill:#1f1c30;fill-opacity:1" /><path
         d="m 12009,10539 c -5,-10 -9,-25 -9,-34 0,-15 1,-15 16,-1 8,9 20,13 26,10 7,-5 4,-12 -7,-21 -11,-7 -13,-13 -7,-13 7,0 12,-9 12,-21 0,-11 5,-30 11,-41 9,-18 8,-24 -6,-35 -16,-11 -17,-16 -5,-38 7,-14 17,-25 22,-25 5,0 6,-5 2,-11 -3,-6 0,-15 7,-20 7,-4 10,-12 5,-16 -5,-4 -11,-2 -13,5 -3,6 -17,12 -33,12 -34,0 -45,23 -36,78 3,21 3,31 -1,23 -4,-11 -7,-11 -14,0 -22,36 -19,-11 7,-108 2,-7 13,-13 24,-13 11,0 20,-4 20,-10 0,-5 -7,-10 -15,-10 -17,0 -20,-25 -5,-35 6,-3 10,1 10,9 0,9 5,16 11,16 5,0 8,-4 5,-8 -2,-4 -1,-14 5,-22 6,-11 9,-8 9,13 0,16 5,27 14,27 18,0 40,27 28,34 -5,3 -9,17 -9,32 0,14 -4,29 -9,33 -12,8 -17,41 -7,41 5,0 7,19 5,43 -4,51 17,79 43,57 25,-21 19,-50 -10,-50 -14,0 -25,-4 -25,-10 0,-15 49,-12 66,4 18,19 18,32 0,39 -12,5 -13,13 -6,38 5,18 8,35 5,37 -7,7 -25,-9 -25,-22 0,-8 -12,-11 -35,-8 -25,3 -35,9 -35,21 0,23 -28,23 -41,0 z"
         id="path10060" /><path
         d="m 9050,10527 c -59,-20 -60,-21 -60,-117 0,-88 0,-89 23,-81 17,6 23,17 25,50 4,52 33,58 47,9 8,-27 15,-32 34,-30 35,4 37,8 17,48 -16,36 -16,37 4,59 13,14 20,33 18,47 -2,19 -9,23 -38,25 -19,1 -51,-4 -70,-10 z"
         id="path10062"
         style="fill:#1f1c30;fill-opacity:1" /><path
         d="m 10950,10260 c -13,-9 -13,-11 -1,-19 8,-5 21,-7 29,-4 18,7 34,-18 21,-33 -7,-9 -3,-17 13,-28 13,-10 24,-12 28,-6 4,6 26,7 54,4 45,-7 47,-8 41,-32 -7,-29 7,-42 48,-42 16,0 26,-3 24,-8 -3,-4 11,-7 31,-8 20,0 38,-6 40,-12 2,-7 15,-12 29,-12 20,0 24,-4 20,-20 -3,-12 1,-24 11,-30 10,-5 12,-10 5,-10 -20,0 -17,-80 2,-80 18,0 20,-16 3,-24 -7,-3 -3,-3 9,0 34,8 126,13 136,7 5,-3 1,-13 -8,-23 -13,-14 -14,-23 -6,-38 12,-23 29,-30 87,-38 107,-14 109,-15 123,-46 8,-16 16,-26 20,-21 12,18 51,10 51,-10 0,-15 5,-18 20,-14 15,4 25,-2 37,-21 9,-15 18,-28 19,-30 1,-2 12,2 24,8 18,10 22,9 27,-9 5,-18 20,-26 45,-23 3,1 13,-16 22,-38 11,-29 22,-40 37,-40 12,0 23,-8 26,-20 3,-10 13,-22 23,-25 10,-3 21,-12 24,-20 7,-20 26,-19 26,0 0,8 -5,14 -11,12 -14,-3 -36,30 -26,40 5,4 12,1 17,-7 8,-13 10,-12 10,3 0,10 4,16 9,12 11,-6 12,-19 12,-80 0,-24 3,-34 8,-26 6,10 10,9 15,-4 3,-9 6,-25 6,-36 0,-11 7,-19 17,-19 13,0 14,3 5,12 -7,7 -12,23 -12,36 0,13 -5,32 -11,44 -13,24 -1,40 12,15 16,-28 32,-20 26,13 -4,16 -2,32 3,35 15,10 12,55 -4,55 -17,0 -28,72 -12,82 8,5 7,13 -1,28 -7,11 -13,27 -13,35 0,8 -4,15 -10,15 -5,0 -10,15 -10,34 0,19 -4,37 -8,40 -5,3 -7,19 -4,35 2,16 -3,43 -11,60 -10,19 -13,45 -10,75 4,36 2,46 -9,46 -8,0 -19,15 -26,33 -15,41 -15,50 -2,42 6,-3 10,-15 10,-26 0,-10 4,-19 9,-19 13,0 0,51 -15,57 -8,3 -14,15 -14,28 0,13 -7,25 -15,29 -8,3 -15,1 -15,-4 0,-21 31,-151 39,-167 6,-10 13,-39 16,-65 3,-26 10,-50 16,-53 11,-8 12,-55 0,-74 -6,-9 -14,9 -27,58 -13,49 -23,70 -31,67 -7,-3 -13,0 -13,6 0,13 -30,37 -48,38 -17,0 -124,70 -135,87 -4,7 -17,13 -27,13 -11,0 -20,7 -20,15 0,8 -9,15 -21,15 -11,0 -30,6 -42,12 -12,7 -62,24 -112,39 -72,21 -97,24 -127,16 -45,-11 -68,-4 -68,21 0,17 -11,20 -72,27 -76,7 -175,9 -218,4 -23,-2 -104,7 -140,17 -8,2 -22,-1 -30,-6 z"
         id="path10064"
         style="fill:#1f1c30;fill-opacity:1" /><path
         d="m 7269,9860 c -3,-80 -2,-224 3,-320 4,-97 3,-265 -2,-375 -5,-110 -7,-452 -5,-760 3,-308 4,-650 3,-760 -2,-110 -2,-240 0,-290 1,-49 3,-193 5,-320 1,-126 5,-232 8,-235 3,-3 0,-43 -7,-90 -18,-119 -18,-205 1,-224 17,-17 19,-33 5,-38 -5,-1 -12,-34 -16,-73 -10,-108 9,-70 51,100 20,83 43,173 51,200 8,28 25,95 39,150 13,55 49,197 81,315 31,118 65,251 75,295 10,44 28,114 40,155 12,41 21,90 21,109 -1,18 2,30 6,27 8,-9 72,246 65,258 -3,4 -1,11 6,15 11,7 32,86 34,131 1,14 4,27 7,30 4,3 19,55 36,115 l 29,110 50,12 c 58,15 151,36 285,64 52,11 109,24 125,29 17,6 75,19 130,30 55,12 139,31 187,42 48,12 91,19 95,15 5,-6 17,-84 38,-262 3,-22 7,-49 10,-60 2,-11 7,-51 10,-90 3,-38 9,-78 11,-88 5,-16 25,-167 40,-302 3,-27 6,-51 8,-52 3,-4 19,179 18,217 0,14 4,70 9,125 5,55 11,138 14,185 6,122 18,292 20,315 1,11 3,30 4,43 1,18 7,22 31,22 17,0 30,4 30,8 0,4 28,13 63,20 151,29 228,48 223,53 -8,8 -126,-9 -140,-20 -24,-19 -154,-32 -159,-16 -5,15 -57,-12 -57,-30 0,-8 -9,-15 -21,-15 -12,0 -18,4 -13,11 10,16 -17,29 -38,18 -12,-6 -25,-6 -37,1 -13,7 -20,7 -23,-1 -2,-7 -17,-7 -45,-1 -30,7 -59,6 -100,-4 -32,-7 -66,-11 -75,-8 -13,4 -18,0 -18,-14 0,-15 9,-21 43,-26 32,-6 38,-9 26,-16 -9,-5 -32,-11 -50,-12 -28,-3 -34,1 -39,22 -5,26 -16,31 -38,16 -7,-4 -19,-3 -27,4 -16,13 -167,18 -207,6 -22,-7 -28,-5 -28,8 0,17 -14,19 -45,6 -19,-8 -19,-9 3,-9 28,-1 30,-31 2,-31 -13,0 -20,-7 -20,-20 0,-13 -7,-20 -20,-20 -13,0 -20,7 -20,20 0,13 -7,20 -20,20 -13,0 -20,7 -20,20 0,11 -4,20 -10,20 -5,0 -10,-9 -10,-20 0,-17 -7,-20 -39,-20 -33,0 -40,4 -44,23 l -4,22 -2,-22 c -1,-16 -7,-23 -21,-23 -14,0 -20,7 -20,23 -1,37 -34,67 -74,67 -48,0 -46,18 2,23 20,2 -31,4 -115,5 -138,2 -153,4 -162,21 -8,15 -27,21 -81,26 -50,5 -70,11 -70,21 0,11 18,14 73,15 39,1 80,1 89,0 12,-2 16,3 12,13 -3,9 -13,16 -21,16 -7,0 -25,11 -39,25 -14,14 -29,25 -34,25 -17,0 -11,28 8,35 38,13 72,53 72,86 0,33 46,89 74,89 21,0 27,27 11,44 -8,8 -15,23 -16,33 0,10 -6,3 -14,-17 l -12,-35 -8,39 c -8,38 -43,86 -64,86 -6,0 -15,9 -21,20 -12,22 -36,27 -43,8 -3,-10 -7,-10 -20,1 -13,10 -17,31 -17,92 0,46 -4,79 -10,79 -5,0 -10,-18 -10,-40 0,-51 -18,-53 -22,-2 -3,34 -6,37 -38,42 l -35,5 -3,78 -3,77 h 32 32 l -7,61 c -3,34 -6,70 -6,79 0,9 -11,23 -25,30 -23,13 -24,18 -27,124 l -3,111 z"
         id="path10066"
         style="fill:#1f1c30;fill-opacity:1" /><path
         d="m 11935,9169 c -93,-21 -203,-46 -243,-56 -39,-9 -76,-21 -81,-27 -6,-8 -134,-422 -187,-603 -2,-7 -7,-13 -11,-13 -5,0 -64,113 -133,251 -69,138 -130,254 -135,259 -9,8 -431,-90 -456,-106 -5,-3 10,-42 35,-87 24,-45 86,-163 139,-262 52,-99 144,-275 206,-391 61,-116 111,-220 111,-232 0,-16 -220,-624 -333,-919 -16,-41 -30,-41 -35,-1 -6,61 -52,422 -67,523 -14,99 -102,755 -130,979 -8,64 -21,169 -30,233 -8,64 -18,120 -22,124 -7,7 -410,-78 -563,-118 -34,-9 -35,-12 -56,-94 -12,-46 -68,-264 -124,-484 -56,-220 -135,-528 -175,-685 -40,-157 -98,-382 -128,-500 -120,-463 -159,-622 -155,-625 4,-5 423,86 488,105 31,9 39,19 72,88 62,130 182,255 363,375 71,48 95,57 95,35 0,-46 33,-354 38,-359 6,-6 173,31 765,168 l 78,18 30,100 c 89,289 118,386 135,443 10,34 22,61 26,60 5,-2 63,-109 130,-238 66,-129 125,-241 132,-248 9,-10 23,-9 66,2 30,7 127,30 215,51 88,20 166,38 173,41 10,3 -3,36 -46,117 -33,61 -90,171 -127,242 -37,72 -87,166 -110,210 -23,44 -80,152 -125,239 l -83,159 21,61 c 21,64 129,374 230,661 158,447 191,545 184,544 -4,0 -83,-18 -177,-40 z M 10286,7773 c 23,-207 40,-382 37,-389 -2,-7 -14,-15 -26,-18 -31,-8 -146,-84 -210,-139 -31,-26 -58,-44 -61,-39 -3,5 3,47 14,93 38,168 60,269 115,534 68,324 74,349 83,341 3,-4 25,-176 48,-383 z"
         id="path10068"
         style="fill:#f57337;fill-opacity:1" /><path
         d="m 9435,8590 c -38,-10 -144,-34 -235,-55 -91,-20 -169,-40 -173,-44 -4,-5 -17,-138 -27,-297 -11,-159 -29,-422 -40,-584 -34,-481 -49,-707 -70,-1045 -24,-376 -34,-469 -60,-550 -22,-67 -73,-135 -138,-185 l -43,-33 3,-111 c 3,-111 3,-111 27,-108 46,5 191,70 280,126 159,100 256,218 311,374 35,99 45,160 70,427 11,121 29,317 40,435 11,118 29,312 40,430 11,118 31,334 45,480 14,146 27,290 30,320 16,177 36,379 40,408 5,38 2,38 -100,12 z"
         id="path10070"
         style="fill:#f57337;fill-opacity:1" /><path
         d="m 8430,8361 c -41,-10 -120,-29 -175,-41 -210,-47 -299,-70 -307,-78 -9,-9 -32,-96 -198,-747 -39,-154 -89,-350 -111,-435 -22,-85 -77,-297 -121,-470 -44,-173 -104,-406 -133,-518 -28,-112 -49,-204 -46,-206 5,-2 252,53 487,109 14,3 41,38 77,98 62,104 153,207 255,289 83,68 184,130 193,120 4,-4 14,-86 24,-182 9,-96 21,-179 25,-184 8,-8 111,13 335,68 l 90,23 -3,49 c -1,27 -16,146 -32,264 -16,118 -41,303 -55,410 -43,332 -124,946 -150,1140 -14,102 -28,205 -31,230 -11,91 -6,89 -124,61 z m -210,-683 c 0,-11 21,-188 55,-473 8,-66 18,-159 21,-206 6,-82 6,-87 -14,-93 -29,-10 -168,-101 -225,-149 -26,-22 -50,-37 -53,-35 -2,3 34,185 81,404 47,219 93,436 102,482 8,45 19,82 24,82 5,0 9,-5 9,-12 z"
         id="path10072"
         style="fill:#f57337;fill-opacity:1" /><path
         d="m 12450,7198 c -12,-29 -42,-93 -66,-142 -24,-49 -44,-95 -44,-102 0,-8 -4,-14 -8,-14 -5,0 -14,-12 -21,-27 -17,-38 -116,-207 -160,-272 -20,-29 -40,-61 -46,-70 -31,-50 -112,-167 -121,-176 -6,-5 -26,-32 -45,-59 -19,-27 -51,-68 -71,-90 -21,-23 -38,-44 -38,-47 0,-3 24,-12 53,-19 51,-12 61,-10 216,29 90,22 173,41 186,41 13,0 27,5 30,10 3,6 17,10 31,10 31,0 84,26 85,43 1,6 1,19 0,29 -2,20 17,34 31,20 6,-6 6,-12 -1,-16 -7,-5 -8,-13 -2,-24 12,-24 15,-64 6,-85 -7,-16 -9,-15 -32,7 -25,26 -53,25 -53,-1 0,-10 -6,-12 -19,-8 -12,4 -23,0 -28,-10 -5,-9 -25,-16 -48,-18 -22,-1 -42,-4 -45,-7 -24,-24 -77,-40 -139,-42 -41,-2 -69,-7 -68,-13 5,-15 83,-51 162,-74 39,-12 77,-25 85,-30 8,-4 23,-7 32,-5 15,2 14,-4 -8,-44 -14,-26 -33,-55 -41,-64 -8,-9 -16,-34 -19,-56 -2,-21 -8,-51 -14,-66 -13,-35 -13,-96 0,-96 6,0 6,-9 0,-26 -12,-31 -13,-67 -1,-60 4,3 18,32 30,65 21,57 45,90 58,78 3,-4 -4,-27 -16,-53 -26,-54 -23,-63 10,-35 13,11 36,30 52,43 23,19 30,37 42,108 8,47 15,112 16,145 0,60 17,128 18,78 1,-14 7,-23 16,-23 8,0 15,-4 15,-9 0,-5 3,-18 7,-28 7,-17 6,-17 -11,0 -9,9 -18,17 -20,17 -3,0 -5,-23 -10,-109 -3,-40 -9,-78 -15,-84 -6,-6 -11,-26 -11,-45 0,-24 -8,-41 -29,-61 -35,-32 -61,-82 -61,-115 0,-14 -12,-37 -26,-51 -14,-14 -24,-29 -21,-32 3,-3 17,7 30,21 24,26 47,34 47,17 0,-5 -13,-19 -29,-30 -28,-20 -71,-79 -71,-96 0,-5 11,2 25,15 19,18 28,21 37,12 9,-9 -3,-25 -50,-68 -34,-30 -62,-64 -62,-74 0,-10 -9,-22 -21,-25 -11,-4 -24,-18 -30,-32 -11,-31 -11,-31 4,-29 6,0 12,-3 12,-9 0,-5 -12,-9 -27,-8 -33,3 -43,-10 -26,-36 18,-29 0,-40 -21,-12 -14,19 -20,21 -27,10 -10,-17 -6,-81 7,-93 14,-15 11,-36 -6,-36 -9,0 -12,6 -9,15 4,10 2,13 -8,10 -9,-4 -23,-33 -33,-66 -10,-34 -24,-59 -32,-59 -16,0 -16,8 2,40 8,14 15,36 15,50 0,14 7,34 15,44 16,22 20,66 6,66 -5,0 -11,-6 -15,-12 -3,-7 -16,-30 -28,-50 -13,-20 -45,-75 -72,-122 -48,-85 -76,-113 -76,-77 0,11 3,21 8,23 12,5 82,107 82,120 0,7 -22,-9 -48,-35 -27,-26 -51,-45 -54,-41 -4,3 26,37 65,75 72,70 79,87 18,39 -18,-14 -54,-41 -79,-61 -96,-74 -195,-109 -208,-74 -7,16 -34,21 -34,6 0,-5 -15,-12 -32,-15 -77,-16 -98,-18 -98,-8 0,5 18,12 39,16 25,4 42,13 46,24 3,9 24,25 46,36 45,20 48,33 3,14 -16,-6 -36,-13 -44,-14 -8,-1 -30,-5 -47,-9 -27,-6 -33,-4 -33,9 0,10 8,16 21,16 18,0 19,2 9,15 -9,10 -9,15 -1,16 6,1 14,2 19,4 51,14 62,18 62,26 0,17 -102,1 -157,-24 -29,-13 -43,-2 -43,34 0,18 -5,29 -14,29 -8,0 -27,6 -43,14 -15,8 -53,25 -83,39 -30,14 -94,43 -141,66 -47,23 -94,41 -105,41 -10,0 -32,-14 -48,-30 -16,-17 -34,-30 -39,-30 -5,0 -18,-11 -29,-25 -11,-14 -26,-25 -34,-25 -8,0 -14,-4 -14,-10 0,-5 -7,-10 -15,-10 -9,0 -18,-6 -21,-14 -3,-8 -22,-21 -42,-30 -45,-19 -72,-39 -72,-55 0,-6 -11,-11 -23,-11 -13,0 -37,-11 -52,-24 -16,-13 -58,-39 -94,-56 -36,-18 -74,-39 -83,-48 -10,-8 -18,-12 -18,-9 0,4 -17,-3 -37,-15 -75,-42 -189,-95 -237,-109 -27,-8 -51,-20 -53,-26 -3,-7 -20,-13 -38,-13 -18,0 -35,-5 -37,-10 -2,-6 -29,-14 -61,-17 -31,-3 -62,-12 -68,-19 -6,-8 -24,-14 -40,-14 -16,0 -29,-4 -29,-10 0,-5 -11,-10 -25,-10 -14,0 -34,-9 -44,-19 -19,-19 -19,-20 5,-36 27,-18 31,-37 9,-55 -8,-7 -15,-21 -15,-30 0,-10 -6,-20 -12,-23 -10,-3 -9,-9 4,-23 9,-11 16,-33 16,-50 l -1,-31 -36,13 c -19,6 -37,17 -39,23 -2,6 -10,11 -18,11 -8,0 -14,5 -14,10 0,6 -12,15 -26,20 -17,7 -24,15 -20,25 4,11 -1,15 -17,15 -12,0 -38,14 -57,31 -56,49 -72,57 -122,63 -63,7 -57,-4 44,-79 44,-33 120,-89 168,-125 49,-36 125,-94 171,-129 l 83,-64 60,21 c 270,91 502,174 512,183 7,6 36,9 66,8 29,-2 63,1 75,5 33,11 46,-1 29,-26 -13,-18 -127,-64 -243,-99 -18,-6 -33,-14 -33,-19 0,-4 -18,-11 -40,-15 -22,-4 -58,-15 -79,-26 -22,-10 -48,-19 -58,-19 -18,-1 -109,-30 -128,-42 -5,-3 -25,-9 -42,-13 -18,-3 -33,-10 -33,-14 0,-4 43,-40 95,-80 52,-41 95,-78 95,-82 0,-17 -23,-21 -32,-5 -11,19 -68,22 -86,4 -9,-9 -12,-8 -12,4 0,9 -19,31 -42,50 -28,22 -40,27 -35,15 3,-9 2,-17 -3,-17 -6,0 -10,6 -10,13 0,15 -37,51 -60,59 -9,3 -24,0 -35,-8 -10,-8 -31,-14 -45,-14 -14,0 -35,-7 -46,-15 -10,-8 -27,-15 -36,-15 -10,0 -16,-6 -14,-12 1,-7 1,-10 -1,-5 -6,9 -37,9 -46,0 -4,-3 0,-11 8,-17 13,-9 10,-11 -14,-11 -16,0 -27,3 -24,8 6,10 -4,9 -25,-3 -42,-25 -170,-72 -204,-76 -41,-4 -91,-31 -83,-44 3,-5 -1,-12 -8,-17 -8,-4 -17,-15 -20,-23 -4,-11 -6,-11 -6,4 -1,14 -6,17 -24,12 -12,-3 -46,-10 -75,-16 -28,-7 -52,-16 -52,-21 0,-5 -10,-7 -23,-4 -12,3 -43,1 -67,-5 -25,-7 -61,-14 -80,-17 -19,-3 -42,-12 -52,-20 -11,-10 -18,-11 -23,-4 -9,15 -31,14 -47,-3 -8,-7 -33,-13 -62,-12 -42,1 -51,-3 -77,-32 -16,-18 -29,-39 -29,-47 0,-10 -10,-15 -27,-15 -16,0 -35,-4 -43,-10 -19,-12 -30,5 -30,46 0,25 6,34 28,42 55,21 462,163 572,200 25,8 83,28 130,44 47,16 174,61 282,98 109,38 205,73 215,79 17,9 17,10 -2,16 -11,4 -28,11 -37,16 -10,5 -26,9 -35,10 -12,0 -13,2 -5,6 16,6 -3,33 -24,33 -8,0 -14,4 -14,10 0,5 -19,22 -42,36 -24,15 -44,31 -46,35 -7,17 -70,49 -85,43 -10,-4 -15,0 -14,13 2,13 -4,18 -23,16 -14,-1 -19,1 -12,4 10,4 6,13 -14,34 -15,16 -33,29 -40,29 -6,0 -14,7 -17,14 -3,8 -20,22 -38,32 -18,9 -41,25 -52,35 -11,10 -37,21 -56,24 -20,3 -49,8 -64,10 l -28,5 3,-210 c 2,-116 0,-210 -4,-210 -5,0 -8,-5 -8,-10 0,-6 8,-5 20,2 31,19 34,2 6,-29 -20,-22 -26,-24 -26,-11 0,10 -9,22 -21,28 -24,13 -402,21 -1062,20 -432,0 -457,1 -449,18 4,9 5,33 1,52 -3,19 -7,28 -8,19 -2,-25 -31,-33 -31,-9 0,11 -5,20 -11,20 -6,0 -9,-7 -5,-15 3,-8 2,-15 -3,-15 -5,0 -12,-11 -15,-25 -4,-14 -13,-25 -21,-25 -9,0 -12,6 -9,17 5,17 5,17 -9,1 -8,-10 -21,-18 -30,-18 -18,0 -30,-27 -16,-35 5,-4 3,-14 -5,-27 -11,-16 -12,-26 -4,-44 6,-13 15,-24 19,-24 5,0 -5,-14 -21,-30 -30,-31 -38,-50 -21,-50 5,0 12,6 15,13 3,6 4,0 2,-15 -2,-22 1,-28 15,-28 10,0 21,-5 24,-10 4,-6 12,-10 18,-9 32,4 38,-1 27,-22 -11,-20 -12,-20 -31,-3 -18,16 -19,16 -19,-12 0,-23 2,-26 10,-14 9,13 11,13 19,1 8,-12 12,-11 27,4 17,17 18,17 24,-1 7,-20 14,-12 23,26 6,25 13,27 70,21 4,-1 7,-19 7,-41 0,-43 -13,-51 -50,-28 -10,7 -23,8 -27,4 -4,-5 -2,-11 5,-13 6,-3 9,-9 6,-15 -11,-18 18,-27 67,-21 26,3 86,2 133,-2 75,-6 86,-9 86,-26 0,-13 7,-19 23,-19 13,0 29,-6 36,-13 11,-9 14,-9 18,1 3,6 11,12 18,12 7,0 16,6 19,13 5,10 7,10 12,0 3,-7 12,-13 20,-13 8,0 14,-9 14,-20 0,-13 7,-20 20,-20 14,0 20,7 20,21 0,20 4,21 54,17 32,-3 61,-11 71,-21 15,-16 15,-17 -4,-17 -12,0 -21,-4 -21,-10 0,-5 5,-10 10,-10 16,0 12,-17 -5,-24 -9,-3 -25,0 -36,7 -17,10 -22,9 -34,-6 -13,-18 -14,-18 -23,0 -9,14 -13,16 -23,5 -11,-10 -11,-12 0,-12 7,0 9,-5 6,-10 -3,-6 -18,-8 -33,-5 -21,4 -22,3 -8,-3 30,-13 2,-24 -30,-12 -15,6 -30,7 -33,3 -3,-5 -18,-14 -33,-20 -22,-10 -27,-19 -30,-55 -3,-40 -5,-44 -43,-56 -57,-19 -70,-35 -20,-27 22,4 45,8 50,9 6,0 11,-18 13,-41 2,-23 8,-43 15,-46 19,-7 57,11 57,28 0,8 9,15 20,15 11,0 20,-4 20,-9 0,-15 30,-21 51,-11 10,6 19,20 19,30 0,24 9,25 25,3 18,-24 71,-21 100,7 21,20 26,21 39,8 12,-13 25,-14 68,-6 29,5 57,13 62,18 5,5 21,7 35,4 40,-7 51,7 58,79 8,87 28,90 28,5 0,-58 2,-63 23,-66 29,-4 52,14 52,42 0,18 7,21 41,24 27,2 48,-3 58,-12 33,-30 94,-25 126,10 22,24 26,25 40,10 23,-22 67,-20 100,6 24,19 28,19 36,6 9,-16 39,-15 64,1 6,4 37,7 70,6 66,0 91,14 97,54 1,14 9,26 16,29 11,3 12,0 3,-17 -13,-23 0,-61 20,-61 6,0 7,5 3,11 -4,7 0,9 14,5 11,-4 31,-1 43,6 16,10 23,10 26,1 2,-7 12,-9 21,-6 10,4 14,2 9,-3 -5,-5 -19,-9 -30,-10 -68,-2 -77,-5 -77,-20 0,-12 6,-15 23,-10 12,3 28,6 35,6 7,0 10,5 7,11 -4,6 2,5 13,-2 12,-7 19,-16 16,-20 -8,-13 -145,-22 -157,-10 -14,14 -27,14 -27,1 0,-5 7,-10 15,-10 28,0 15,-17 -17,-25 -33,-7 -33,-7 -8,-15 20,-7 16,-8 -22,-9 -27,-1 -48,-5 -48,-9 0,-5 -33,-14 -72,-20 -40,-6 -104,-18 -143,-26 -114,-24 -232,-45 -365,-65 -69,-11 -215,-36 -325,-55 -110,-20 -283,-50 -385,-66 -102,-16 -252,-41 -333,-54 -81,-14 -154,-23 -162,-19 -9,3 -15,-1 -15,-11 0,-9 6,-16 12,-16 7,0 0,-11 -15,-26 -15,-14 -32,-22 -38,-18 -7,4 -1,-7 11,-24 13,-18 20,-37 16,-47 -3,-9 -2,-13 4,-10 9,6 17,-204 9,-230 -3,-10 -3,-26 1,-110 1,-22 0,-49 -3,-60 -6,-26 3,-41 14,-24 6,10 9,8 9,-8 0,-12 3,-28 6,-37 4,-11 1,-16 -10,-16 -9,0 -16,-4 -16,-9 0,-5 9,-7 20,-4 13,4 22,-1 27,-13 3,-11 10,-21 13,-24 15,-11 21,-50 8,-50 -7,0 -19,-4 -27,-9 -12,-8 -12,-12 -2,-25 7,-9 17,-14 21,-11 5,3 11,1 15,-5 3,-5 17,-10 31,-10 19,0 24,-5 24,-24 0,-13 -6,-26 -12,-29 -7,-2 -11,-7 -8,-10 3,-3 16,3 30,13 l 25,19 -23,24 c -28,29 -15,43 23,25 16,-7 21,-14 14,-19 -6,-4 -8,-12 -5,-18 4,-6 12,-9 17,-6 5,4 12,-1 15,-9 3,-9 13,-16 21,-16 9,0 13,-8 11,-22 -2,-15 -10,-23 -22,-23 -28,0 -30,-19 -4,-30 32,-14 32,-59 0,-63 -23,-4 -31,13 -9,22 8,4 7,5 -3,5 -34,-2 -84,4 -65,8 27,5 47,39 51,81 2,32 2,33 -15,16 -10,-12 -15,-29 -13,-47 3,-15 0,-27 -4,-26 -17,4 -44,-13 -44,-27 0,-9 12,-14 33,-15 l 32,-1 -35,-11 c -24,-7 -29,-12 -17,-14 34,-8 18,-50 -17,-44 -6,1 -21,-1 -35,-5 -53,-15 51,-22 184,-13 250,17 520,66 608,111 l 38,19 -27,22 -28,21 25,7 c 22,7 22,7 -6,8 -21,1 -41,12 -64,37 l -34,36 73,-8 c 54,-5 71,-4 66,5 -6,8 7,10 48,5 33,-4 61,-3 68,3 7,6 63,14 123,17 61,4 130,10 154,13 29,4 42,2 37,-5 -8,-13 22,-19 132,-28 48,-3 80,-10 75,-15 -11,-11 -64,-14 -127,-6 -27,3 -63,3 -80,-1 -30,-6 -30,-7 14,-14 97,-15 126,-23 108,-30 -13,-5 -18,-19 -18,-48 0,-33 -3,-40 -19,-40 -20,0 -35,25 -32,53 2,12 -5,17 -20,17 -18,0 -20,-3 -11,-12 16,-16 15,-31 0,-22 -7,3 0,-6 17,-22 l 29,-29 136,3 c 201,4 154,-11 -155,-49 -49,-6 -124,-13 -165,-15 -41,-2 -97,-9 -125,-15 -27,-5 -93,-12 -145,-15 -128,-7 -180,-14 -180,-24 0,-4 24,-8 53,-8 142,2 247,-4 247,-12 0,-6 -12,-11 -27,-11 l -28,-1 30,-7 c 28,-7 26,-8 -20,-14 -27,-3 -115,-11 -195,-17 -80,-7 -224,-20 -320,-31 -96,-10 -206,-22 -245,-25 -38,-3 -124,-9 -190,-14 -66,-6 -153,-10 -194,-9 -56,0 -72,-3 -69,-13 5,-14 -12,-14 458,-3 223,4 290,2 276,-12 -3,-3 -22,-7 -43,-9 -21,-2 -94,-8 -163,-14 -255,-22 -416,-30 -457,-25 -40,6 -61,-7 -30,-18 12,-5 11,-5 -38,-22 -50,-16 29,-27 252,-35 129,-5 238,-11 241,-14 3,-4 0,-7 -6,-7 -7,-1 -24,-3 -39,-4 -16,-2 -191,-4 -391,-5 -200,-2 -360,-6 -355,-10 18,-17 1017,-31 1043,-15 4,2 104,11 222,19 355,25 367,26 323,17 -91,-19 -237,-40 -340,-51 -60,-6 -135,-16 -166,-21 -31,-5 -107,-16 -170,-23 -270,-34 -349,-49 -331,-62 11,-8 21,-9 26,-3 6,5 21,9 35,9 24,0 24,-1 5,-15 -25,-19 -15,-19 29,0 46,19 66,20 49,3 -17,-17 -15,-28 7,-28 11,0 21,7 23,15 3,13 6,13 28,0 14,-8 33,-18 42,-21 10,-3 16,-10 13,-14 -3,-4 13,-10 35,-14 45,-7 54,-31 18,-46 -18,-7 -8,-9 39,-9 37,-1 63,3 65,10 3,8 10,8 26,-2 16,-10 22,-23 22,-51 0,-26 4,-38 14,-38 8,0 16,6 19,13 4,9 7,9 18,0 7,-7 23,-13 36,-13 20,0 23,-5 23,-39 0,-30 4,-41 18,-44 9,-2 -3,-2 -27,1 -31,3 -42,1 -37,-7 4,-6 16,-11 27,-11 12,0 19,-7 19,-20 0,-13 -7,-20 -18,-20 -10,0 -22,-4 -27,-9 -6,-5 -26,-14 -45,-20 -32,-9 -30,-9 20,-5 83,6 257,13 663,24 202,5 407,14 455,20 107,12 185,13 178,1 -5,-8 -41,-11 -276,-27 -52,-4 -100,-11 -107,-16 -7,-5 -25,-7 -41,-3 -16,3 -42,3 -58,-2 l -29,-7 30,-8 c 18,-4 -5,-6 -60,-5 -73,2 -90,-1 -90,-13 0,-8 -13,-19 -29,-25 -44,-15 -86,-59 -86,-89 0,-19 -5,-26 -19,-26 -11,0 -27,-7 -35,-16 -15,-14 -16,-14 -16,0 0,12 -11,16 -49,16 -77,0 -81,-3 -81,-74 0,-57 -11,-86 -32,-86 -4,0 -8,25 -8,55 v 55 h -40 c -25,0 -40,-5 -40,-12 -1,-7 -15,-22 -33,-33 -18,-11 -36,-29 -41,-41 -8,-18 -36,-40 -88,-69 -25,-14 -29,-28 -35,-138 -5,-75 -3,-101 7,-107 10,-6 7,-14 -11,-32 -14,-14 -30,-23 -37,-20 -18,6 -42,-17 -35,-33 3,-9 -9,-22 -31,-36 -35,-20 -47,-39 -26,-39 6,0 10,-18 10,-40 0,-31 4,-40 18,-40 16,-1 16,-1 0,-14 -13,-10 -18,-27 -18,-65 v -51 h 40 c 22,0 40,-4 40,-9 0,-5 -18,-11 -40,-15 -24,-4 -40,-12 -40,-20 0,-14 -69,-36 -114,-36 -30,0 -34,-17 -8,-37 15,-12 8,-13 -55,-11 -39,2 -69,0 -66,-4 2,-5 -18,-8 -46,-8 -27,0 -52,-4 -56,-10 -6,-10 -197,-6 -215,5 -6,3 -42,6 -80,6 -39,0 -70,4 -70,9 0,6 -4,10 -10,10 -5,0 -7,-7 -3,-16 5,-14 2,-16 -21,-10 -15,4 -32,3 -39,-1 -16,-9 -91,-4 -95,8 -2,5 -14,6 -28,3 -15,-4 -36,2 -61,17 -89,54 -90,54 -58,24 28,-25 86,-58 110,-61 6,0 17,-3 25,-7 15,-5 93,-15 190,-22 180,-14 1700,-29 2885,-28 1904,1 2736,25 3515,103 201,21 236,26 259,41 13,8 12,9 -4,5 -153,-39 -759,-70 -806,-40 -5,3 -24,7 -41,10 -32,4 -65,24 -39,24 7,0 9,5 6,10 -9,15 -33,12 -37,-5 -2,-10 -8,-12 -17,-5 -12,7 -12,11 -2,24 11,13 11,16 -2,16 -9,0 -20,6 -24,14 -4,7 -32,21 -60,30 l -53,18 v 74 74 h -40 c -29,0 -40,4 -40,15 0,8 8,15 18,15 16,1 16,1 0,14 -12,9 -18,27 -18,53 0,32 -5,44 -25,57 -21,14 -25,24 -25,66 0,49 -1,50 -30,50 -22,0 -42,12 -78,48 -62,60 -72,86 -73,180 0,42 -4,100 -9,127 -4,31 -5,3 -2,-73 4,-88 2,-122 -6,-122 -8,0 -12,26 -12,80 0,52 -4,80 -11,80 -7,0 -10,17 -8,44 2,24 2,44 -1,44 -3,-1 -13,2 -22,6 -13,6 -18,20 -18,52 v 44 h -40 c -29,0 -40,-4 -40,-15 0,-8 -4,-15 -10,-15 -5,0 -10,18 -10,40 0,22 -4,40 -9,40 -4,0 -12,37 -17,82 -6,49 -14,83 -21,86 -10,3 -13,-19 -14,-85 l -2,-88 -10,83 c -7,59 -14,82 -24,82 -8,0 -11,5 -8,10 3,6 -3,10 -14,10 -11,0 -23,-5 -26,-10 -3,-5 -24,-10 -46,-10 -26,0 -38,4 -34,11 7,10 -299,4 -316,-7 -5,-3 -17,-1 -26,5 -28,15 -8,19 237,36 260,18 542,41 685,55 55,5 110,9 123,10 12,0 22,4 22,10 0,5 -33,11 -72,12 -62,3 -68,5 -40,12 17,5 32,10 32,11 0,1 -10,24 -21,51 -20,45 -21,50 -6,78 9,17 18,51 20,76 3,41 4,40 5,-12 2,-57 8,-68 28,-48 11,11 -5,180 -18,180 -4,0 -8,23 -8,50 0,28 -4,50 -10,50 -5,0 -10,-9 -10,-20 0,-11 -6,-20 -12,-20 -15,0 -48,54 -48,76 0,9 -4,13 -8,10 -14,-8 -35,65 -36,122 -1,57 0,58 28,37 27,-20 96,-20 96,0 0,11 -12,15 -51,15 -42,0 -52,3 -56,20 -3,11 -9,20 -14,20 -8,0 -6,70 2,117 3,19 -2,33 -12,33 -6,0 -9,-7 -5,-15 3,-8 1,-15 -4,-15 -6,0 -10,-6 -10,-14 0,-9 -7,-12 -21,-9 -14,4 -19,12 -16,24 4,15 0,17 -27,13 -70,-11 -142,-26 -165,-35 -16,-7 -28,-6 -34,0 -12,12 -6,21 15,25 7,1 30,10 52,19 21,9 54,17 72,17 19,0 34,5 34,11 0,7 10,9 25,5 14,-4 25,-2 25,3 0,6 12,17 28,25 25,14 25,15 5,16 -12,0 -25,5 -28,10 -11,18 -26,10 -20,-10 5,-14 2,-20 -9,-20 -9,0 -16,5 -16,10 0,13 -33,13 -47,-1 -12,-12 -53,-3 -53,12 0,5 10,9 23,9 12,0 40,10 62,21 75,40 160,66 240,73 44,4 93,13 110,20 29,13 58,18 117,20 19,1 27,6 25,16 -1,11 8,15 33,16 117,4 125,5 105,14 -35,15 -159,31 -195,26 -122,-19 -170,-30 -170,-43 0,-7 -11,-13 -26,-13 -14,0 -37,-9 -51,-20 -18,-14 -33,-18 -51,-13 -17,4 -23,2 -18,-6 13,-21 -90,-17 -111,5 -17,16 -43,19 -43,4 0,-5 -4,-10 -10,-10 -22,0 -8,20 18,26 15,4 32,10 37,14 6,5 28,11 50,15 47,7 116,26 130,35 6,4 37,12 70,20 33,7 74,18 90,25 17,7 37,15 45,19 19,7 -66,1 -100,-8 -14,-3 -50,-11 -80,-16 -61,-10 -129,-26 -175,-42 -51,-17 -206,-41 -285,-43 -41,-1 -82,-4 -90,-8 -8,-3 -64,-10 -123,-16 -60,-5 -115,-15 -124,-23 -14,-12 -35,-15 -138,-21 -22,-2 -53,-9 -70,-16 -16,-7 -42,-10 -57,-7 -16,3 -28,2 -28,-3 0,-5 -20,-14 -46,-21 -34,-10 -48,-10 -57,-1 -8,8 -7,11 6,11 9,0 17,7 17,15 0,11 11,15 35,15 20,0 50,7 67,16 18,9 40,13 55,9 20,-5 24,-3 20,9 -4,10 -1,16 8,16 8,0 41,9 72,19 66,22 154,44 373,97 85,20 196,47 245,61 142,39 147,40 198,54 26,7 47,16 47,19 0,3 16,6 35,8 39,2 81,34 70,51 -11,18 -25,12 -25,-10 0,-17 -4,-20 -22,-15 -13,3 -27,6 -33,6 -5,0 1,7 15,15 19,11 21,14 7,15 -14,0 -16,6 -12,29 4,22 1,31 -12,34 -10,3 -3,5 15,6 18,0 41,6 52,11 11,6 28,14 39,19 21,11 117,-9 105,-22 -4,-4 8,-7 27,-6 l 34,1 -30,13 c -16,8 -36,14 -42,15 -7,0 -13,5 -13,11 0,7 9,9 22,6 13,-4 29,0 39,9 21,19 116,54 146,54 13,0 23,5 23,10 0,6 11,10 24,10 13,0 26,7 30,15 3,8 10,15 15,15 14,0 67,56 85,90 9,17 23,43 31,59 8,15 17,56 20,90 3,34 8,67 11,73 4,6 2,13 -3,17 -6,3 -18,92 -28,196 -23,244 -21,227 -30,248 -4,10 -2,24 5,32 7,9 10,18 6,22 -3,3 -6,1 -6,-5 0,-7 -9,-12 -20,-12 -14,0 -21,9 -25,38 -4,20 -13,73 -21,117 -8,44 -17,107 -20,140 -6,65 -6,65 -26,69 -28,6 -64,25 -77,40 -7,9 -21,16 -30,16 -10,0 -26,7 -37,15 -10,8 -27,15 -36,15 -10,0 -66,24 -125,54 -60,29 -141,69 -180,87 -40,18 -73,36 -73,39 0,4 11,17 24,29 l 24,23 194,-87 c 106,-48 222,-100 257,-116 35,-16 65,-28 67,-26 2,2 -1,30 -7,63 -26,154 -29,187 -18,201 14,16 7,153 -16,335 -6,47 -11,57 -26,55 -10,-1 -18,1 -18,6 -3,28 1,37 15,37 12,0 14,7 10,28 -7,39 -23,145 -47,317 -11,82 -25,155 -30,161 -5,6 -8,28 -8,50 1,51 -29,263 -41,289 -12,26 -40,218 -40,268 1,20 -3,37 -8,37 -5,0 -14,10 -19,23 -10,20 -11,18 -21,-23 -10,-44 -10,-43 -12,40 -1,47 -3,90 -4,95 -1,6 -5,42 -10,80 -7,69 -23,125 -37,135 -4,3 -8,23 -10,45 -1,22 -9,48 -17,57 -7,9 -12,27 -10,39 3,22 3,22 22,4 18,-19 19,-19 13,0 -3,11 -9,47 -13,80 -3,33 -9,64 -12,69 -3,6 -7,46 -9,90 -2,58 -7,82 -18,89 -8,4 -16,20 -16,35 -1,15 -3,20 -6,11 -10,-39 -73,17 -73,66 0,30 -17,14 -40,-37 z m 376,-2134 c 1,-67 5,-84 23,-101 14,-13 18,-26 14,-46 -5,-26 -9,-28 -34,-23 -16,3 -29,1 -29,-4 0,-6 5,-10 10,-10 6,0 10,-18 10,-40 0,-22 -4,-40 -10,-40 -5,0 -10,-6 -10,-13 0,-18 23,-67 32,-67 4,0 5,-7 2,-15 -4,-8 -12,-15 -20,-15 -8,0 -14,-4 -14,-8 0,-12 -28,-15 -87,-8 -33,3 -52,10 -113,38 -25,12 -51,21 -57,19 -18,-3 -5,27 26,65 14,17 40,48 56,70 17,21 40,48 53,60 12,12 22,28 22,37 0,9 5,19 10,22 6,4 22,25 36,47 17,26 30,38 40,34 9,-3 12,-1 9,4 -8,14 4,32 18,27 7,-2 12,-17 13,-33 z m -690,-230 c 26,-4 44,-2 48,5 10,15 26,14 26,-2 0,-6 -15,-19 -32,-27 -18,-7 -42,-22 -52,-32 -22,-20 -43,-23 -48,-7 -2,6 -16,12 -31,12 -15,1 -27,5 -27,8 0,16 -34,18 -51,3 -23,-20 -63,-43 -174,-98 -113,-55 -143,-67 -285,-110 -140,-42 -170,-49 -170,-39 0,5 66,30 148,57 138,45 382,154 427,189 20,16 20,16 -2,17 -13,0 -23,4 -23,9 0,12 40,21 65,15 11,-3 32,0 45,5 24,10 42,9 136,-5 z m -836,-327 c -32,-54 -99,-73 -87,-25 5,17 2,19 -16,14 -12,-3 -56,-10 -97,-16 -41,-6 -122,-19 -180,-29 -98,-17 -253,-21 -267,-7 -3,3 25,6 63,6 68,0 356,41 421,59 17,5 33,8 35,6 2,-2 22,2 43,10 22,8 54,14 72,15 h 32 z m -395,-102 c 17,-1 43,-6 58,-13 16,-7 54,-12 85,-13 51,0 54,-2 29,-11 -22,-8 -26,-13 -16,-24 6,-8 10,-15 8,-15 -2,-1 -13,-3 -24,-5 -73,-14 -85,-18 -85,-30 0,-8 -9,-15 -20,-15 -11,-1 -23,-2 -27,-4 -5,-1 -21,-5 -38,-10 -16,-4 -39,-14 -51,-22 -11,-7 -24,-10 -29,-6 -4,5 -5,-2 -2,-15 3,-12 1,-20 -4,-16 -5,3 -9,0 -9,-5 0,-6 -13,-11 -30,-11 -20,0 -30,5 -30,15 0,13 -4,14 -21,5 -20,-11 -20,-12 -3,-31 16,-18 16,-19 -11,-19 -20,0 -25,-3 -18,-12 21,-29 8,-42 -57,-56 -36,-8 -79,-15 -97,-15 -17,-1 -29,-5 -26,-9 2,-5 -1,-8 -6,-8 -6,0 -11,-18 -11,-41 0,-22 4,-38 9,-34 15,9 24,-14 16,-42 -4,-18 -9,-23 -17,-15 -6,6 -17,8 -26,5 -12,-5 -14,1 -8,38 5,31 2,56 -8,80 -10,21 -15,27 -16,15 0,-15 -3,-16 -14,-7 -10,9 -15,8 -20,-4 -3,-10 -19,-15 -46,-15 -27,0 -43,-5 -46,-15 -5,-12 -10,-13 -20,-4 -8,6 -26,9 -40,6 -18,-3 -22,-1 -15,6 19,19 12,31 -7,14 -25,-23 -35,-21 -27,3 4,11 2,20 -4,20 -6,0 -11,-7 -11,-15 0,-8 -9,-15 -19,-15 -14,0 -21,9 -26,31 -4,18 -15,33 -25,36 -24,6 -32,39 -11,42 9,1 30,2 48,2 22,0 34,6 38,19 6,20 33,30 83,30 17,0 32,5 32,11 0,6 9,9 19,6 12,-3 27,4 40,19 12,13 32,24 45,24 43,0 88,12 75,21 -7,4 7,10 37,14 71,10 84,15 84,32 0,11 7,14 24,11 29,-6 44,26 17,38 -25,10 21,22 99,24 36,1 74,5 85,10 11,5 29,6 40,2 11,-3 34,-7 50,-7 z m 1640,-92 c -4,-43 -13,-84 -20,-92 -11,-11 -18,-6 -42,30 l -28,44 -5,-45 c -3,-31 -10,-45 -20,-45 -12,0 -14,13 -11,75 5,109 26,128 63,58 l 23,-43 3,35 c 4,49 9,60 28,60 14,0 15,-10 9,-77 z m -1037,-137 c 2,-16 -2,-39 -8,-51 -9,-17 -9,-28 -1,-43 16,-30 14,-42 -9,-42 -12,0 -24,10 -30,24 -14,37 -30,41 -30,8 0,-32 -24,-61 -35,-43 -3,6 -3,45 1,87 8,83 18,95 79,91 25,-2 31,-7 33,-31 z m -593,-83 c 20,-19 13,-93 -11,-130 -20,-32 -60,-40 -85,-17 -17,15 -19,26 -14,63 7,52 19,76 43,90 25,15 48,13 67,-6 z m 1866,-27 c 1,5 1,12 0,17 -1,10 17,9 23,-2 3,-5 21,-5 40,-1 41,9 46,6 46,-33 0,-24 -3,-28 -20,-24 -11,3 -23,1 -26,-5 -3,-5 -12,-7 -19,-4 -7,2 -16,2 -19,-2 -4,-3 -14,-7 -24,-8 -81,-8 -116,-17 -129,-30 -11,-11 -18,-12 -23,-4 -4,6 -13,10 -20,8 -8,-2 -14,7 -14,26 -1,28 2,30 53,42 29,6 56,16 60,21 11,18 36,20 54,5 9,-8 18,-11 18,-6 z m -314,-78 c 2,-39 4,-38 -112,-53 -22,-3 -65,-10 -95,-17 -30,-7 -62,-12 -70,-13 -8,0 -21,-4 -28,-9 -15,-9 -15,-9 -30,19 -11,19 -11,19 -12,-2 0,-16 -6,-23 -20,-23 -33,0 -34,0 -58,-16 -20,-13 -23,-13 -28,0 -15,39 0,59 51,71 28,6 63,19 78,29 15,10 31,16 35,12 3,-4 0,-11 -8,-16 -13,-8 -12,-10 3,-10 9,0 27,10 38,21 18,18 25,20 41,10 11,-7 34,-9 56,-6 81,13 132,27 132,37 0,5 6,8 13,6 6,-3 13,-21 14,-40 z m -1393,-10 c 5,-21 12,-28 31,-28 26,0 34,-15 13,-23 -7,-3 -3,-6 10,-6 15,-1 22,5 22,18 0,26 27,48 42,33 15,-15 2,-47 -15,-34 -9,8 -15,4 -24,-14 -13,-28 0,-33 33,-10 19,13 20,12 16,-21 -4,-32 -7,-34 -36,-31 -17,1 -34,6 -37,11 -3,4 -19,1 -35,-8 -16,-8 -35,-15 -42,-15 -8,0 -28,-6 -45,-14 -18,-8 -48,-16 -67,-19 -19,-2 -105,-16 -190,-32 -135,-24 -161,-26 -200,-15 -25,6 -55,12 -67,12 -13,0 -23,4 -23,9 0,5 5,9 10,9 6,0 10,5 10,11 0,5 -4,7 -10,4 -15,-10 -12,12 5,28 9,9 28,14 50,12 42,-4 47,2 61,85 l 11,65 2,-67 1,-68 h 36 c 34,0 47,13 44,44 -1,6 20,15 47,22 44,11 50,10 82,-12 38,-26 57,-30 63,-14 2,6 13,12 25,13 12,0 20,4 17,8 -2,4 0,10 6,14 6,3 13,0 16,-8 3,-9 14,-12 32,-9 38,7 52,20 52,49 0,18 4,23 14,20 8,-3 17,2 21,11 8,18 9,15 19,-30 z m -893,-63 c -3,-71 -14,-105 -31,-105 -6,0 -10,19 -11,43 -1,40 -1,41 -11,15 -11,-32 -32,-36 -47,-10 -9,14 -10,12 -11,-14 0,-30 -24,-63 -37,-51 -3,4 -2,44 3,89 7,63 13,84 25,86 11,2 21,-10 31,-35 l 15,-38 24,48 c 15,31 29,47 39,45 12,-3 14,-17 11,-73 z m 2574,45 c 4,-7 26,-8 57,-4 l 50,7 -4,-29 c -3,-27 -8,-30 -63,-41 -38,-7 -64,-8 -71,-2 -8,6 -14,4 -18,-6 -3,-9 -18,-15 -35,-15 -18,0 -31,-6 -35,-17 -11,-27 -28,0 -24,38 3,32 6,34 40,36 41,2 78,18 78,33 0,13 17,13 25,0 z m -860,-30 c 4,-7 26,-8 57,-4 l 50,7 -4,-29 c -3,-27 -8,-30 -62,-41 -32,-6 -65,-9 -71,-6 -7,2 -16,0 -20,-6 -12,-20 -43,-12 -48,12 -3,21 -4,20 -16,-7 -15,-38 -34,-22 -29,25 l 3,34 53,-3 c 40,-3 53,0 58,12 7,18 20,21 29,6 z m 692,-16 c 12,-19 14,-30 6,-43 -10,-16 -74,-31 -140,-34 -18,0 -33,-4 -33,-8 0,-4 -8,-8 -17,-8 -51,-1 -124,-15 -133,-26 -6,-7 -22,-10 -36,-7 -21,4 -25,9 -22,36 3,28 7,31 52,39 26,4 55,14 63,22 17,17 39,19 48,5 7,-11 46,-4 55,10 3,4 16,10 30,14 19,6 21,5 10,-3 -11,-8 -7,-10 20,-7 19,2 41,4 48,5 6,0 12,8 12,16 0,23 18,18 37,-11 z m -420,-56 c 16,-20 22,-68 9,-68 -7,0 -17,-5 -23,-11 -6,-6 -42,-13 -80,-15 -84,-5 -105,-8 -121,-18 -7,-4 -16,-6 -18,-3 -3,3 -32,-1 -65,-9 -34,-8 -65,-12 -70,-8 -13,8 -11,58 4,78 12,16 14,16 26,2 19,-23 50,-20 72,7 14,16 18,18 19,7 0,-24 47,-19 74,7 21,20 25,21 44,7 19,-13 23,-13 41,5 29,29 73,38 88,19 z m -1932,-44 c 12,-3 36,1 53,10 30,15 32,15 70,-17 21,-17 52,-42 68,-53 16,-12 26,-25 22,-29 -10,-11 -98,-11 -106,0 -12,17 -90,65 -106,65 -8,0 -16,-5 -18,-11 -5,-14 -96,-19 -123,-7 -16,7 -14,7 8,3 16,-3 27,-1 27,5 0,6 5,8 12,4 21,-13 46,-12 41,3 -3,7 2,13 11,13 11,0 15,7 13,23 -2,12 -2,16 0,10 3,-7 15,-16 28,-19 z m -1157,-58 c 2,-16 -4,-36 -13,-46 -13,-14 -14,-22 -4,-44 10,-21 10,-29 0,-39 -10,-9 -15,-8 -27,7 -8,11 -14,26 -14,33 0,7 -4,13 -10,13 -5,0 -10,-8 -10,-18 0,-10 -7,-27 -15,-38 -23,-31 -32,-3 -23,74 10,87 12,90 45,94 44,6 68,-6 71,-36 z m 2330,2 c 18,-18 15,-68 -5,-90 -16,-18 -16,-22 0,-69 20,-56 17,-69 -18,-69 -21,0 -27,7 -36,45 -15,59 -29,57 -29,-4 0,-44 -2,-49 -25,-53 -13,-3 -27,-3 -30,0 -3,3 -6,53 -6,111 -1,58 -3,98 -6,89 -2,-10 -13,-18 -24,-18 -29,0 -59,-18 -59,-36 0,-10 8,-14 28,-12 23,3 27,-1 27,-22 0,-17 -7,-26 -25,-30 -14,-3 -26,-14 -28,-23 -3,-14 4,-17 37,-17 37,0 41,-3 41,-24 0,-26 -8,-29 -92,-41 l -48,-7 v 120 c 0,67 4,123 9,126 5,3 38,8 74,10 36,2 74,9 84,15 25,14 116,14 131,-1 z m 1527,-143 v -120 l -25,-3 c -22,-2 -29,5 -50,45 l -25,48 -5,-55 c -5,-51 -7,-55 -30,-56 -14,0 -30,-3 -35,-6 -8,-5 -117,-28 -132,-28 -2,0 -3,56 -3,124 v 124 l 64,11 c 36,6 68,11 73,10 4,-1 16,1 26,5 27,12 43,1 63,-43 10,-23 21,-41 25,-41 4,0 7,20 7,45 0,52 8,67 30,63 15,-3 17,-20 17,-123 z m -1851,83 c 22,-31 20,-55 -4,-63 -24,-8 -40,1 -40,21 0,20 -18,17 -30,-5 -11,-22 -14,-90 -4,-115 9,-23 34,-20 34,4 0,20 36,43 53,33 15,-9 6,-44 -21,-74 -22,-25 -36,-32 -63,-31 -36,1 -69,30 -69,61 0,9 -5,23 -11,31 -7,11 -8,5 -3,-22 9,-55 -2,-88 -29,-88 -17,0 -29,12 -47,48 l -25,47 -5,-55 c -4,-48 -8,-55 -28,-58 l -23,-3 3,123 c 3,122 3,123 26,123 18,0 30,-12 49,-45 35,-62 36,-62 30,-3 -4,37 -1,55 9,64 26,21 44,3 45,-48 l 1,-48 10,42 c 11,51 47,83 94,83 23,0 38,-7 48,-22 z m -339,-154 v -119 l -27,-3 -28,-3 v 75 c 0,42 -3,76 -8,76 -4,0 -13,-14 -20,-30 -12,-26 -11,-37 2,-76 15,-44 15,-45 -7,-53 -29,-11 -47,-3 -47,19 0,10 -5,31 -12,47 -12,27 -12,26 -18,-27 -5,-51 -7,-55 -32,-58 l -28,-3 v 120 c 0,66 3,122 8,124 4,3 30,8 59,12 48,6 54,5 78,-21 l 25,-27 v 31 c 0,29 17,43 45,37 6,-1 10,-49 10,-121 z m 1803,28 3,-93 32,3 c 26,2 33,-1 35,-19 4,-25 -13,-32 -85,-38 -26,-2 -55,-6 -63,-8 -30,-11 -122,-27 -128,-23 -4,2 -6,58 -4,124 l 3,121 32,7 c 17,3 51,8 75,9 24,2 46,6 50,9 3,4 15,6 27,4 18,-3 20,-11 23,-96 z m -4504,5 c -13,-121 -15,-128 -32,-125 -13,2 -16,12 -14,38 l 2,35 -15,-27 c -18,-32 -30,-35 -43,-12 -7,13 -11,9 -16,-20 -11,-56 -36,-48 -36,12 0,119 25,160 59,95 l 18,-37 18,35 c 25,48 35,59 50,53 9,-4 12,-18 9,-47 z m 4249,33 c 49,-39 47,-161 -3,-212 -53,-52 -120,-28 -135,48 l -6,35 -26,-21 c -14,-11 -34,-20 -44,-20 -14,0 -19,-9 -21,-47 -3,-44 -5,-48 -30,-51 l -28,-3 v 119 c 0,116 1,120 23,126 45,12 117,7 123,-9 8,-20 21,-19 28,3 7,20 53,51 77,52 9,0 28,-9 42,-20 z m -1892,-10 c 23,-13 25,-46 3,-54 -8,-3 -26,-3 -40,0 -17,4 -24,2 -24,-9 0,-8 12,-18 28,-22 41,-10 62,-34 62,-71 0,-70 -93,-121 -138,-76 l -21,21 -3,-22 c -2,-15 -11,-23 -30,-25 -23,-3 -30,3 -52,45 l -25,48 -1,-52 c 0,-28 -4,-54 -8,-57 -5,-3 -31,-8 -59,-11 -45,-7 -51,-5 -56,14 -8,31 -36,26 -48,-9 -8,-22 -17,-30 -36,-30 -21,0 -23,3 -17,23 6,19 3,18 -22,-9 -39,-41 -68,-50 -100,-29 -34,22 -40,43 -18,60 16,11 21,11 36,-2 18,-16 48,-12 48,7 0,5 -17,18 -37,27 -21,10 -44,29 -52,43 -12,23 -12,30 3,62 20,43 63,63 101,48 14,-5 25,-11 25,-14 0,-2 3,-11 6,-19 8,-22 -32,-43 -51,-27 -14,12 -35,6 -35,-10 0,-5 16,-14 35,-20 20,-7 43,-23 52,-37 17,-26 17,-25 35,57 10,46 19,85 22,87 2,2 19,6 39,10 l 35,5 11,-53 c 7,-30 15,-73 18,-96 10,-77 23,-45 22,53 -2,73 1,98 12,105 25,16 35,10 62,-38 l 27,-48 v 47 c 0,35 5,50 18,57 31,16 39,-1 41,-83 0,-44 3,-81 6,-84 2,-3 12,1 20,8 12,10 19,10 27,2 7,-7 20,-12 31,-12 30,0 16,33 -18,42 -38,10 -55,33 -55,72 1,63 67,104 121,76 z m 1560,-40 c 23,-13 25,-33 3,-51 -12,-10 -20,-10 -34,-1 -14,9 -21,8 -30,-3 -10,-12 -7,-17 15,-25 14,-5 29,-10 32,-10 4,0 15,-7 25,-17 34,-31 15,-104 -33,-129 -33,-16 -65,-18 -74,-4 -9,15 -25,12 -25,-5 0,-24 -57,-20 -65,5 -10,31 -41,25 -54,-11 -9,-26 -15,-31 -36,-27 -14,3 -28,1 -31,-3 -3,-5 -14,-9 -24,-9 -13,0 -28,16 -45,50 -14,28 -27,50 -30,50 -2,0 -2,-22 2,-48 4,-37 2,-51 -11,-61 -34,-29 -41,-9 -41,115 v 119 l 27,3 c 23,3 30,-3 52,-45 l 25,-48 1,42 c 0,55 8,73 31,73 17,0 19,-9 19,-107 0,-62 4,-103 9,-97 5,5 16,53 26,106 9,53 23,102 30,108 8,6 26,10 42,8 25,-3 29,-8 40,-63 24,-113 22,-108 39,-94 12,9 20,9 38,-1 24,-12 46,-7 46,10 0,6 -17,17 -37,25 -45,19 -53,30 -53,72 0,61 67,101 121,73 z M 9610,3450 c 25,-25 25,-47 1,-84 -18,-27 -18,-31 -3,-75 15,-42 17,-43 20,-18 2,15 6,27 10,27 4,0 17,3 30,6 20,6 22,3 22,-27 0,-19 -7,-47 -15,-63 -8,-15 -15,-30 -15,-32 0,-2 18,-1 40,2 66,11 100,-33 64,-84 -15,-21 -15,-25 0,-41 38,-42 6,-102 -65,-121 -66,-18 -84,-11 -84,32 0,20 -3,40 -7,44 -5,4 -8,-3 -8,-15 0,-61 -67,-115 -116,-92 -26,12 -54,65 -54,103 0,17 -3,19 -12,10 -9,-9 -9,-22 0,-57 18,-68 16,-77 -15,-73 -22,2 -30,10 -38,40 -16,56 -25,56 -25,1 0,-37 -4,-53 -16,-57 -42,-16 -44,-11 -44,113 0,71 4,122 10,126 6,4 34,9 64,12 48,5 55,3 71,-18 13,-19 18,-21 23,-10 21,58 106,82 136,39 9,-12 16,-33 16,-45 0,-13 4,-23 9,-23 6,0 8,19 7,43 -2,23 1,48 7,55 6,7 12,27 14,43 3,27 1,30 -20,23 -44,-14 -51,-10 -66,41 l -16,50 -5,-55 -5,-55 -40,-6 c -22,-4 -66,-12 -98,-19 -33,-6 -61,-9 -63,-7 -2,2 -6,43 -7,90 -3,92 -7,103 -32,94 -12,-5 -15,-24 -15,-89 0,-93 -5,-106 -40,-110 -25,-3 -25,-2 -28,90 -3,99 -5,102 -56,82 -25,-9 -26,-12 -26,-105 v -95 h -30 -29 l -3,93 c -3,84 -5,92 -23,92 -21,0 -33,31 -18,45 4,5 69,18 143,30 74,12 168,28 208,36 40,8 78,12 83,8 5,-3 15,-1 22,4 31,25 112,27 137,2 z m 1788,4 c 26,-18 29,-55 6,-90 -17,-24 -14,-48 12,-112 7,-16 -37,-33 -53,-20 -7,6 -13,16 -13,24 0,7 -5,25 -12,41 -12,27 -12,26 -18,-27 -5,-53 -6,-55 -35,-55 -16,0 -32,-3 -35,-6 -7,-9 -123,-28 -132,-22 -5,2 -8,56 -8,119 0,130 -3,125 93,137 45,6 47,6 47,-18 0,-19 -7,-26 -27,-31 -48,-10 -53,-13 -53,-29 0,-9 9,-15 25,-15 14,0 28,-7 31,-15 8,-20 -13,-45 -37,-45 -13,0 -19,-7 -19,-21 0,-19 4,-21 39,-15 32,5 40,3 44,-11 3,-10 5,33 6,94 l 1,113 28,6 c 15,3 32,7 37,9 24,8 52,4 73,-11 z m -323,-69 c 20,-19 25,-34 25,-75 0,-97 -37,-141 -125,-152 l -30,-3 -3,122 c -3,120 -2,122 20,126 59,11 89,7 113,-18 z m -157,-117 c -3,-123 -3,-123 -27,-123 -19,0 -30,11 -50,50 l -26,50 -3,-57 c -2,-41 -7,-58 -19,-62 -29,-11 -34,9 -31,125 3,114 3,114 28,117 22,2 30,-5 50,-45 l 25,-48 3,58 c 3,53 5,57 28,57 h 25 z m -1945,93 c 60,-23 63,-166 5,-228 -48,-52 -128,-12 -128,63 0,19 -5,34 -10,34 -20,0 -22,-31 -5,-76 9,-25 16,-47 14,-49 -2,-2 -16,-6 -31,-10 -26,-7 -28,-4 -40,39 -16,60 -28,59 -28,-3 0,-44 -2,-49 -25,-53 -13,-3 -27,-3 -30,0 -3,3 -5,47 -5,98 v 92 l -40,-10 c -29,-8 -40,-16 -40,-29 0,-16 5,-18 26,-13 23,6 25,4 22,-22 -2,-21 -9,-30 -25,-32 -20,-3 -23,-9 -23,-53 0,-44 -3,-49 -25,-55 -14,-4 -28,-4 -31,-1 -5,4 -8,189 -5,234 1,6 25,14 54,19 28,4 63,9 77,11 14,2 53,6 87,9 56,5 62,4 73,-16 12,-22 12,-22 31,9 16,27 46,48 71,50 4,1 18,-3 31,-8 z m 1748,-20 c 22,-17 24,-27 24,-101 0,-80 -1,-82 -33,-111 -39,-35 -81,-38 -108,-8 -29,32 -32,144 -4,187 32,52 82,65 121,33 z m -141,-30 c 0,-11 -16,-54 -35,-97 -19,-42 -35,-78 -35,-81 0,-2 16,-1 35,3 32,6 35,4 35,-19 0,-29 -9,-34 -89,-43 -74,-8 -75,-6 -26,102 19,42 35,81 35,86 0,5 -12,7 -27,6 -24,-3 -28,1 -28,22 0,21 6,26 35,31 74,13 100,10 100,-10 z m -315,-156 v -120 h -25 c -20,0 -31,11 -52,50 l -28,50 v -56 c 0,-43 -4,-58 -16,-63 -9,-3 -20,-3 -25,0 -6,3 -15,1 -22,-4 -7,-6 -40,-14 -75,-18 -61,-6 -62,-6 -62,17 v 24 l -23,-28 c -21,-27 -73,-46 -124,-47 -23,0 -23,2 -23,120 0,87 3,122 13,125 6,3 36,6 66,8 49,2 56,0 69,-24 13,-23 13,-29 0,-56 -14,-27 -13,-32 4,-52 18,-23 18,-22 18,62 0,73 3,86 18,91 35,10 174,26 183,20 5,-3 18,-23 29,-45 11,-21 22,-39 24,-39 3,0 3,17 1,38 -5,54 3,74 28,70 21,-3 22,-8 22,-123 z m -1829,101 c 28,-22 7,-52 -35,-48 -38,3 -41,-15 -4,-29 67,-25 82,-75 38,-127 -32,-38 -77,-50 -110,-28 -29,19 -32,38 -10,56 13,11 20,11 39,0 24,-12 46,-7 46,11 0,5 -18,16 -39,25 -52,20 -69,59 -47,102 26,51 81,68 122,38 z m -146,-131 v -125 h -25 c -19,0 -30,10 -49,48 -22,41 -25,44 -27,22 -1,-14 -1,-34 0,-45 2,-32 -11,-42 -65,-50 -46,-6 -52,-5 -57,14 -8,32 -41,26 -54,-9 -12,-33 -53,-43 -53,-14 0,12 -7,10 -31,-10 -35,-30 -80,-34 -104,-10 -19,19 -16,43 6,57 13,8 21,6 34,-7 13,-13 20,-14 31,-5 18,15 3,35 -33,44 -55,13 -69,70 -29,120 18,22 31,29 60,29 46,0 75,-26 56,-49 -8,-10 -25,-15 -43,-13 -17,2 -32,-2 -34,-9 -3,-7 1,-13 7,-13 24,0 80,-33 80,-46 0,-8 4,-14 9,-14 5,0 15,33 21,73 15,86 22,97 65,97 h 33 l 18,-100 c 10,-55 22,-100 26,-100 4,0 4,38 1,84 -7,107 -1,136 32,136 19,0 30,-10 49,-47 l 25,-48 1,51 c 0,56 4,64 32,64 16,0 18,-10 18,-125 z m 965,-140 v -120 l -27,-3 c -27,-3 -28,-2 -28,43 0,39 -3,46 -17,43 -14,-2 -19,-16 -23,-53 -5,-46 -7,-50 -33,-53 l -28,-3 3,123 3,123 28,3 c 25,3 27,1 27,-36 0,-43 6,-53 26,-45 9,3 14,20 14,48 0,43 10,56 40,52 12,-2 15,-23 15,-122 z m -187,73 c 23,-30 23,-57 1,-69 -19,-10 -25,-8 -40,12 -16,21 -20,22 -29,9 -14,-21 -8,-132 7,-137 7,-3 18,7 25,22 16,35 55,32 50,-5 -5,-38 -45,-73 -83,-73 -22,0 -38,7 -52,24 -15,18 -21,21 -25,10 -11,-33 -51,-61 -86,-61 -57,0 -88,48 -45,70 17,9 23,8 34,-6 11,-16 15,-16 29,-5 19,16 5,41 -23,41 -24,0 -61,37 -61,61 0,32 26,74 55,87 54,25 118,-20 73,-52 -16,-12 -25,-13 -35,-4 -10,8 -17,8 -26,-1 -13,-13 5,-31 34,-31 9,0 23,-7 30,-16 12,-14 14,-14 20,3 4,10 8,30 8,45 1,14 13,40 27,57 20,25 34,31 64,31 21,0 42,-6 48,-12 z m -390,-70 c 17,-17 15,-64 -3,-92 -14,-20 -14,-27 0,-66 19,-53 14,-70 -18,-70 -20,0 -27,8 -37,45 -15,55 -31,59 -24,6 5,-46 -17,-76 -49,-67 -12,3 -26,1 -32,-4 -5,-4 -38,-12 -73,-16 l -62,-7 v 121 c 0,137 -3,132 90,137 30,2 62,6 70,8 8,3 22,8 30,10 29,10 96,7 108,-5 z m -325,-70 c 23,-27 24,-129 1,-167 -22,-37 -45,-50 -100,-58 l -45,-6 3,124 3,124 40,6 c 52,8 76,2 98,-23 z m -163,-114 v -125 l -27,3 c -22,2 -32,13 -48,46 -11,23 -23,42 -28,42 -5,0 -8,-19 -7,-42 4,-63 2,-68 -23,-68 -23,0 -24,1 -23,115 1,116 9,144 40,132 8,-3 25,-25 38,-49 l 23,-43 3,52 c 3,50 7,56 45,62 4,0 7,-56 7,-125 z m -191,65 c 40,-43 34,-160 -11,-209 -41,-44 -107,-30 -128,26 -24,62 -2,158 44,189 29,21 72,18 95,-6 z m -147,-27 c -1,-13 -16,-55 -32,-92 -17,-38 -30,-72 -30,-77 0,-4 15,-8 33,-8 25,0 32,-4 32,-20 0,-16 -12,-22 -69,-33 -45,-9 -72,-10 -78,-4 -7,7 4,41 30,101 l 40,91 h -34 c -33,0 -42,12 -26,36 8,13 86,33 117,31 15,-2 19,-8 17,-25 z"
         id="path10074"
         style="fill:#1f1c30;fill-opacity:1" /><path
         d="m 11420,6722 c -13,-42 -24,-81 -24,-87 -1,-12 -51,-29 -166,-54 -52,-12 -144,-33 -205,-47 -60,-14 -159,-36 -220,-49 -60,-13 -207,-47 -325,-74 -118,-27 -216,-49 -217,-47 -4,4 -27,238 -26,270 v 30 l -17,-22 c -10,-12 -21,-22 -25,-22 -8,0 -69,-63 -103,-106 -32,-41 -82,-149 -82,-178 0,-31 -14,-41 -75,-54 -27,-6 -90,-20 -140,-31 -49,-11 -121,-27 -160,-36 -38,-8 -92,-21 -119,-28 l -49,-13 -23,-84 c -12,-47 -20,-89 -16,-94 3,-5 -1,-6 -8,-1 -10,6 -11,2 -6,-19 4,-18 3,-25 -4,-21 -6,3 -10,-3 -10,-14 0,-12 -4,-21 -10,-21 -5,0 -10,-5 -10,-10 0,-21 -99,-156 -153,-209 -36,-35 -54,-59 -50,-70 4,-13 3,-14 -5,-2 -9,13 -13,13 -27,1 -16,-13 -16,-15 2,-22 15,-7 14,-8 -4,-4 -15,3 -49,-14 -104,-50 -103,-67 -262,-135 -404,-170 -110,-28 -149,-44 -106,-44 17,0 22,-4 17,-16 -3,-9 -6,-18 -6,-20 0,-2 -11,-4 -25,-4 -14,0 -25,6 -25,13 0,8 -3,7 -9,-3 -6,-8 -7,-18 -5,-22 3,-4 -1,-8 -9,-8 -17,0 -47,31 -47,49 0,6 -6,11 -12,9 -17,-3 -53,17 -112,63 -27,22 -54,39 -61,39 -7,0 -24,13 -37,28 -13,15 -31,31 -41,35 -9,3 -22,18 -27,32 -6,15 -17,25 -29,25 -26,0 -48,27 -33,42 17,17 15,48 -2,48 -8,0 -22,7 -31,17 -16,15 -16,17 2,27 34,19 61,17 77,-5 8,-12 13,-26 10,-31 -3,-4 5,-8 16,-8 18,0 21,4 16,24 -3,12 -2,26 2,30 4,4 7,13 8,19 0,7 2,19 2,27 1,11 11,16 30,15 15,-1 34,4 42,10 8,6 27,16 42,23 23,9 26,9 21,-3 -3,-8 -1,-15 5,-15 5,0 12,-9 15,-20 3,-11 11,-20 19,-20 10,0 9,3 -2,10 -13,8 -12,10 3,10 12,0 17,6 16,18 -5,35 11,62 39,63 l 27,2 -25,4 c -14,3 -29,11 -33,19 -4,8 -18,14 -30,15 -16,0 -11,5 17,15 22,8 42,11 45,8 3,-4 0,-9 -6,-11 -16,-6 -17,-23 -3,-23 6,0 15,12 20,26 7,18 15,24 26,20 8,-3 12,-2 9,4 -3,6 3,10 14,10 21,0 30,-25 11,-32 -14,-4 -14,-30 -2,-93 l 10,-50 2,50 c 1,28 3,55 5,60 1,6 3,16 3,22 1,7 23,24 50,38 54,28 82,49 82,60 0,4 -6,3 -12,-3 -7,-5 -34,-13 -61,-17 -26,-4 -50,-11 -53,-16 -3,-5 -9,-7 -13,-5 -4,3 -55,-8 -114,-23 -76,-20 -110,-25 -116,-17 -8,10 -32,195 -33,259 -1,15 -2,27 -4,27 -21,0 -164,-174 -164,-199 0,-6 -3,-11 -7,-11 -5,0 -25,-34 -47,-74 -41,-79 -64,-96 -128,-96 -16,0 -27,-3 -25,-7 3,-5 -5,-8 -16,-9 -12,0 -65,-11 -117,-23 -268,-64 -414,-92 -439,-86 -24,6 -24,6 -8,-19 19,-28 23,-66 7,-66 -5,0 -10,-18 -10,-40 0,-23 5,-40 11,-40 9,0 10,-31 5,-113 -4,-68 -3,-122 3,-137 7,-18 10,-20 10,-7 1,9 6,17 11,17 6,0 10,8 10,18 0,13 2,14 9,3 7,-11 13,-11 32,3 13,9 38,16 56,16 27,0 33,4 33,22 v 21 l 23,-21 c 13,-12 31,-22 40,-22 9,0 17,-6 17,-13 0,-7 9,-23 20,-35 11,-12 20,-26 20,-32 0,-8 6,-8 20,0 15,8 20,8 20,-1 0,-7 8,-18 18,-25 10,-8 12,-13 5,-14 -8,0 -13,-14 -13,-37 0,-45 13,-68 32,-61 9,4 14,-1 15,-13 1,-15 -5,-19 -28,-19 -16,0 -29,-5 -29,-10 0,-7 -7,-7 -21,1 -17,9 -25,7 -44,-11 -13,-12 -26,-17 -29,-12 -3,6 -20,15 -37,21 -28,10 -31,9 -26,-8 5,-21 -10,-31 -44,-31 -10,0 -19,-4 -19,-10 0,-5 -5,-10 -11,-10 -6,0 -9,7 -5,15 8,21 -7,19 -37,-5 -14,-11 -30,-20 -36,-20 -6,0 -11,-5 -11,-12 0,-6 -8,-20 -17,-30 -12,-14 -14,-21 -5,-30 8,-8 21,-7 49,5 49,21 189,61 536,152 91,23 112,34 88,43 -40,14 -138,146 -191,257 -41,85 -72,199 -74,275 -3,73 1,90 19,90 15,0 45,-43 45,-65 0,-9 7,-18 15,-21 8,-4 15,-11 15,-16 0,-11 29,-46 74,-86 16,-15 34,-33 40,-40 12,-14 41,-44 67,-67 9,-8 23,-15 32,-15 10,0 17,-4 17,-10 0,-5 7,-10 15,-10 9,0 18,-7 21,-15 4,-8 10,-15 15,-15 5,0 31,-13 57,-30 27,-16 54,-30 60,-30 6,0 37,-12 67,-26 31,-14 66,-24 77,-22 16,2 5,14 -52,53 -40,27 -77,57 -84,65 -15,21 -106,94 -133,109 -13,6 -23,16 -23,22 0,6 -10,19 -22,29 -21,17 -21,19 -6,25 12,5 30,-4 55,-24 21,-17 42,-31 47,-31 5,0 27,-14 50,-30 23,-17 55,-41 73,-53 18,-12 79,-58 136,-103 57,-44 108,-83 114,-87 5,-3 57,7 114,23 57,15 165,44 239,64 74,20 167,44 205,55 39,10 183,49 320,86 138,36 324,87 415,112 91,25 196,53 233,63 38,10 71,20 74,23 10,11 -9,27 -32,27 -14,0 -40,9 -60,20 -20,11 -40,20 -45,20 -5,0 -26,11 -46,25 -20,14 -45,25 -54,25 -10,0 -28,8 -41,19 -13,10 -35,22 -49,26 -13,4 -31,14 -39,23 -13,13 -16,12 -22,-4 -7,-17 -8,-18 -8,-1 -1,10 -8,20 -16,24 -25,9 12,45 39,37 40,-11 141,-53 256,-104 211,-95 243,-107 275,-99 17,3 73,19 125,33 84,24 202,56 470,127 206,54 202,52 335,161 52,42 89,87 80,96 -3,4 -13,-1 -20,-11 -7,-10 -16,-14 -19,-9 -11,18 6,42 30,42 22,0 24,3 19,32 -3,18 -10,37 -15,44 -6,6 -6,14 -2,18 4,4 -6,4 -21,1 -21,-6 -31,-3 -42,11 -7,11 -19,19 -27,19 -7,0 -14,10 -16,23 -4,23 -3,23 22,7 14,-10 24,-20 22,-24 -2,-3 11,-6 30,-7 19,0 34,3 34,8 0,4 -4,8 -8,8 -5,0 -19,9 -32,20 -13,11 -34,20 -47,20 -24,0 -32,25 -10,33 7,3 4,6 -7,6 -14,1 -17,6 -13,22 4,15 2,19 -9,15 -8,-3 -13,-2 -12,2 31,65 30,64 78,59 40,-5 43,-4 25,9 -16,12 -17,14 -2,14 9,0 17,5 17,10 0,13 -72,2 -81,-12 -3,-4 -16,3 -29,17 -13,14 -19,25 -13,25 6,0 18,3 27,6 9,3 16,1 16,-4 0,-6 -8,-13 -17,-15 -17,-4 -17,-5 -1,-6 10,0 25,8 35,18 10,10 50,26 88,35 39,9 85,21 102,27 18,6 37,8 42,5 5,-3 14,1 21,9 7,8 17,12 23,8 5,-3 7,-2 4,4 -6,9 24,141 37,161 3,6 2,13 -2,16 -5,3 -20,-29 -32,-72 z m -376,-238 c 19,-7 21,-39 4,-51 -7,-4 -22,-8 -33,-8 -31,0 -33,-20 -2,-23 62,-7 71,-90 15,-137 -53,-45 -146,-23 -103,25 14,15 22,17 37,9 14,-7 23,-7 34,1 18,16 9,30 -21,30 -15,0 -31,10 -41,25 -39,60 42,155 110,129 z m -143,-109 c -5,-126 -35,-175 -104,-175 -36,0 -47,19 -47,81 0,98 10,148 33,155 29,9 34,-7 26,-88 -4,-40 -3,-77 2,-82 18,-20 37,16 43,87 9,93 14,109 34,105 15,-3 16,-15 13,-83 z m -161,20 c 0,-18 -7,-28 -25,-35 -24,-9 -25,-14 -25,-84 0,-91 -5,-106 -37,-106 h -26 l 6,86 c 5,83 4,85 -17,82 -11,-2 -22,-9 -22,-15 -1,-7 -2,-20 -3,-29 -1,-22 -59,-74 -82,-74 -16,0 -19,-8 -19,-45 0,-39 -3,-45 -25,-51 -14,-4 -28,-4 -31,-1 -3,2 -1,56 3,118 l 8,113 59,15 c 54,13 60,13 72,-3 11,-16 13,-16 19,3 6,19 22,26 100,44 39,9 45,7 45,-18 z m -310,-55 c 0,-6 -13,-36 -29,-68 -15,-31 -31,-81 -34,-111 -6,-52 -18,-71 -44,-71 -9,0 -13,17 -13,54 0,35 -8,73 -25,110 -18,41 -22,58 -13,60 7,2 21,7 31,10 14,5 22,-1 30,-24 14,-36 23,-38 31,-6 3,14 13,32 22,40 17,18 44,21 44,6 z m -219,-129 -3,-83 33,4 c 29,2 34,-1 37,-19 4,-27 -16,-39 -82,-48 l -49,-8 8,114 c 7,113 14,132 45,126 12,-2 14,-18 11,-86 z m -97,-34 c 10,-52 16,-103 14,-113 -5,-27 -44,-31 -51,-5 -4,17 -9,19 -28,13 -13,-5 -28,-18 -34,-28 -19,-36 -45,-45 -45,-16 0,16 49,184 65,225 4,10 18,17 34,17 27,0 28,-3 45,-93 z m -166,47 c 28,-20 29,-60 1,-69 -14,-5 -25,-1 -34,12 -22,30 -39,1 -40,-65 0,-44 3,-57 15,-57 8,0 19,10 25,23 6,13 19,22 32,22 20,0 21,-3 12,-29 -25,-71 -108,-96 -137,-41 -30,56 7,182 60,208 32,15 40,14 66,-4 z m -149,-71 c -1,-140 -32,-203 -98,-203 -45,0 -53,19 -52,122 1,97 4,104 36,110 19,3 20,-3 20,-79 0,-44 3,-84 7,-89 19,-18 36,21 43,99 6,74 15,96 38,97 4,0 7,-26 6,-57 z m -164,-14 c 0,-19 -8,-26 -39,-34 -47,-13 -60,-35 -22,-35 21,0 26,-5 26,-25 0,-18 -7,-26 -25,-31 -16,-4 -25,-13 -25,-25 0,-16 5,-18 28,-13 15,4 31,7 36,8 14,1 20,-34 8,-46 -10,-10 -124,-39 -130,-33 -2,2 -1,56 3,119 7,115 8,116 34,122 14,3 40,10 56,14 41,11 50,7 50,-21 z m 486,-166 c 8,-16 24,-37 36,-48 15,-13 23,-32 23,-53 0,-26 -4,-32 -22,-33 -18,0 -15,-3 11,-12 19,-7 36,-17 38,-24 6,-17 -36,-38 -50,-24 -5,5 -24,8 -41,5 -27,-5 -29,-4 -15,8 22,18 28,51 13,66 -18,16 -34,15 -34,-3 0,-8 5,-15 11,-15 17,0 -1,-21 -28,-31 -18,-6 -30,-5 -44,5 -15,10 -17,15 -7,19 7,3 2,6 -13,6 -33,1 -79,23 -79,38 0,6 -8,9 -18,7 -9,-3 -35,3 -57,12 -22,10 -46,17 -52,15 -17,-3 -16,21 1,44 12,16 16,17 30,6 12,-10 30,-12 69,-6 28,4 61,8 73,9 11,1 24,5 30,8 20,13 84,20 84,10 0,-6 -4,-12 -9,-14 -5,-2 -5,-14 1,-28 7,-20 11,-22 19,-10 8,13 10,13 18,0 6,-8 13,-11 18,-7 4,5 3,11 -2,15 -10,7 -35,48 -35,57 0,15 18,1 31,-22 z"
         id="path10076"
         style="fill:#1f1c30;fill-opacity:1" /><path
         d="m 13583,6155 c -6,-14 -7,-27 -2,-31 5,-3 9,0 9,7 0,7 3,9 7,6 3,-4 -2,-16 -12,-27 -16,-18 -16,-20 -1,-26 10,-4 14,-13 10,-28 -3,-12 2,-43 11,-69 9,-26 13,-57 10,-67 -4,-11 -2,-20 4,-20 5,0 9,-21 9,-47 -1,-27 2,-61 5,-78 16,-66 28,-143 34,-207 3,-37 9,-65 14,-62 5,3 9,-21 9,-53 0,-32 4,-75 9,-95 5,-22 5,-36 0,-32 -5,3 -9,-2 -9,-10 0,-8 6,-19 13,-23 6,-4 13,-19 13,-33 3,-62 15,-169 24,-210 16,-74 28,-199 22,-222 -3,-14 -1,-19 6,-14 12,7 18,-11 26,-84 12,-118 59,-459 72,-532 8,-46 17,-114 20,-153 3,-38 9,-83 14,-100 5,-16 14,-77 21,-135 6,-58 13,-114 15,-125 42,-254 52,-418 25,-400 -5,2 -15,-2 -22,-11 -11,-14 -10,-15 11,-12 41,5 53,61 40,182 -7,55 -13,103 -16,107 -2,3 -6,28 -9,55 -3,27 -10,78 -15,114 -22,167 -50,364 -64,455 -8,55 -17,118 -20,140 -3,22 -8,57 -11,78 -3,20 -9,72 -14,115 -5,42 -23,169 -40,282 -17,113 -34,230 -36,260 -3,30 -9,68 -14,85 -5,16 -12,59 -16,95 -7,81 -42,337 -55,410 -5,30 -21,141 -36,245 -14,105 -30,194 -34,198 -4,5 -5,28 -2,53 5,48 -7,58 -25,19 z"
         id="path10078" /><path
         d="m 11881,6091 c -11,-7 -11,-9 0,-14 10,-4 9,-6 -4,-6 -9,-1 -23,-13 -29,-27 -10,-22 -10,-28 3,-38 9,-6 19,-28 23,-48 11,-59 31,-45 29,20 -1,6 5,12 11,12 7,0 12,-16 13,-37 1,-49 19,-138 32,-160 9,-16 10,-15 10,7 0,14 -3,56 -8,94 -6,52 -4,69 6,73 7,3 13,16 13,29 0,50 50,11 51,-39 v -32 l 15,40 c 22,59 34,68 62,45 17,-14 23,-30 24,-59 0,-45 16,-56 47,-35 12,8 26,12 31,9 6,-3 10,2 10,12 0,10 3,28 6,41 5,18 3,21 -11,15 -12,-4 -16,-3 -11,5 6,10 -19,23 -54,27 -35,5 -70,18 -70,27 0,5 -8,8 -17,6 -10,-1 -25,2 -33,7 -34,22 -101,30 -111,14 -7,-11 -9,-10 -9,4 0,19 -8,21 -29,8 z"
         id="path10080" /><path
         d="m 11815,6060 c -3,-5 -19,-7 -36,-3 -36,7 -72,-10 -114,-53 -86,-90 -160,-169 -157,-171 8,-9 -1,-23 -14,-23 -9,0 -27,-11 -39,-24 -21,-23 -21,-25 -4,-29 14,-4 19,0 19,15 0,17 5,19 25,14 20,-5 25,-3 25,13 0,15 5,18 23,13 20,-5 21,-4 8,11 -16,20 -11,21 24,5 19,-9 25,-19 25,-44 0,-28 -3,-32 -17,-27 -10,4 -21,11 -24,16 -4,5 -13,6 -22,1 -13,-8 -12,-12 6,-34 12,-14 40,-36 61,-50 36,-22 39,-22 31,-4 -13,28 -8,86 7,96 7,5 28,7 45,4 l 33,-5 -20,39 c -11,22 -20,46 -20,55 0,17 25,21 35,5 4,-7 12,-7 25,0 15,8 21,6 29,-7 14,-25 24,-10 24,37 0,25 4,40 12,40 7,0 15,17 18,38 3,20 9,47 13,60 6,22 -9,32 -21,12 z"
         id="path10082" /><path
         d="m 11417,5360 c -21,-4 -43,-12 -50,-19 -6,-6 -26,-11 -44,-11 -17,0 -43,-5 -57,-11 -19,-9 -39,-8 -93,7 -37,10 -71,22 -74,26 -3,5 -20,2 -39,-5 l -33,-15 24,-15 c 13,-8 51,-28 84,-42 33,-15 92,-42 130,-60 138,-64 224,-97 240,-92 19,8 20,41 0,57 -8,7 -12,16 -9,21 3,5 -7,4 -21,-1 -36,-14 -42,-13 -48,9 -3,12 -17,20 -46,25 -22,3 -41,10 -41,15 0,19 42,22 111,11 70,-12 110,-8 47,5 -119,23 -138,29 -138,43 0,10 5,12 18,6 35,-15 92,-17 92,-3 0,19 45,38 73,31 20,-5 21,-4 8,11 -14,18 -65,21 -134,7 z"
         id="path10084" /><path
         d="m 8029,4862 c 0,-4 -2,-17 -3,-29 -3,-28 -39,-60 -77,-68 -22,-5 -29,-12 -29,-30 0,-13 6,-26 13,-28 6,-3 -7,-6 -30,-6 -23,-1 -48,-7 -56,-15 -8,-8 -27,-16 -43,-19 -16,-2 117,-4 296,-4 179,-1 316,1 305,4 -11,2 -55,15 -97,29 -42,13 -94,24 -114,24 -36,0 -37,1 -20,19 17,19 16,20 -29,40 -26,12 -51,21 -56,21 -5,0 -9,5 -9,11 0,13 -50,62 -51,51 z"
         id="path10086" /><path
         d="m 8705,4578 c -29,-16 -35,-28 -35,-69 0,-41 16,-58 77,-81 42,-16 67,-8 45,14 -6,6 -5,19 4,37 18,37 2,89 -33,102 -30,11 -33,11 -58,-3 z"
         id="path10088" /><path
         d="m 7801,4530 c -25,-21 -51,-26 -51,-10 0,6 -4,10 -10,10 -5,0 -10,-7 -10,-15 0,-18 -12,-19 -28,-3 -9,9 -15,9 -24,-1 -11,-10 -10,-15 3,-24 39,-29 48,-75 24,-121 -9,-16 -14,-30 -13,-32 2,-1 23,-14 47,-28 41,-23 46,-23 57,-8 10,13 16,14 37,5 14,-7 34,-9 44,-7 17,5 18,12 13,54 -6,44 -4,52 17,70 13,11 23,24 23,30 0,13 -37,50 -50,50 -5,0 -17,11 -26,25 -19,30 -22,30 -53,5 z"
         id="path10090" /><path
         d="m 13994,2988 c -4,-7 -3,-8 5,-4 16,10 44,-56 28,-66 -9,-6 -9,-10 0,-16 6,-4 12,-32 13,-62 1,-30 6,-100 10,-155 5,-55 11,-244 14,-420 6,-415 25,-1125 35,-1335 l 8,-165 1,185 c 2,205 -15,1029 -23,1100 -2,25 -9,224 -15,442 -11,411 -13,448 -38,486 -16,25 -27,28 -38,10 z"
         id="path10092" /><path
         d="m 6587,1766 c -46,-15 -76,-32 -92,-52 -30,-38 -74,-249 -85,-409 -13,-186 -18,-452 -9,-467 5,-7 9,34 9,100 0,296 42,653 86,748 19,40 75,71 144,80 76,10 107,23 55,23 -22,0 -71,-11 -108,-23 z"
         id="path10094" /></g><path
       style="opacity:1;fill:none;fill-opacity:1;stroke:#0f0f1d;stroke-width:0.529167;stroke-opacity:1"
       d="m 54.388636,-57.947626 c -7.584312,4.390384 -15.168709,8.780817 -19.772154,12.395667 -4.603445,3.61485 -6.225744,6.453874 -7.07745,8.644118 -0.851706,2.190244 -0.932821,3.731429 -1.013923,5.272393"
       id="path14279"
       inkscape:path-effect="#path-effect14281"
       inkscape:original-d="m 54.388636,-57.947626 c -7.584131,4.390697 -15.168528,8.78113 -22.753188,13.171297 -1.622097,2.8394 -3.244395,5.678424 -4.866992,8.517237 -0.08085,1.54151 -0.161967,3.082695 -0.243347,4.623644"
       sodipodi:nodetypes="cccc" /><path
       style="opacity:1;fill:none;fill-opacity:1;stroke:#0f0f1d;stroke-width:0.529167;stroke-opacity:1"
       d="m 209.24218,-31.48957 c -1.08969,-3.039659 -2.17949,-6.079638 -4.01491,-9.119661 -1.83542,-3.040024 -4.41648,-6.079938 -8.0014,-9.836947 -3.58491,-3.757009 -8.17346,-8.230847 -12.76237,-12.705037"
       id="path14391"
       inkscape:path-effect="#path-effect14393"
       inkscape:original-d="m 209.24218,-31.48957 c -1.08954,-3.039713 -2.17935,-6.079689 -3.26941,-9.119931 -2.5809,-3.039774 -5.16196,-6.079688 -7.74334,-9.119931 -4.58847,-4.473752 -9.17702,-8.947591 -13.76593,-13.421783" /><path
       style="opacity:1;fill:none;fill-opacity:1;stroke:#1f1c30;stroke-width:3;stroke-dasharray:none;stroke-opacity:1"
       d="m 27.876023,-31.83372 c -0.114726,3.728534 -0.229444,7.456801 9.808568,11.041612 10.038013,3.584811 30.227653,7.026227 50.417895,11.385506 20.190244,4.3592793 40.379884,9.63611635 52.769254,13.9954287 12.38937,4.3593124 16.97793,7.8007373 23.74615,31.4327353 6.76822,23.631998 15.7159,67.452668 22.48418,105.997608 6.76829,38.54494 11.3568,71.81166 15.94544,105.07933 0,0 2.9512,23.62037 2.9512,23.62037"
       id="path14395"
       inkscape:path-effect="#path-effect14397"
       inkscape:original-d="m 27.876023,-31.83372 c -0.114454,3.728542 -0.229172,7.456809 -0.344155,11.184821 20.1907,3.441816 40.38034,6.883231 60.57011,10.324449 20.190702,5.277311 40.380342,10.554147 60.570112,15.830823 4.58898,3.441816 9.17755,6.883231 13.76592,10.324449 8.94832,43.822693 17.89597,87.643368 26.84357,131.464658 4.58901,33.2686 13.76593,99.80302 13.76593,99.80302 l 2.9512,23.62037"
       sodipodi:nodetypes="cccccccc" /><path
       style="opacity:1;fill:#1f1c30;fill-opacity:1;stroke:#1f1c30;stroke-width:10;stroke-dasharray:none;stroke-opacity:1"
       d="M 271.53302,-145.91888 C 174.71258,23.861037 77.89219,193.64087 -18.928157,363.42063"
       id="path15905"
       inkscape:path-effect="#path-effect15907"
       inkscape:original-d="M 271.53302,-145.91888 C 174.71289,23.861213 77.892502,193.64105 -18.928157,363.42063" /><path
       style="fill:#1f1c30;fill-opacity:1;stroke:#1f1c30;stroke-width:10;stroke-dasharray:none;stroke-opacity:1"
       d="M -18.928155,-145.91888 C 77.89228,23.861039 174.71267,193.64087 271.53301,363.42063"
       id="path15905-3"
       inkscape:path-effect="#path-effect15907-7"
       inkscape:original-d="M -18.928155,-145.91888 C 77.891972,23.861215 174.71236,193.64105 271.53301,363.42063" /></g></svg>
