<?xml version="1.0" encoding="UTF-8" standalone="no"?>
<svg
   width="195.0273mm"
   height="144.48409mm"
   viewBox="0 0 195.0273 144.48408"
   version="1.1"
   id="svg1348"
   sodipodi:docname="gmail.svg"
   inkscape:version="1.2.2 (732a01da63, 2022-12-09)"
   xmlns:inkscape="http://www.inkscape.org/namespaces/inkscape"
   xmlns:sodipodi="http://sodipodi.sourceforge.net/DTD/sodipodi-0.dtd"
   xmlns="http://www.w3.org/2000/svg"
   xmlns:svg="http://www.w3.org/2000/svg"
   xmlns:rdf="http://www.w3.org/1999/02/22-rdf-syntax-ns#"
   xmlns:cc="http://creativecommons.org/ns#"
   xmlns:dc="http://purl.org/dc/elements/1.1/">
  <defs
     id="defs1342">
    <inkscape:path-effect
       effect="powerclip"
       id="path-effect2244"
       is_visible="true"
       lpeversion="1"
       inverse="true"
       flatten="false"
       hide_clip="false"
       message="Use fill-rule evenodd on &lt;b&gt;fill and stroke&lt;/b&gt; dialog if no flatten result after convert clip to paths." />
    <inkscape:path-effect
       effect="powerclip"
       id="path-effect2127"
       is_visible="true"
       lpeversion="1"
       inverse="true"
       flatten="false"
       hide_clip="false"
       message="Use fill-rule evenodd on &lt;b&gt;fill and stroke&lt;/b&gt; dialog if no flatten result after convert clip to paths." />
    <clipPath
       clipPathUnits="userSpaceOnUse"
       id="clipPath2123">
      <path
         id="path2125"
         style="display:block;fill:#000000;fill-opacity:1;stroke:#000000;stroke-width:2;stroke-miterlimit:4;stroke-dasharray:none;stroke-opacity:1"
         d="M -6.9882038,85.800965 V 143.2605 h 3.6183837 v 1.33842 H 207.05609 v -9.31777 H 5.0472372 V 96.283529 H 211.97879 V 86.96575 H 5.0472372 v -1.164785 z" />
    </clipPath>
    <clipPath
       clipPathUnits="userSpaceOnUse"
       id="clipPath2240">
      <rect
         style="display:none;fill:#000000;fill-opacity:1;stroke:#000000;stroke-width:2.02915;stroke-miterlimit:4;stroke-dasharray:none;stroke-opacity:1"
         id="rect2242"
         width="214.10013"
         height="53.183041"
         x="180.08972"
         y="117.14772"
         d="m 180.08972,117.14772 h 214.10013 v 53.18304 H 180.08972 Z" />
      <path
         id="lpe_path-effect2244"
         style="fill:#000000;fill-opacity:1;stroke:#000000;stroke-width:2.02915;stroke-miterlimit:4;stroke-dasharray:none;stroke-opacity:1"
         class="powerclip"
         d="M 209.89773,66.4972 H 364.38181 V 220.98129 H 209.89773 Z m -29.80801,50.65052 v 53.18304 h 214.10013 v -53.18304 z" />
    </clipPath>
  </defs>
  <sodipodi:namedview
     id="base"
     pagecolor="#ffffff"
     bordercolor="#666666"
     borderopacity="1.0"
     inkscape:pageopacity="0.0"
     inkscape:pageshadow="2"
     inkscape:zoom="0.68149425"
     inkscape:cx="311.81481"
     inkscape:cy="283.20122"
     inkscape:document-units="mm"
     inkscape:current-layer="layer1"
     inkscape:document-rotation="0"
     showgrid="false"
     fit-margin-top="0"
     fit-margin-left="0"
     fit-margin-right="0"
     fit-margin-bottom="0"
     inkscape:window-width="1920"
     inkscape:window-height="1017"
     inkscape:window-x="-8"
     inkscape:window-y="-8"
     inkscape:window-maximized="1"
     inkscape:showpageshadow="0"
     inkscape:pagecheckerboard="0"
     inkscape:deskcolor="#d1d1d1" />
  <metadata
     id="metadata1345">
    <rdf:RDF>
      <cc:Work
         rdf:about="">
        <dc:format>image/svg+xml</dc:format>
        <dc:type
           rdf:resource="http://purl.org/dc/dcmitype/StillImage" />
        <dc:title />
      </cc:Work>
    </rdf:RDF>
  </metadata>
  <g
     inkscape:label="Layer 1"
     inkscape:groupmode="layer"
     id="layer1"
     transform="translate(-10.062229,-42.767439)">
    <g
       id="g2065"
       transform="matrix(0.67540353,0,0,0.67540353,10.062229,96.263754)">
      <rect
         style="fill:#ecf0f1"
         width="58"
         height="58"
         id="rect1977"
         x="0"
         y="0" />
      <rect
         style="fill:#546a79"
         width="58"
         height="12"
         id="rect1979"
         x="0"
         y="0" />
      <circle
         style="fill:#ed7161"
         cx="6"
         cy="6"
         r="3"
         id="circle1981" />
      <circle
         style="fill:#f0c419"
         cx="15"
         cy="6"
         r="3"
         id="circle1983" />
      <circle
         style="fill:#4fba6f"
         cx="24"
         cy="6"
         r="3"
         id="circle1985" />
      <rect
         x="5"
         y="17"
         style="fill:#8697cb"
         width="48"
         height="36"
         id="rect1987" />
      <g
         id="g1997">
        <path
           style="fill:#ffffff"
           d="m 30,29 h 9 c 0.552,0 1,-0.448 1,-1 0,-0.552 -0.448,-1 -1,-1 h -9 c -0.552,0 -1,0.448 -1,1 0,0.552 0.448,1 1,1 z"
           id="path1989" />
        <path
           style="fill:#ffffff"
           d="M 48,37 H 30 c -0.552,0 -1,0.448 -1,1 0,0.552 0.448,1 1,1 h 18 c 0.552,0 1,-0.448 1,-1 0,-0.552 -0.448,-1 -1,-1 z"
           id="path1991" />
        <path
           style="fill:#ffffff"
           d="m 30,34 h 18 c 0.552,0 1,-0.448 1,-1 0,-0.552 -0.448,-1 -1,-1 H 30 c -0.552,0 -1,0.448 -1,1 0,0.552 0.448,1 1,1 z"
           id="path1993" />
        <path
           style="fill:#ffffff"
           d="M 48,42 H 30 c -0.552,0 -1,0.448 -1,1 0,0.552 0.448,1 1,1 h 18 c 0.552,0 1,-0.448 1,-1 0,-0.552 -0.448,-1 -1,-1 z"
           id="path1995" />
      </g>
      <rect
         x="9"
         y="27"
         style="fill:#556080"
         width="18"
         height="17"
         id="rect1999" />
      <g
         id="g2001" />
      <g
         id="g2003" />
      <g
         id="g2005" />
      <g
         id="g2007" />
      <g
         id="g2009" />
      <g
         id="g2011" />
      <g
         id="g2013" />
      <g
         id="g2015" />
      <g
         id="g2017" />
      <g
         id="g2019" />
      <g
         id="g2021" />
      <g
         id="g2023" />
      <g
         id="g2025" />
      <g
         id="g2027" />
      <g
         id="g2029" />
    </g>
    <g
       id="g1975"
       transform="matrix(0.09765476,0,0,0.09765476,155.0901,90.850837)">
      <path
         style="fill:#e6f3ff"
         d="m 512,105.739 v 300.522 c 0,27.715 -22.372,50.087 -50.087,50.087 H 50.087 C 22.372,456.348 0,433.976 0,406.261 V 105.739 c 0,-0.89 0,-1.781 0.111,-2.671 1.336,-25.6 21.704,-45.969 47.304,-47.304 0.89,-0.111 1.781,-0.111 2.671,-0.111 h 411.826 c 0.89,0 1.892,0 2.783,0.111 25.489,1.336 45.857,21.704 47.193,47.193 0.112,0.89 0.112,1.892 0.112,2.782 z"
         id="path1911" />
      <path
         style="fill:#cfdbe6"
         d="m 464.696,55.763 c -0.892,-0.111 -1.891,-0.111 -2.783,-0.111 H 256 v 400.696 h 205.913 c 27.715,0 50.087,-22.372 50.087,-50.087 V 105.739 c 0,-0.89 0,-1.892 -0.111,-2.783 -1.336,-25.488 -21.705,-45.857 -47.193,-47.193 z"
         id="path1913" />
      <path
         style="fill:#ff4b26"
         d="M 511.889,102.957 C 510.553,77.468 490.185,57.1 464.696,55.764 382.89,137.569 336.951,183.509 256,264.459 225.291,233.732 77.61,85.958 47.416,55.763 21.816,57.099 1.447,77.467 0.112,103.067 0,103.958 0,104.849 0,105.739 v 300.522 c 0,27.715 22.372,50.087 50.087,50.087 H 66.783 V 169.739 l 165.621,165.51 c 6.456,6.567 15.026,9.795 23.597,9.795 8.57,0 17.141,-3.228 23.597,-9.795 L 445.219,169.628 v 286.72 h 16.696 c 27.715,0 50.087,-22.372 50.087,-50.087 V 105.739 C 512,104.849 512,103.847 511.889,102.957 Z"
         id="path1915" />
      <path
         style="fill:#d93f21"
         d="M 279.596,335.249 445.217,169.628 v 286.72 h 16.696 c 27.715,0 50.087,-22.372 50.087,-50.087 V 105.739 c 0,-0.89 0,-1.892 -0.111,-2.783 C 510.553,77.467 490.185,57.099 464.696,55.763 382.891,137.569 336.951,183.509 256,264.459 v 80.584 c 8.57,0 17.141,-3.227 23.596,-9.794 z"
         id="path1917" />
      <g
         id="g1919" />
      <g
         id="g1921" />
      <g
         id="g1923" />
      <g
         id="g1925" />
      <g
         id="g1927" />
      <g
         id="g1929" />
      <g
         id="g1931" />
      <g
         id="g1933" />
      <g
         id="g1935" />
      <g
         id="g1937" />
      <g
         id="g1939" />
      <g
         id="g1941" />
      <g
         id="g1943" />
      <g
         id="g1945" />
      <g
         id="g1947" />
    </g>
    <path
       sodipodi:type="star"
       style="fill:#000000;fill-opacity:1;stroke:#000000;stroke-width:2;stroke-miterlimit:4;stroke-dasharray:none;stroke-opacity:1"
       id="path2133"
       sodipodi:sides="3"
       sodipodi:cx="40.2799"
       sodipodi:cy="142.67819"
       sodipodi:r1="2.485949"
       sodipodi:r2="1.2429745"
       sodipodi:arg1="2.2455373"
       sodipodi:arg2="3.2927348"
       inkscape:flatsided="false"
       inkscape:rounded="0"
       inkscape:randomized="0"
       d="m 38.726939,144.61939 0.324156,-2.12835 0.324156,-2.12835 1.681129,1.3449 1.681128,1.34491 -2.005284,0.78344 z"
       inkscape:transform-center-x="-0.45232379"
       inkscape:transform-center-y="-0.18715322" />
    <path
       sodipodi:type="star"
       style="fill:#000000;fill-opacity:1;stroke:#000000;stroke-width:2;stroke-miterlimit:4;stroke-dasharray:none;stroke-opacity:1"
       id="path2133-8"
       sodipodi:sides="3"
       sodipodi:cx="-172.61243"
       sodipodi:cy="87.303482"
       sodipodi:r1="2.485949"
       sodipodi:r2="1.2429745"
       sodipodi:arg1="2.2455373"
       sodipodi:arg2="3.2927348"
       inkscape:flatsided="false"
       inkscape:rounded="0"
       inkscape:randomized="0"
       inkscape:transform-center-x="0.39768775"
       inkscape:transform-center-y="0.24441103"
       d="m -174.16539,89.244682 0.32416,-2.128352 0.32416,-2.128351 1.68112,1.344903 1.68113,1.344903 -2.00528,0.783448 z"
       transform="matrix(-0.93969262,-0.34202015,-0.34202015,0.93969262,39.978172,-53.189522)" />
    <g
       id="g2225"
       transform="matrix(0.05559964,0,0,0.05559964,93.340603,158.56493)">
      <g
         id="g2165">
        <polygon
           points="60,380.089 196.194,257.5 60,134.911 "
           id="polygon2155" />
        <polygon
           points="455,380.089 455,134.911 318.806,257.5 "
           id="polygon2157" />
        <polygon
           points="432.579,114.729 82.421,114.729 257.5,272.318 "
           id="polygon2159" />
        <polygon
           points="257.5,312.682 218.615,277.681 82.421,400.271 432.579,400.271 296.385,277.681 "
           id="polygon2161" />
        <polygon
           points="30,84.729 395,84.729 395,54.729 0,54.729 0,340.271 30,340.271 "
           id="polygon2163" />
      </g>
      <g
         id="g2167" />
      <g
         id="g2169" />
      <g
         id="g2171" />
      <g
         id="g2173" />
      <g
         id="g2175" />
      <g
         id="g2177" />
      <g
         id="g2179" />
      <g
         id="g2181" />
      <g
         id="g2183" />
      <g
         id="g2185" />
      <g
         id="g2187" />
      <g
         id="g2189" />
      <g
         id="g2191" />
      <g
         id="g2193" />
      <g
         id="g2195" />
    </g>
    <text
       xml:space="preserve"
       style="font-size:7.05556px;line-height:1.25;font-family:Arial;-inkscape-font-specification:Arial;stroke-width:0.264583"
       x="81.530403"
       y="60.953686"
       id="text2229"><tspan
         sodipodi:role="line"
         id="tspan2227"
         x="81.530403"
         y="60.953686"
         style="stroke-width:0.264583">Request toutes </tspan><tspan
         sodipodi:role="line"
         x="81.530403"
         y="69.773132"
         style="stroke-width:0.264583"
         id="tspan2231">les 30 secondes</tspan></text>
    <path
       style="fill:none;fill-opacity:1;stroke:#000000;stroke-width:2;stroke-miterlimit:4;stroke-dasharray:none;stroke-opacity:1"
       id="path2235"
       clip-path="url(#clipPath2240)"
       inkscape:path-effect="#path-effect2244"
       sodipodi:type="arc"
       sodipodi:cx="287.13977"
       sodipodi:cy="143.73924"
       sodipodi:rx="71.242043"
       sodipodi:ry="71.242043"
       d="m 358.38181,143.73924 a 71.242043,71.242043 0 0 1 -71.24204,71.24205 71.242043,71.242043 0 0 1 -71.24204,-71.24205 71.242043,71.242043 0 0 1 71.24204,-71.24204 71.242043,71.242043 0 0 1 71.24204,71.24204 z"
       transform="translate(-180.91984,-28.729761)" />
  </g>
</svg>
