<?xml version="1.0" encoding="UTF-8" standalone="no"?>
<!-- Created with Inkscape (http://www.inkscape.org/) -->

<svg
   width="120.16963mm"
   height="71.680626mm"
   viewBox="0 0 120.16963 71.680626"
   version="1.1"
   id="svg25877"
   xml:space="preserve"
   inkscape:version="1.2.2 (732a01da63, 2022-12-09)"
   sodipodi:docname="path.svg"
   xmlns:inkscape="http://www.inkscape.org/namespaces/inkscape"
   xmlns:sodipodi="http://sodipodi.sourceforge.net/DTD/sodipodi-0.dtd"
   xmlns="http://www.w3.org/2000/svg"
   xmlns:svg="http://www.w3.org/2000/svg"><sodipodi:namedview
     id="namedview25879"
     pagecolor="#505050"
     bordercolor="#eeeeee"
     borderopacity="1"
     inkscape:showpageshadow="0"
     inkscape:pageopacity="0"
     inkscape:pagecheckerboard="0"
     inkscape:deskcolor="#505050"
     inkscape:document-units="mm"
     showgrid="false"
     inkscape:zoom="0.54362802"
     inkscape:cx="431.36114"
     inkscape:cy="161.87539"
     inkscape:window-width="1920"
     inkscape:window-height="1017"
     inkscape:window-x="-8"
     inkscape:window-y="-8"
     inkscape:window-maximized="1"
     inkscape:current-layer="layer1" /><defs
     id="defs25874"><inkscape:path-effect
       effect="bspline"
       id="path-effect26428"
       is_visible="true"
       lpeversion="1"
       weight="33.333333"
       steps="2"
       helper_size="0"
       apply_no_weight="true"
       apply_with_weight="true"
       only_selected="false" /><inkscape:path-effect
       effect="bspline"
       id="path-effect26375"
       is_visible="true"
       lpeversion="1"
       weight="33.333333"
       steps="2"
       helper_size="0"
       apply_no_weight="true"
       apply_with_weight="true"
       only_selected="false" /></defs><g
     inkscape:label="Layer 1"
     inkscape:groupmode="layer"
     id="layer1"
     transform="translate(-14.699898,-156.28381)"><path
       style="fill:#fdb835;stroke-width:1.00012"
       d="m 132.35235,205.0423 c -2.49443,-0.46644 -7.4831,-1.39928 -18.55567,-3.73142 -11.07257,-2.33214 -28.228386,-6.06342 -41.957457,-9.20672 -13.729071,-3.14329 -24.030666,-5.69841 -31.098521,-7.52642 -7.067855,-1.82802 -10.901545,-2.92881 -7.474368,-4.36861 3.427178,-1.4398 14.115159,-3.21856 22.906778,-4.67579 8.791618,-1.45723 15.686388,-2.59284 21.709334,-4.09348 6.022945,-1.50064 11.173735,-3.36628 10.038101,-5.33346 -1.135634,-1.96718 -8.557654,-4.03561 -16.020473,-5.57683 -7.462819,-1.54121 -14.965948,-2.55514 -19.792403,-3.20408 -4.826454,-0.64894 -6.976003,-0.93284 -7.977818,-1.01459 -1.001814,-0.0817 -0.856061,0.0387 -0.655251,0.13244 0.200809,0.0938 0.456838,0.16096 5.145079,0.89754 4.68824,0.73657 13.80836,2.14249 21.035742,3.67716 7.227381,1.53466 12.561581,3.19802 14.024119,4.23052 1.462538,1.03249 -0.94645,1.43399 -7.972929,2.43777 -7.026478,1.00378 -18.669928,2.60977 -27.789924,3.9577 -9.119997,1.34792 -15.716046,2.43771 -21.251151,3.87171 -5.535105,1.43401 -10.008946,3.21208 -11.442712,5.01882 -1.433766,1.80674 0.172225,3.64216 3.699746,6.0512 3.527521,2.40903 8.97643,5.39159 19.387041,9.63614 10.41061,4.24455 25.782257,9.75081 38.200362,13.93798 12.418105,4.18717 21.881996,7.05502 30.485785,9.63615 8.60378,2.58114 16.34696,4.87541 20.82091,6.22333 4.47395,1.34791 5.67845,1.74941 6.29149,1.90376 0.61305,0.15434 0.63456,0.0611 0.64534,-3.66726 0.0108,-3.72837 0.0108,-11.09156 0.0321,-14.78402 0.0213,-3.69246 0.0645,-3.71402 0.0784,-3.76262 0.0139,-0.0486 -0.002,-0.12444 -0.009,-0.16245 -0.008,-0.038 -0.008,-0.038 -2.50218,-0.50447 z"
       id="path26373"
       inkscape:path-effect="#path-effect26375"
       inkscape:original-d="m 134.84679,205.50874 c -4.98893,-0.93257 -9.9776,-1.86541 -14.966,-2.79852 -17.15675,-3.73117 -34.312564,-7.46245 -51.468444,-11.19408 -10.30227,-2.55496 -20.603868,-5.11007 -30.905398,-7.66551 -3.83419,-1.1006 -7.66788,-2.20139 -11.50155,-3.30251 10.68815,-1.77857 21.37613,-3.55734 32.064588,-5.3364 6.89478,-1.13539 13.78955,-2.271 20.68472,-3.4069 5.15074,-1.86545 10.30153,-3.73109 15.4527,-5.59704 -7.42258,-2.06825 -14.8446,-4.13668 -22.26649,-6.20541 -7.5037,-1.01372 -15.00683,-2.02765 -22.509838,-3.04187 -2.1499,-0.28365 -4.29945,-0.56755 -6.44877,-0.85173 0.14549,0.12068 0.29125,0.24108 0.43727,0.36123 0.25576,0.0674 0.51178,0.13461 0.76807,0.20152 9.120228,1.40623 18.240348,2.81214 27.360918,4.21782 5.33414,1.66368 10.66834,3.32703 16.0029,4.99015 -2.40935,0.40178 -4.81834,0.80327 -7.22711,1.20452 -11.64419,1.60632 -23.28764,3.21231 -34.931058,4.81807 -6.59657,1.09009 -13.19262,2.17987 -19.78853,3.26941 -4.47428,1.7784 -8.94812,3.55647 -13.42178,5.3343 1.60579,1.83576 3.21178,3.67118 4.81807,5.50637 5.44886,2.98295 10.89777,5.96551 16.34705,8.94786 15.372,5.50675 30.743648,11.01301 46.115868,16.51912 9.46401,2.86822 18.9279,5.73607 28.392244,8.60371 7.74323,2.29463 15.48641,4.58891 23.23001,6.88296 1.20428,0.40178 2.40878,0.80328 3.61356,1.20452 0.0213,-0.0929 0.0427,-0.18615 0.0645,-0.27962 -2.7e-4,-7.36322 -2.7e-4,-14.72641 0,-22.09002 0.0427,-0.0212 0.0858,-0.0428 0.12905,-0.0645 -0.0158,-0.0755 -0.0313,-0.15135 -0.0466,-0.22743 z"
       sodipodi:nodetypes="scccccccccccccccccccccccccccss" /><path
       style="fill:#1f1c30;fill-opacity:1;stroke-width:1.00012"
       d="m 95.667362,204.22102 c -0.106604,0.005 -0.319533,0.0152 -0.456268,-0.0152 -0.136734,-0.0304 -0.197578,-0.1014 -0.185028,-0.18999 0.01255,-0.0886 0.09873,-0.19506 0.172238,-0.28883 0.0735,-0.0938 0.134368,-0.17492 0.109155,-0.37272 -0.02521,-0.19779 -0.136745,-0.51211 -0.273632,-0.96078 -0.136888,-0.44867 -0.299117,-1.03168 -0.403058,-1.48794 -0.10394,-0.45626 -0.149567,-0.78579 -0.215488,-0.9963 -0.06592,-0.2105 -0.152104,-0.30176 -0.218091,-0.30161 -0.06599,1.5e-4 -0.111622,0.0914 -0.291629,0.35758 -0.180008,0.26616 -0.494332,0.70722 -0.826384,1.24463 -0.332053,0.53741 -0.681861,1.17112 -0.907505,1.48275 -0.225644,0.31162 -0.327025,0.30149 -0.438574,0.2939 -0.11155,-0.008 -0.233218,-0.0127 -0.326855,-0.0735 -0.09364,-0.0608 -0.159545,-0.1774 -0.149544,-0.29136 0.01,-0.11397 0.09619,-0.2255 0.190048,-0.25609 0.09386,-0.0306 0.19524,0.0201 0.524745,-0.44868 0.329505,-0.46878 0.887171,-1.45737 1.211626,-2.02012 0.324454,-0.56276 0.415707,-0.69964 0.45891,-0.81119 0.0432,-0.11155 0.03813,-0.19776 0.01013,-0.24606 -0.028,-0.0483 -0.07868,-0.0584 -0.144564,0.0178 -0.06589,0.0762 -0.147001,0.23846 -0.195107,0.3728 -0.04811,0.13434 -0.06332,0.2408 -0.126825,0.30405 -0.06351,0.0632 -0.175031,0.0835 -0.286447,0.0581 -0.111417,-0.0254 -0.222956,-0.0964 -0.210364,-0.21536 0.01259,-0.11898 0.149473,-0.28628 0.286359,-0.45358 0.136885,-0.16731 0.273767,-0.33461 0.425899,-0.58048 0.152132,-0.24588 0.319431,-0.57034 0.385436,-0.85176 0.06601,-0.28142 0.03052,-0.51969 0.01276,-0.75796 -0.01776,-0.23826 -0.01776,-0.47653 0.02271,-0.67169 0.04048,-0.19517 0.121589,-0.34726 0.210241,-0.43609 0.08865,-0.0888 0.184972,-0.11416 0.258564,-0.17489 0.07359,-0.0607 0.124276,-0.15703 0.0914,-0.25859 -0.03288,-0.10156 -0.149483,-0.20803 -0.212842,-0.35492 -0.06336,-0.14689 -0.0735,-0.33447 -0.04317,-0.49414 0.03033,-0.15967 0.101303,-0.29148 0.248296,-0.34487 0.146994,-0.0534 0.370062,-0.028 0.51216,0.0735 0.142097,0.1015 0.202934,0.27894 0.159685,0.44631 -0.04325,0.16736 -0.190271,0.32452 -0.268741,0.45128 -0.07847,0.12675 -0.08861,0.22306 -0.07336,0.30153 0.01524,0.0785 0.0558,0.13931 0.149472,0.18742 0.09367,0.0481 0.240697,0.0836 0.367541,0.15206 0.126843,0.0685 0.233304,0.16986 0.296685,0.4463 0.06338,0.27644 0.08366,0.72764 0.0811,1.02678 -0.0026,0.29914 -0.02792,0.44616 -0.101466,0.67684 -0.07355,0.23069 -0.195222,0.54501 -0.283926,0.80104 -0.0887,0.25602 -0.144469,0.45374 -0.144407,0.71478 6.2e-5,0.26105 0.05583,0.58552 0.136952,0.9556 0.08112,0.37008 0.187586,0.78579 0.301658,1.23448 0.114073,0.44868 0.235745,0.9303 0.324468,1.2649 0.08872,0.3346 0.14449,0.52218 0.162195,0.71742 0.0177,0.19525 -0.0026,0.39804 -0.04579,0.52729 -0.04321,0.12924 -0.109138,0.18503 -0.141948,0.21279 -0.03281,0.0278 -0.0328,0.0277 -0.139408,0.0328 z"
       id="path26426"
       inkscape:path-effect="#path-effect26428"
       inkscape:original-d="m 95.773966,204.21595 c -0.213196,0.0104 -0.426127,0.0205 -0.638794,0.0304 -0.0611,-0.0707 -0.121938,-0.14169 -0.182512,-0.21293 0.08592,-0.10621 0.172109,-0.21267 0.258559,-0.3194 0.06057,-0.0808 0.121409,-0.16197 0.182512,-0.24335 -0.111802,-0.31407 -0.223335,-0.62839 -0.334605,-0.94298 -0.162502,-0.58277 -0.324731,-1.16578 -0.486699,-1.74907 -0.04589,-0.32928 -0.09152,-0.65881 -0.136884,-0.98861 -0.08645,-0.091 -0.172638,-0.18225 -0.258559,-0.27377 -0.0459,0.0915 -0.09152,0.18278 -0.136885,0.27377 -0.314598,0.44134 -0.628917,0.88241 -0.94298,1.32321 -0.350086,0.634 -0.699895,1.26771 -1.049444,1.90117 -0.101663,-0.01 -0.203057,-0.02 -0.304188,-0.0304 -0.121942,-0.005 -0.243613,-0.01 -0.365025,-0.0152 -0.06617,-0.11634 -0.132077,-0.23295 -0.19772,-0.34982 0.08592,-0.11127 0.172108,-0.2228 0.258558,-0.3346 0.101135,0.051 0.202528,0.10166 0.304187,0.15209 0.557424,-0.98836 1.115089,-1.97695 1.673029,-2.96582 0.09099,-0.13663 0.182247,-0.27351 0.273769,-0.41066 -0.0053,-0.0859 -0.0104,-0.1721 -0.01521,-0.25855 -0.05096,-0.01 -0.101661,-0.02 -0.152093,-0.0304 -0.08138,0.1625 -0.162497,0.32473 -0.243351,0.4867 -0.01548,0.10673 -0.03068,0.21319 -0.04563,0.31939 -0.111802,0.0206 -0.223335,0.0408 -0.334605,0.0608 -0.111803,-0.0707 -0.223335,-0.14169 -0.334606,-0.21293 0.136623,-0.16704 0.273503,-0.33434 0.410652,-0.50191 0.136623,-0.16704 0.273505,-0.33434 0.410652,-0.50191 0.167042,-0.32421 0.334341,-0.64867 0.501909,-0.9734 -0.03575,-0.23802 -0.07124,-0.47629 -0.106465,-0.71484 -2.65e-4,-0.23802 -2.65e-4,-0.47629 0,-0.71483 0.08085,-0.15184 0.161967,-0.30393 0.24335,-0.45629 0.09606,-0.0251 0.192387,-0.0504 0.288978,-0.076 0.05043,-0.0961 0.101129,-0.19239 0.152093,-0.28898 -0.116872,-0.1062 -0.233476,-0.21267 -0.349816,-0.3194 -0.0104,-0.18732 -0.02053,-0.3749 -0.03042,-0.56274 0.07071,-0.13156 0.141689,-0.26337 0.212931,-0.39545 0.222811,0.0256 0.445876,0.051 0.669213,0.0761 0.06057,0.17771 0.12141,0.35515 0.182513,0.53233 -0.147294,0.15743 -0.294315,0.31459 -0.441074,0.47149 -0.0104,0.0966 -0.02053,0.19291 -0.03042,0.28898 0.04029,0.0611 0.08085,0.12193 0.121674,0.18251 0.146762,0.0357 0.293783,0.0712 0.441071,0.10646 0.106204,0.10167 0.212667,0.20306 0.319397,0.30419 0.02,0.45149 0.04029,0.90269 0.06084,1.35363 -0.02561,0.14729 -0.05096,0.29431 -0.07605,0.44107 -0.121941,0.3146 -0.243612,0.62892 -0.365024,0.94298 -0.05603,0.19799 -0.1118,0.39571 -0.167301,0.59317 0.0555,0.32473 0.11127,0.6492 0.167301,0.9734 0.106204,0.41599 0.212667,0.8317 0.319397,1.24716 0.121412,0.48191 0.243086,0.96353 0.365025,1.44489 0.0555,0.18785 0.11127,0.37543 0.167304,0.56275 -0.02053,0.20306 -0.04082,0.40585 -0.06084,0.60837 -0.06617,0.056 -0.13208,0.1118 -0.19772,0.1673 z" /></g></svg>
