<?xml version="1.0" encoding="UTF-8" standalone="no"?>
<svg
   width="252.91988mm"
   height="176.14841mm"
   viewBox="0 0 252.91988 176.14841"
   version="1.1"
   id="svg8"
   inkscape:version="1.2.2 (732a01da63, 2022-12-09)"
   sodipodi:docname="stop.svg"
   xmlns:inkscape="http://www.inkscape.org/namespaces/inkscape"
   xmlns:sodipodi="http://sodipodi.sourceforge.net/DTD/sodipodi-0.dtd"
   xmlns="http://www.w3.org/2000/svg"
   xmlns:svg="http://www.w3.org/2000/svg"
   xmlns:rdf="http://www.w3.org/1999/02/22-rdf-syntax-ns#"
   xmlns:cc="http://creativecommons.org/ns#"
   xmlns:dc="http://purl.org/dc/elements/1.1/">
  <defs
     id="defs2">
    <inkscape:path-effect
       effect="bspline"
       id="path-effect1309"
       is_visible="true"
       lpeversion="1"
       weight="33.333333"
       steps="2"
       helper_size="0"
       apply_no_weight="true"
       apply_with_weight="true"
       only_selected="false" />
    <inkscape:path-effect
       effect="bspline"
       id="path-effect869"
       is_visible="true"
       lpeversion="1"
       weight="33.333333"
       steps="2"
       helper_size="0"
       apply_no_weight="true"
       apply_with_weight="true"
       only_selected="false" />
    <inkscape:path-effect
       effect="bspline"
       id="path-effect864"
       is_visible="true"
       lpeversion="1"
       weight="33.333333"
       steps="2"
       helper_size="0"
       apply_no_weight="true"
       apply_with_weight="true"
       only_selected="false" />
    <inkscape:path-effect
       effect="bspline"
       id="path-effect860"
       is_visible="true"
       lpeversion="1"
       weight="33.333333"
       steps="2"
       helper_size="0"
       apply_no_weight="true"
       apply_with_weight="true"
       only_selected="false" />
    <filter
       style="color-interpolation-filters:sRGB"
       inkscape:label="Blur"
       id="filter925">
      <feGaussianBlur
         stdDeviation="2 2"
         result="blur"
         id="feGaussianBlur923" />
    </filter>
    <filter
       style="color-interpolation-filters:sRGB"
       inkscape:label="Blur"
       id="filter961">
      <feGaussianBlur
         stdDeviation="0.916254 1.82251"
         result="blur"
         id="feGaussianBlur959" />
    </filter>
    <filter
       inkscape:collect="always"
       style="color-interpolation-filters:sRGB"
       id="filter41079"
       x="-0.19323394"
       y="-0.19323394"
       width="1.3864679"
       height="1.3864679">
      <feGaussianBlur
         inkscape:collect="always"
         stdDeviation="1.3911935"
         id="feGaussianBlur41081" />
    </filter>
    <filter
       inkscape:collect="always"
       style="color-interpolation-filters:sRGB"
       id="filter41359"
       x="-0.099656165"
       y="-0.1095218"
       width="1.1992896"
       height="1.2190447">
      <feGaussianBlur
         inkscape:collect="always"
         stdDeviation="2.3979637"
         id="feGaussianBlur41361" />
    </filter>
  </defs>
  <sodipodi:namedview
     id="base"
     pagecolor="#ffffff"
     bordercolor="#666666"
     borderopacity="1.0"
     inkscape:pageopacity="0.0"
     inkscape:pageshadow="2"
     inkscape:zoom="1.3629885"
     inkscape:cx="612.99123"
     inkscape:cy="371.97672"
     inkscape:document-units="mm"
     inkscape:current-layer="layer1"
     inkscape:document-rotation="0"
     showgrid="false"
     fit-margin-top="0"
     fit-margin-left="0"
     fit-margin-right="0"
     fit-margin-bottom="0"
     inkscape:window-width="1920"
     inkscape:window-height="1017"
     inkscape:window-x="-8"
     inkscape:window-y="-8"
     inkscape:window-maximized="1"
     inkscape:showpageshadow="0"
     inkscape:pagecheckerboard="0"
     inkscape:deskcolor="#d1d1d1" />
  <metadata
     id="metadata5">
    <rdf:RDF>
      <cc:Work
         rdf:about="">
        <dc:format>image/svg+xml</dc:format>
        <dc:type
           rdf:resource="http://purl.org/dc/dcmitype/StillImage" />
        <dc:title />
      </cc:Work>
    </rdf:RDF>
  </metadata>
  <g
     inkscape:label="Layer 1"
     inkscape:groupmode="layer"
     id="layer1"
     transform="translate(-253.2974,47.879086)">
    <path
       fill="#000000"
       d="m 302.73309,-47.879086 -28.97636,0.06111 -20.45933,20.547279 0.0611,28.9763579 20.54728,20.4653011 28.97636,-0.05962 20.4653,-20.5547321 -0.0596,-28.9763579 z m -1.19244,2.930429 18.81079,18.736256 0.0596,26.57656788 -18.34871,18.42324212 -0.38755,0.387543 -26.57656,0.05962 -18.81377,-18.73625612 -0.0566,-26.57656888 18.73626,-18.813763 z m -1.11792,2.684486 -24.34073,0.05068 -17.16968,17.253157 0.0507,24.34073488 17.25316,17.17117512 24.34073,-0.04471 17.17118,-17.26060912 -0.0447,-24.34073588 z m -34.10386,22.610206 c 0.79,0 1.6098,0.07453 2.44451,0.193773 0.84962,0.119241 1.71414,0.29811 2.60847,0.536599 v 3.055633 c -0.78999,-0.357734 -1.56508,-0.626033 -2.32526,-0.804898 -0.76019,-0.178865 -1.47565,-0.2683 -2.1464,-0.2683 -0.89433,0 -1.55017,0.119245 -1.97498,0.372639 -0.42779,0.238489 -0.64094,0.626033 -0.64094,1.147727 0,0.387544 0.14309,0.685654 0.42779,0.909238 0.29066,0.208675 0.81682,0.402449 1.577,0.551503 l 1.57999,0.313015 c 1.6098,0.327924 2.75752,0.819807 3.44318,1.47565 0.67075,0.670749 1.01357,1.609797 1.01357,2.8171439 0,1.594895 -0.47697,2.787337 -1.41602,3.57733 -0.95396,0.775088 -2.39979,1.162632 -4.35242,1.162632 -0.90923,0 -1.83338,-0.08944 -2.75901,-0.2683 -0.92415,-0.163963 -1.84978,-0.432263 -2.77392,-0.775088 v -3.14507 c 0.92414,0.491883 1.81698,0.864522 2.67703,1.117916 0.8675,0.23849 1.70818,0.357734 2.49817,0.357734 0.81981,0 1.44584,-0.13415 1.8781,-0.402449 0.43226,-0.268299 0.65584,-0.655843 0.65584,-1.162632 0,-0.462073 -0.14905,-0.804898 -0.44717,-1.058292 -0.29811,-0.2384889 -0.87942,-0.4620729 -1.75885,-0.6558439 l -1.44583,-0.313018 c -1.45031,-0.313015 -2.51159,-0.804898 -3.18532,-1.490552 -0.66628,-0.670748 -0.99867,-1.594891 -0.99867,-2.742618 0,-1.445836 0.46505,-2.548847 1.39665,-3.323935 0.93159,-0.789993 2.2716,-1.177537 4.02449,-1.177537 z m 27.97769,0 c 2.32526,0 4.14374,0.670748 5.47033,2.012249 1.3266,1.326591 1.98244,3.159972 1.98244,5.515046 0,2.3401689 -0.65584,4.1735489 -1.98244,5.5150459 -1.32659,1.326595 -3.14507,1.997344 -5.47033,1.997344 -2.32526,0 -4.14374,-0.670749 -5.47033,-1.997344 -1.32659,-1.341497 -1.98244,-3.174877 -1.98244,-5.5150459 0,-2.355074 0.65585,-4.188455 1.98244,-5.515046 1.32659,-1.341501 3.14507,-2.012249 5.47033,-2.012249 z m -21.15095,0.268299 h 13.35536 v 2.817147 h -4.79959 V -4.8974851 H 277.9601 V -16.568519 h -4.81449 z m 30.67559,0 h 6.2007 c 1.83338,0 3.24941,0.417354 4.23317,1.237161 0.99867,0.804898 1.49055,1.96753 1.49055,3.487892 0,1.520366 -0.49188,2.697903 -1.49055,3.51771 -0.98376,0.804898 -2.39979,1.2222519 -4.23317,1.2222519 h -2.47432 v 5.023166 h -3.72638 z m -9.52464,2.444508 c -1.14773,0 -2.02715,0.417355 -2.65318,1.266972 -0.62604,0.834708 -0.93905,2.02715 -0.93905,3.547516 0,1.520365 0.31301,2.6979019 0.93905,3.5475159 0.62603,0.834712 1.50545,1.252066 2.65318,1.252066 1.14773,0 2.02715,-0.417354 2.65319,-1.252066 0.62603,-0.849614 0.93905,-2.0271509 0.93905,-3.5475159 0,-1.520366 -0.31302,-2.712808 -0.93905,-3.547516 -0.62604,-0.849617 -1.50546,-1.266972 -2.65319,-1.266972 z m 13.25102,0.2683 v 4.039399 h 2.07187 c 0.73037,0 1.28188,-0.178865 1.68433,-0.521693 0.38754,-0.357734 0.58131,-0.864523 0.58131,-1.505461 0,-0.640938 -0.19377,-1.147723 -0.58131,-1.490552 -0.40245,-0.357733 -0.95396,-0.521693 -1.68433,-0.521693 z"
       id="path833"
       style="fill:#f57337;fill-opacity:1;stroke-width:0.149055;stroke:none;stroke-opacity:1" />
    <g
       id="g1323"
       transform="matrix(1.4929819,0,0,1.4929819,-169.989,-41.171673)">
      <path
         style="opacity:0.996;fill:#787cb3;fill-opacity:0.352941;stroke:#1f1c30;stroke-width:3;stroke-miterlimit:4;stroke-dasharray:none;stroke-opacity:1"
         d="M 351.4954,20.715235 451.42329,9.4596217 V 93.739454 l -99.65336,-9.608449 z"
         id="path897" />
      <path
         style="opacity:0.996;fill:#1f1c30;fill-opacity:1;stroke:none;stroke-width:2;stroke-miterlimit:4;stroke-dasharray:none;stroke-opacity:1"
         d="m 357.55619,96.013426 63.41576,7.549494 15.099,-5.078751 -60.25872,-7.274968 -19.9032,4.666962 v 0 z"
         id="path899" />
      <path
         style="opacity:0.996;fill:#1f1c30;fill-opacity:1;stroke:none;stroke-width:2;stroke-miterlimit:4;stroke-dasharray:none;stroke-opacity:1"
         d="m 391.65362,94.831443 -0.19413,-5.629481 8.15303,0.679421 0.0971,5.241239 z"
         id="path901" />
      <circle
         style="opacity:0.5530303;fill:#f57337;fill-opacity:1;stroke:#f57337;stroke-width:3;stroke-miterlimit:4;stroke-dasharray:none;stroke-opacity:1;filter:url(#filter41079)"
         id="path913"
         cx="430.23779"
         cy="29.865976"
         r="12.520741"
         transform="matrix(2.0917311,0,0,2.0917311,-501.49397,-9.2788909)" />
      <path
         sodipodi:type="spiral"
         style="opacity:1;mix-blend-mode:normal;fill:none;fill-opacity:1;stroke:#fdb735;stroke-width:2.727;stroke-miterlimit:4;stroke-dasharray:none;stroke-opacity:1;filter:url(#filter41359)"
         id="path911"
         sodipodi:cx="-430.52789"
         sodipodi:cy="31.86528"
         sodipodi:expansion="1"
         sodipodi:revolution="3"
         sodipodi:radius="38.935501"
         sodipodi:argument="-18.843145"
         sodipodi:t0="0"
         d="m -430.52789,31.86528 c 1.95212,0.01252 0.94624,2.637598 -0.0208,3.244559 -2.62062,1.644824 -5.68427,-0.767221 -6.46832,-3.286158 -1.40249,-4.505788 2.25798,-8.809684 6.55152,-9.692076 6.30094,-1.294946 11.99096,3.75567 12.91583,9.816874 1.23271,8.078632 -5.25408,15.193838 -13.08223,16.139593 -9.85093,1.190137 -18.40743,-6.752412 -19.36335,-16.34759 -1.15775,-11.621047 8.25061,-21.627155 19.61294,-22.5871108 13.39013,-1.131275 24.85071,9.7487138 25.81087,22.8783068 1.10855,15.158634 -11.24675,28.07682 -26.14366,29.034628 -16.92682,1.088322 -31.30472,-12.744753 -32.25839,-29.409023 -1.06986,-18.694792 14.24273,-34.5339327 32.67438,-35.4821455 20.46263,-1.0526959 37.76412,15.7406815 38.70591,35.9397385"
         transform="matrix(-0.9048251,0,0,0.9048251,8.879277,26.051331)" />
      <g
         id="g881"
         transform="matrix(-1.5058735,0,0,1.5058735,791.94112,25.181629)">
        <path
           id="path858"
           style="opacity:0.996;fill:#fdb835;fill-opacity:1;stroke:#1f1c30;stroke-width:1;stroke-miterlimit:4;stroke-dasharray:none;stroke-opacity:1"
           d="m 280.91823,5.9155994 c -1.12869,-0.012854 -1.93471,0.1297602 -2.9156,0.2899048 -1.12099,0.1830226 -2.47034,0.3889907 -3.946,0.8350911 -1.47566,0.4461005 -3.07707,1.132264 -4.55268,1.8872234 -1.47564,0.7549592 -2.82551,1.5783693 -4.1982,2.8137813 -1.04108,0.936954 -2.09373,2.110198 -2.85668,3.206523 -0.77269,0.243084 -1.52503,0.513002 -2.1704,0.923974 -0.80661,0.513632 -1.44738,1.245498 -1.72186,2.137854 -0.2745,0.892357 -0.1828,1.94471 0.44649,2.779676 0.62926,0.834966 1.79567,1.453069 2.9166,1.567346 1.12091,0.114276 2.19602,-0.275053 3.24837,-0.675411 1.05238,-0.400358 2.08219,-0.811764 3.15743,-1.246436 1.07525,-0.434671 2.19594,-0.892425 3.22102,-0.894519 1.02504,-0.0021 1.97215,0.45996 2.70422,0.871782 0.73205,0.411821 1.25839,0.777982 2.09341,1.086755 0.83503,0.308772 1.97856,0.560186 3.17963,0.811837 1.20108,0.25165 2.45936,0.503324 3.54605,0.835091 1.0867,0.331767 2.00189,0.74336 2.45928,1.452624 0.45739,0.709267 0.45728,1.716097 0.46871,2.574004 0.0114,0.857906 0.0344,1.566981 0.21757,1.97869 0.18317,0.411708 0.52654,0.525919 0.96117,0.560173 0.43464,0.03425 0.96052,-0.01132 1.25781,-0.205673 0.29726,-0.194347 0.3657,-0.537187 0.38859,-1.00614 0.0229,-0.468952 8e-5,-1.064213 -0.0113,-1.876371 -0.0114,-0.812157 -0.0113,-1.841298 -0.11422,-2.596224 -0.10287,-0.754926 -0.3085,-1.235633 -0.74311,-1.727543 -0.43458,-0.491911 -1.09794,-0.995126 -1.75543,-1.544609 -0.65752,-0.549483 -1.60769,-1.417931 -2.40866,-2.150256 0.801,0.686559 1.60195,1.372892 2.19678,1.750281 0.59484,0.377388 0.98348,0.446229 1.64693,0.572058 0.66344,0.125829 1.62359,0.312824 2.24171,0.459403 0.61814,0.14658 0.93853,0.261177 1.12138,0.890385 0.18288,0.629209 0.22918,1.795837 0.26305,2.53938 0.0338,0.743543 0.0567,1.109681 0.1483,1.498617 0.0916,0.388935 0.25201,0.80084 0.60669,1.018026 0.35467,0.217185 0.90365,0.239961 1.29243,0.125573 0.38876,-0.114388 0.61746,-0.366165 0.70898,-0.84646 0.0915,-0.480294 0.0457,-1.189352 0.0915,-1.898592 0.0457,-0.709239 0.18322,-1.418513 0.1261,-2.104781 -0.0571,-0.686268 -0.30919,-1.349451 -0.80098,-1.990059 -0.49178,-0.640609 -1.22383,-1.258492 -1.96733,-1.819011 -0.74351,-0.560518 -1.4981,-1.06359 -1.80713,-1.463993 -0.30904,-0.400403 -0.17164,-0.698284 0.0114,-1.098641 0.18302,-0.400357 0.41159,-0.9033 0.53745,-1.761133 0.12584,-0.857832 0.14865,-2.070192 -0.0915,-3.168282 -0.24014,-1.09809 -0.74354,-2.0819586 -1.36118,-2.8484047 -0.61762,-0.766446 -1.34943,-1.3155874 -2.67631,-1.7389117 -1.32689,-0.4233246 -3.2485,-0.7204239 -4.65553,-0.7890992 -0.17587,-0.00858 -0.34364,-0.013667 -0.50488,-0.015503 z" />
        <path
           style="opacity:0.996;fill:none;fill-opacity:1;stroke:#1f1c30;stroke-width:1;stroke-miterlimit:4;stroke-dasharray:none;stroke-opacity:1"
           d="m 283.73801,19.189847 c 0.54357,-0.987988 1.08721,-1.976082 1.30447,-2.947407 0.21726,-0.971325 0.10807,-1.926046 -0.001,-2.881077"
           id="path867"
           inkscape:path-effect="#path-effect869"
           inkscape:original-d="m 283.73801,19.189847 c 0.54389,-0.987815 1.08752,-1.97591 1.63089,-2.964265 -0.10893,-0.954494 -0.21812,-1.909215 -0.32758,-2.864219"
           sodipodi:nodetypes="ccc" />
        <path
           sodipodi:type="star"
           style="opacity:0.996;fill:#777bb3;fill-opacity:1;stroke:#1f1c30;stroke-width:1.5;stroke-miterlimit:4;stroke-dasharray:none;stroke-opacity:1"
           id="path871"
           sodipodi:sides="16"
           sodipodi:cx="285.30951"
           sodipodi:cy="6.4738417"
           sodipodi:r1="4.4266171"
           sodipodi:r2="2.2133086"
           sodipodi:arg1="0.51914611"
           sodipodi:arg2="0.71549566"
           inkscape:flatsided="false"
           inkscape:rounded="0"
           inkscape:randomized="0"
           d="m 289.15289,8.6700588 -2.17285,-0.7443053 1.03983,2.0479261 -1.72261,-1.5191603 0.17697,2.2899627 -1.01013,-2.0627371 -0.71283,2.1833731 -0.14387,-2.2922807 -1.49411,1.7443847 0.74431,-2.1728454 -2.04793,1.0398293 1.51916,-1.7226138 -2.28996,0.1769696 2.06274,-1.0101302 -2.18338,-0.712832 2.29228,-0.1438634 -1.74438,-1.4941115 2.17284,0.7443052 -1.03982,-2.047926 1.72261,1.5191602 -0.17697,-2.2899624 1.01013,2.0627368 0.71283,-2.1833727 0.14386,2.2922804 1.49412,-1.7443844 -0.74431,2.1728451 2.04793,-1.0398293 -1.51916,1.7226138 2.28996,-0.1769697 -2.06274,1.0101302 2.18338,0.7128321 -2.29229,0.1438634 z"
           inkscape:transform-center-x="3.0210955e-06" />
        <path
           sodipodi:type="star"
           style="opacity:0.996;fill:#fdb835;fill-opacity:1;stroke:#fdb835;stroke-width:1.09443;stroke-miterlimit:4;stroke-dasharray:none;stroke-opacity:1"
           id="path875"
           sodipodi:sides="16"
           sodipodi:cx="285.24814"
           sodipodi:cy="6.5022149"
           sodipodi:r1="3.5135231"
           sodipodi:r2="1.7567618"
           sodipodi:arg1="0.53859681"
           sodipodi:arg2="0.73494635"
           inkscape:flatsided="false"
           inkscape:rounded="0"
           inkscape:randomized="0"
           d="m 288.26425,8.3044132 -1.71283,-0.6242063 0.79357,1.6412378 -1.34357,-1.2321623 0.10508,1.8199917 -0.76977,-1.6525327 -0.59939,1.7216682 -0.0788,-1.8213201 -1.21262,1.3612365 0.62421,-1.712828 -1.64124,0.7935688 1.23216,-1.3435733 -1.81999,0.1050874 1.65253,-0.7697718 -1.72167,-0.5993926 1.82132,-0.078779 -1.36123,-1.2126205 1.71283,0.6242063 -0.79357,-1.6412378 1.34357,1.2321623 -0.10509,-1.8199917 0.76977,1.6525328 0.5994,-1.7216683 0.0788,1.8213201 1.21262,-1.3612365 -0.62421,1.712828 1.64124,-0.7935687 -1.23216,1.3435732 1.81999,-0.1050873 -1.65254,0.7697717 1.72167,0.5993926 -1.82132,0.078779 z"
           inkscape:transform-center-x="1.9597594e-05" />
      </g>
    </g>
    <path
       style="opacity:0.996;fill:#1f1c30;fill-opacity:1;stroke:#1f1c30;stroke-width:4;stroke-miterlimit:4;stroke-dasharray:none;stroke-opacity:1"
       d="m 287.47513,21.986936 c 0,0 0,101.736064 0,101.736064"
       id="path1307"
       inkscape:path-effect="#path-effect1309"
       inkscape:original-d="M 287.47513,21.986936 V 123.723" />
    <rect
       style="opacity:0.996;fill:#1f1c30;fill-opacity:1;stroke:#1f1c30;stroke-width:2.72701;stroke-miterlimit:4;stroke-dasharray:none;stroke-opacity:1"
       id="rect1311"
       width="42.27718"
       height="2.7452712"
       x="265.9462"
       y="124.16054"
       ry="1.3726356" />
  </g>
</svg>
