<?xml version="1.0" encoding="UTF-8" standalone="no"?>
<!-- Created with Inkscape (http://www.inkscape.org/) -->

<svg
   width="243.92413mm"
   height="165.94594mm"
   viewBox="0 0 864.29811 587.99741"
   id="svg32582"
   version="1.1"
   inkscape:version="1.2.2 (732a01da63, 2022-12-09)"
   sodipodi:docname="syringe.svg"
   xmlns:inkscape="http://www.inkscape.org/namespaces/inkscape"
   xmlns:sodipodi="http://sodipodi.sourceforge.net/DTD/sodipodi-0.dtd"
   xmlns:xlink="http://www.w3.org/1999/xlink"
   xmlns="http://www.w3.org/2000/svg"
   xmlns:svg="http://www.w3.org/2000/svg"
   xmlns:rdf="http://www.w3.org/1999/02/22-rdf-syntax-ns#"
   xmlns:cc="http://creativecommons.org/ns#"
   xmlns:dc="http://purl.org/dc/elements/1.1/">
  <defs
     id="defs32584">
    <inkscape:path-effect
       effect="bspline"
       id="path-effect19988"
       is_visible="true"
       lpeversion="1"
       weight="33.333333"
       steps="2"
       helper_size="0"
       apply_no_weight="true"
       apply_with_weight="true"
       only_selected="false" />
    <inkscape:path-effect
       effect="bspline"
       id="path-effect18290"
       is_visible="true"
       lpeversion="1"
       weight="33.333333"
       steps="2"
       helper_size="0"
       apply_no_weight="true"
       apply_with_weight="true"
       only_selected="false" />
    <inkscape:path-effect
       effect="bspline"
       id="path-effect15996"
       is_visible="true"
       lpeversion="1"
       weight="33.333333"
       steps="2"
       helper_size="0"
       apply_no_weight="true"
       apply_with_weight="true"
       only_selected="false" />
  </defs>
  <sodipodi:namedview
     id="base"
     pagecolor="#ffffff"
     bordercolor="#666666"
     borderopacity="1.0"
     inkscape:pageopacity="0.0"
     inkscape:pageshadow="2"
     inkscape:zoom="0.49497475"
     inkscape:cx="609.12199"
     inkscape:cy="371.73614"
     inkscape:document-units="px"
     inkscape:current-layer="layer1"
     showgrid="false"
     fit-margin-top="0"
     fit-margin-left="0"
     fit-margin-right="0"
     fit-margin-bottom="0"
     inkscape:window-width="1920"
     inkscape:window-height="1017"
     inkscape:window-x="-8"
     inkscape:window-y="-8"
     inkscape:window-maximized="1"
     showguides="true"
     inkscape:guide-bbox="true"
     inkscape:showpageshadow="0"
     inkscape:pagecheckerboard="0"
     inkscape:deskcolor="#d1d1d1" />
  <metadata
     id="metadata32587">
    <rdf:RDF>
      <cc:Work
         rdf:about="">
        <dc:format>image/svg+xml</dc:format>
        <dc:type
           rdf:resource="http://purl.org/dc/dcmitype/StillImage" />
        <dc:title />
        <dc:creator>
          <cc:Agent>
            <dc:title>j4p4n</dc:title>
          </cc:Agent>
        </dc:creator>
        <cc:license
           rdf:resource="http://creativecommons.org/publicdomain/zero/1.0/" />
      </cc:Work>
      <cc:License
         rdf:about="http://creativecommons.org/publicdomain/zero/1.0/">
        <cc:permits
           rdf:resource="http://creativecommons.org/ns#Reproduction" />
        <cc:permits
           rdf:resource="http://creativecommons.org/ns#Distribution" />
        <cc:permits
           rdf:resource="http://creativecommons.org/ns#DerivativeWorks" />
      </cc:License>
    </rdf:RDF>
  </metadata>
  <g
     inkscape:label="Layer 1"
     inkscape:groupmode="layer"
     id="layer1"
     transform="translate(309.92206,137.47821)">
    <path
       style="fill:#fdb835;fill-opacity:1;stroke:none;stroke-width:3.54375"
       d="m 545.21239,156.32768 c -7.36554,-1.17179 -22.09769,-3.51554 -39.28546,-4.29689 -17.18777,-0.78134 -36.83024,-1.1e-4 -52.23218,1.06014 -15.40194,1.06025 -26.56243,2.39951 -34.04038,4.07359 -7.47795,1.67409 -11.27252,3.68298 -13.61649,9.26393 -2.34398,5.58096 -3.23681,14.73256 -2.06479,30.80433 1.17202,16.07177 4.40856,39.06238 8.31535,51.61794 3.90679,12.55557 8.48259,14.67606 11.71858,14.34105 3.23599,-0.33501 5.13328,-3.12514 8.31463,-4.68777 3.18134,-1.56264 7.64555,-1.89746 16.9091,-2.28807 9.26355,-0.39061 23.32577,-0.83703 39.89963,-1.11604 16.57386,-0.279 35.65831,-0.39061 45.98196,-0.50225 10.32364,-0.11163 11.8861,-0.22324 13.61609,-0.22318 1.72999,6e-5 3.62728,0.11167 4.58237,0.0981 0.95509,-0.0136 0.96902,-0.15308 0.98998,-16.26663 0.021,-16.11355 0.0489,-48.19995 0.0557,-64.22978 0.007,-16.02983 -0.007,-16.00199 -0.0971,-16.0298 -0.09,-0.0278 -0.25743,-0.1115 -0.38998,-0.16054 -0.13256,-0.049 -0.23024,-0.063 -0.43948,-0.10482 -0.20924,-0.0418 -0.53011,-0.11157 -0.69109,-0.14656 -0.16099,-0.035 -0.16098,-0.035 -7.52652,-1.20676 z"
       id="path15994"
       inkscape:path-effect="#path-effect15996"
       inkscape:original-d="m 552.57793,157.49947 c -14.7312,-2.34281 -29.46335,-4.68656 -44.19642,-7.03125 -19.64231,0.7822 -39.28478,1.56344 -58.92858,2.34375 -11.16,1.34025 -22.32049,2.6795 -33.48214,4.01785 -3.79378,2.00991 -7.58835,4.0188 -11.38393,6.02679 -0.89193,9.1529 -1.78477,18.3045 -2.67857,27.45536 3.23761,22.99247 6.47415,45.98308 9.70982,68.97321 4.57693,2.12152 9.15273,4.24201 13.72768,6.36161 1.8983,-2.7893 3.79559,-5.57942 5.69197,-8.37054 4.46531,-0.33389 8.92951,-0.66871 13.39285,-1.00446 14.06372,-0.4455 28.12594,-0.89192 42.1875,-1.33929 19.08614,-0.11067 38.17059,-0.22227 57.25447,-0.33482 1.56347,-0.11067 3.12593,-0.22228 4.6875,-0.33483 1.89829,0.11255 3.79558,0.22416 5.69196,0.33483 0.0149,-0.13857 0.0289,-0.27808 0.0418,-0.41853 0.0289,-32.08676 0.0567,-64.17316 0.0837,-96.26115 -0.013,0.0289 -0.027,0.0567 -0.0418,0.0837 -0.16648,-0.0828 -0.33389,-0.16647 -0.50224,-0.2511 -0.0967,-0.013 -0.19437,-0.027 -0.29296,-0.0419 -0.31994,-0.0688 -0.6408,-0.13857 -0.96262,-0.20926 z" />
    <path
       id="path33141"
       style="fill:#1f1c30;stroke-width:1.0666666;fill-opacity:1"
       d="M 426.70117 83.636714 C 415.51492 83.636714 398.13664 96.636313 397.94336 105.14843 C 397.90116 107.00622 397.20844 109.18414 396.4043 109.98828 C 390.15448 116.23808 386.02278 155.84699 391.0918 160.91601 C 392.47134 162.29555 393.59961 165.57565 393.59961 168.20507 C 393.59961 170.83449 394.47387 173.52675 395.54297 174.18749 C 396.61207 174.84825 397.33354 179.4258 397.14453 184.36132 L 396.80078 193.33593 L 381.86719 199.60546 C 373.65386 203.05389 361.86787 208.13281 355.67578 210.89062 C 342.14652 216.91645 336.70275 217.21232 335.05274 212.01366 C 334.3736 209.87383 331.88595 206.04937 329.52539 203.51562 C 326.49893 200.26716 325.63176 197.32715 326.58203 193.54101 C 328.13977 187.33448 329.6846 187.04479 338.87696 191.23827 C 360.86123 201.26736 375.69096 204.46565 370.34766 198.02734 C 369.00434 196.40876 364.98879 194.50165 361.42578 193.78905 C 350.16512 191.53692 327.4668 179.12989 327.4668 175.22656 C 327.4668 173.25159 325.06771 166.21339 322.13672 159.58593 C 315.57519 144.74913 310.19084 142.00994 293.9375 145.24804 C 275.84638 148.85228 255.15176 160.11804 239.96875 174.62695 C 231.03683 183.1613 230.71432 183.92415 231.02149 195.5996 C 231.37921 209.19549 237.64132 224.04728 244.97657 228.69335 C 247.51918 230.3038 252.83442 232.16579 256.78711 232.83007 C 263.4906 233.95666 262.27181 234.74133 238.6543 244.51171 C 224.72827 250.27279 207.5732 257.53966 200.53321 260.66015 C 193.49322 263.78063 177.50448 270.50563 165.00196 275.60351 C 149.29318 282.00872 142.60744 285.75019 143.36134 287.71483 C 144.05869 289.53214 140.71349 292.30324 134.0918 295.39647 C 118.58829 302.63874 117.80902 303.28838 120.5879 306.63671 C 122.47978 308.9163 121.26823 310.38486 114.82423 313.62499 C 110.33721 315.88113 103.06752 318.89149 98.667977 320.31444 C 92.014032 322.46655 90.85671 323.67976 91.791024 327.53515 C 92.775407 331.59709 91.404933 332.6468 80.697274 336.02538 C 73.977494 338.14566 59.473814 344.14631 48.466807 349.35936 C 37.459778 354.57232 27.812078 358.84124 27.027354 358.84764 C 26.242651 358.85364 21.759746 361.30121 17.066417 364.28514 C 10.739575 368.30769 9.9129144 369.36404 13.867198 368.37108 C 19.768366 366.88923 23.026399 365.55294 59.732431 349.57421 C 89.155292 336.76598 93.392581 335.27114 97.005868 336.41796 C 98.940714 337.03207 106.59868 335.06575 114.02345 332.04882 C 125.40416 327.42441 128.44378 326.94542 133.39454 328.99608 C 138.33926 331.04425 140.73589 330.67191 148.56641 326.64061 C 153.68126 324.0075 162.18681 321.71962 167.4668 321.55663 C 172.7468 321.39364 181.38603 319.24273 186.66602 316.77538 C 191.94602 314.30804 202.9859 309.74668 211.19922 306.64061 C 219.41255 303.53465 230.43056 299.20573 235.6836 297.02147 C 240.93663 294.83725 245.92255 293.47547 246.76172 293.99413 C 247.60089 294.51277 248.88384 298.9939 249.61329 303.95311 C 250.34274 308.91243 251.28513 314.8916 251.70704 317.23827 C 252.12893 319.58494 252.54691 322.66986 252.63672 324.09569 C 252.72652 325.52155 255.80824 330.11387 259.48438 334.30077 C 263.16044 338.48768 265.7991 342.18642 265.34961 342.51952 C 264.90014 342.85262 255.21552 347.69065 243.82813 353.26952 C 223.22282 363.36449 223.10318 363.46867 218.76172 375.07225 C 216.19802 381.92436 214.4004 391.8639 214.4004 399.17967 C 214.4004 411.19079 214.73634 411.93581 223.95313 420.43163 C 229.20692 425.27439 234.96574 429.23827 236.75196 429.23827 C 241.90013 429.23827 240.55042 432.25939 233.55665 436.39061 C 229.78317 438.61967 224.26007 445.5648 220.22461 453.15233 C 216.43492 460.27776 212.14663 468.1312 210.69727 470.60545 C 209.2479 473.07971 208.04833 481.07388 208.03126 488.37108 C 207.99396 504.09881 213.64458 516.8307 222.44922 520.85936 C 250.43254 533.6632 278.57961 537.89099 308.26758 533.74998 C 346.51784 528.41467 346.42447 528.41063 369.21485 536.5117 C 380.86629 540.65331 396.92854 545.20557 404.9082 546.62694 C 412.88785 548.04832 426.10278 552.50504 434.27539 556.53123 C 452.24969 565.38615 463.10594 569.44031 480 573.61131 C 499.72834 578.48205 531.62961 582.69463 549.35547 582.76951 C 567.43218 582.84581 572.1602 585.67197 582.73047 602.71873 C 585.77197 607.6238 590.08716 613.64773 592.32031 616.1035 C 594.55346 618.55927 602.69629 632.95929 610.41406 648.1035 C 628.66518 683.91679 638.85658 702.47499 642.82031 707.11717 C 643.98764 708.4843 644.79815 709.87947 645.05664 710.83396 L 663.01171 710.83396 L 653.6582 696.32615 C 647.8354 687.29376 637.27682 667.90492 630.19531 653.23826 C 614.28895 620.29426 611.90343 615.87452 604.3789 605.42967 C 598.23341 596.89912 597.86566 592.90163 603.66992 597.71873 C 608.17178 601.45494 622.49986 600.87226 634.78906 596.45311 C 647.59269 591.84909 646.74444 589.33271 633.14257 591.57029 C 619.42135 593.82749 598.91196 593.92293 597.56054 591.73631 C 596.95983 590.76445 601.5947 590.39437 607.86132 590.91404 C 614.30085 591.44806 622.83763 590.63703 627.49414 589.04881 C 632.02561 587.50323 636.86011 586.45952 638.23828 586.7285 C 639.61647 586.99747 641.34556 586.24506 642.08007 585.05662 C 643.64457 582.5252 636.03531 583.26898 621.46289 587.07029 C 609.11901 590.29028 602.58252 588.61639 614.40039 585.2617 C 624.78752 582.31315 631.17622 578.65427 626.02734 578.6035 C 624.20868 578.5855 621.7057 579.58531 620.46484 580.82615 C 619.22399 582.06701 612.55052 583.48922 605.63671 583.98631 C 596.28613 584.65856 594.70618 584.42436 599.46679 583.0703 C 609.26253 580.28406 625.92225 572.61312 632.77929 567.73045 C 638.09058 563.94851 638.93359 563.82298 638.93359 566.81834 C 638.93359 568.72748 637.97411 569.69586 636.80078 568.97069 C 635.62745 568.24553 634.66601 568.66951 634.66601 569.91209 C 634.66601 574.15371 639.02003 572.18223 641.45507 566.83787 C 642.7916 563.90455 644.58576 561.50389 645.44335 561.50389 C 646.30093 561.50389 648.67278 557.42415 650.71289 552.43748 C 655.70851 540.22651 655.32675 510.25064 650.07421 502.23436 C 647.03345 497.59354 646.29618 497.28103 645.69921 500.38084 C 645.30426 502.43172 646.04994 505.39566 647.35546 506.96873 C 648.66099 508.54179 649.87439 516.98084 650.05273 525.72069 C 650.31885 538.76677 649.53058 542.97876 645.65234 549.25389 C 640.41296 557.73138 629.88332 564.79005 617.96679 567.81053 C 613.65894 568.90243 606.29293 570.78606 601.59961 571.99803 C 591.93217 574.4945 569.98815 575.04871 567.79101 572.85155 C 566.99209 572.05266 570.8473 568.93239 576.35742 565.91795 C 589.25365 558.86279 591.5052 553.9238 579.89843 558.15037 C 575.4073 559.78583 566.93306 563.60557 561.0664 566.63865 C 555.19974 569.67174 548.47948 572.13656 546.13281 572.11522 C 542.22002 572.07992 542.30623 571.7374 547.16797 568.00194 C 553.87629 562.84766 551.51269 559.97722 544.39843 564.63865 C 541.44405 566.57444 538.76132 567.19244 538.3457 566.03319 C 537.88847 564.75791 533.05521 565.18598 525.86719 567.1367 C 518.49089 569.13849 509.32579 569.91485 501.1875 569.2285 C 484.86262 567.85168 451.21625 556.92183 424.5332 544.32811 C 419.83988 542.11308 410.42093 539.71601 403.60156 538.99998 C 395.85501 538.18658 390.76774 536.56717 390.04492 534.68358 C 389.289 532.71366 387.14908 532.10451 383.86914 532.92772 C 380.1234 533.86784 377.43903 532.66687 373.29492 528.1953 C 369.04956 523.61448 367.33154 522.86849 365.9961 525.02928 C 364.55941 527.35388 361.78933 527.23903 350.40039 524.3828 C 336.26778 520.83846 333.64405 520.97525 299.19922 527.04295 C 288.76486 528.88105 286.70597 527.71931 292.24414 523.12303 C 293.99121 521.67306 294.89301 519.63608 294.25 518.59569 C 293.60701 517.55531 294.09727 516.70506 295.33985 516.70506 C 296.58244 516.70506 297.59961 515.20813 297.59961 513.37889 C 297.59961 511.54972 296.66074 510.63285 295.51368 511.34178 C 294.23803 512.13017 293.49885 507.73198 293.60743 500.01561 C 293.7852 487.3861 290.50508 477.16374 286.97461 479.34569 C 285.9412 479.98437 284.39981 479.38348 283.55079 478.00975 C 282.5867 476.44981 282.93249 476.08252 284.47071 477.03319 C 285.82534 477.8704 286.9336 477.5951 286.9336 476.42186 C 286.9336 473.54068 283.12915 471.36631 280.70704 472.86327 C 279.59549 473.55025 280.1301 476.84765 281.94141 480.4785 C 283.69836 484.00039 286.00838 486.34157 287.07618 485.68163 C 288.14397 485.02171 288.38589 486.12915 287.61328 488.14256 C 286.6602 490.62623 287.01172 491.30825 288.70508 490.2617 C 291.92253 488.27323 292.09745 502.82432 288.96485 511.81053 C 287.28982 516.61554 284.5626 518.93806 278.07227 521.08006 C 273.30998 522.65177 268.94416 525.15896 268.3711 526.65233 C 266.85529 530.60251 249.93101 527.94647 236.32032 521.62303 C 221.8091 514.88121 210.47811 499.6367 219.97852 499.6367 C 223.05011 499.6367 223.08714 499.11715 220.31641 494.83788 C 218.60707 492.19788 216.50479 487.18344 215.64454 483.6953 C 214.08934 477.38934 214.10442 477.37612 218.50586 481.35936 C 223.80839 486.15798 224.18325 484.27831 219.50196 476.3535 C 216.23839 470.82873 216.35572 469.97566 221.9004 458.95702 C 228.80842 445.2291 238.85415 435.84492 246.76954 435.7246 C 255.21751 435.59615 264.78361 446.15605 266.41602 457.4121 C 268.49107 471.72041 259.38564 504.5074 250.90821 513.25389 C 243.27447 521.12991 242.71815 523.1035 248.13086 523.1035 C 253.67992 523.1035 260.54925 515.97813 266.70118 503.83788 C 271.20603 494.948 271.83239 491.49408 270.69727 481.83592 L 269.35157 470.38084 L 282.50391 468.89256 C 295.90251 467.37671 317.79761 459.3576 313.20508 457.64842 C 311.81461 457.13093 304.03089 458.68643 295.90821 461.10545 C 274.8606 467.37372 272.63364 467.06454 269.97852 457.50389 C 268.75658 453.1039 267.7525 448.4226 267.7461 447.0996 C 267.7391 445.77661 266.29321 443.49776 264.53321 442.0371 C 260.36788 438.5802 260.45204 435.6367 264.7168 435.6367 C 266.57807 435.6367 274.97938 437.54517 283.38477 439.87694 C 291.79013 442.2087 302.74577 445.1259 307.73243 446.35936 C 313.19235 447.70979 316.80078 449.83112 316.80078 451.69139 C 316.80078 453.39042 319.9191 456.18307 323.73242 457.89647 C 334.23639 462.61613 338.23042 466.53849 341.63086 475.48436 L 344.72852 483.6367 L 343.53906 476.31053 C 342.13478 467.66343 338.56586 463.29265 328.48047 457.86131 C 324.40238 455.66512 321.06641 452.25637 321.06641 450.2871 C 321.06641 448.31782 325.2683 443.92342 330.4043 440.52147 C 337.73092 435.66854 344.17519 433.72781 360.31641 431.51171 C 371.63149 429.95819 381.4056 427.8499 382.03711 426.82811 C 382.6686 425.80642 385.04931 424.97069 387.32813 424.97069 C 390.34703 424.97069 393.32485 421.06207 398.29883 410.5703 C 403.90863 398.73737 405.05942 393.85015 404.75781 383.14843 L 404.39258 370.12499 L 422.48438 368.73241 C 439.84614 367.39786 455.7058 364.49034 465.32812 360.87694 C 467.81822 359.94188 471.98276 354.78165 474.58398 349.40819 C 477.18524 344.03474 479.98119 339.63671 480.79687 339.63671 C 481.61245 339.63671 483.88335 342.27723 485.8418 345.50389 C 497.25978 364.31567 534.15127 400.33954 550.77539 408.91014 C 555.26261 411.22354 562.60372 415.36117 567.08984 418.1035 C 571.57595 420.84583 576.37529 422.69182 577.75586 422.20702 C 579.13639 421.72222 575.53931 419.08072 569.76172 416.33788 C 563.9841 413.59503 560.28362 411.01025 561.53906 410.59178 C 562.79451 410.1733 567.04301 411.79401 570.97851 414.19335 C 574.91401 416.59266 579.57398 418.5323 581.33398 418.50585 C 583.09398 418.47935 577.58235 414.76809 569.08593 410.2578 C 560.58953 405.74753 552.16577 400.83645 550.36718 399.34374 C 548.56857 397.85107 546.48042 397.24611 545.72656 397.99999 C 544.97269 398.75385 545.63476 399.37108 547.19922 399.37108 C 548.76358 399.37108 549.42817 399.98589 548.67578 400.73827 C 547.17291 402.24116 523.73242 384.90901 523.73242 382.29491 C 523.73242 381.4023 520.11809 376.95979 515.69922 372.42186 C 497.56351 353.79702 481.06392 333.48843 481.0332 329.75194 C 481.0152 327.56231 480.10711 324.35599 479.01367 322.62694 C 477.92025 320.89792 477.69365 318.97896 478.51172 318.36132 C 482.55589 315.30798 487.4668 299.89318 487.4668 290.24999 C 487.4668 279.97235 487.71788 279.4872 492.26758 280.94335 C 500.93739 283.71818 564.85736 284.66145 571.54687 282.11327 C 575.08527 280.76539 576.92336 278.97959 575.81445 277.96679 C 572.52052 274.9583 562.47172 273.36451 561.07226 275.6289 C 559.44559 278.26091 517.44105 278.45005 513.32617 275.84374 C 511.70928 274.81955 511.02286 272.95204 511.80078 271.69335 C 513.15922 269.49533 494.1528 265.55868 488.00976 266.76562 C 486.54805 267.05284 483.24666 265.32665 480.67383 262.92968 C 478.10099 260.53271 474.36765 258.5703 472.37695 258.5703 C 465.48948 258.5703 446.93359 251.51266 446.93359 248.89257 C 446.93359 247.44576 444.31686 244.54639 441.11914 242.45116 C 437.92142 240.35596 430.76158 234.39095 425.20703 229.1953 L 415.10742 219.74999 L 421.41992 214.43749 C 430.53941 206.76392 429.39281 198.78753 415.86914 175.80859 C 412.24508 169.65073 410.91096 168.92819 405.0957 169.98241 C 398.61975 171.15643 398.42655 170.95603 397.16016 161.71679 C 395.37938 148.7245 397.74163 124.11685 401.32031 118.3789 C 402.94109 115.78018 404.26758 112.25476 404.26758 110.54492 C 404.26758 108.83506 408.27907 104.00278 413.18359 99.804682 C 419.08317 94.754871 424.58093 92.211963 429.58594 92.187495 C 433.47871 92.168465 437.07367 93.673003 440.32812 96.705073 C 444.77267 100.84578 459.73242 122.62364 459.73242 124.95312 C 459.73242 127.15174 494.96063 177.20325 503.85156 187.63671 C 509.10084 193.79671 512.55479 198.83788 511.52539 198.83788 C 510.49601 198.83788 508.51733 197.70093 507.1289 196.31249 C 505.74045 194.92405 504.13693 194.25759 503.56445 194.83007 C 502.3668 196.02772 511.31407 209.41132 513.34961 209.46679 C 515.20966 209.51759 514.44305 198.3849 512.35937 195.08984 C 510.17047 191.62853 516.43977 189.06402 520.02734 191.95312 C 521.47908 193.12223 526.02615 194.75681 530.13281 195.58593 C 534.23948 196.41507 541.43948 198.33663 546.13281 199.85741 C 550.82615 201.3782 560.90655 203.24496 568.5332 204.0039 C 603.85969 207.5193 602.43073 207.07687 606.90625 215.8496 C 609.16817 220.28333 612.49861 224.47927 614.30859 225.17382 C 616.11858 225.86837 617.5996 227.46689 617.5996 228.72655 C 617.5996 231.8921 619.99153 234.68415 643.82617 259.3496 C 665.18046 281.44825 686.06673 310.04886 689.21679 321.5039 C 690.18477 325.02389 690.89533 337.29188 690.79687 348.76561 C 690.63087 368.11469 690.17628 370.26362 684.50976 378.39843 C 681.14956 383.22227 677.35563 388.94688 676.07812 391.12108 C 674.80071 393.29531 671.97348 397.04201 669.79687 399.44725 C 665.93289 403.71692 665.93739 403.78471 669.98632 402.26366 C 677.60301 399.40235 669.6818 406.79468 660.33007 411.27538 C 652.9803 414.7968 649.12887 418.5703 652.88476 418.5703 C 656.47413 418.5703 671.14306 409.39248 673.94335 405.39452 C 675.75389 402.8096 677.78177 401.24076 678.44921 401.90819 C 680.55844 404.0174 655.20072 425.18989 649.0664 426.44139 C 645.83973 427.09967 643.19921 428.47722 643.19921 429.50389 C 643.19921 432.4219 646.60647 431.74012 656.47656 426.84764 C 667.02838 421.61725 681.58332 405.32824 690.03906 389.28514 C 696.83811 376.3853 699.39206 376.41522 695.45702 389.3496 C 690.3641 406.0901 676.45297 427.7887 667.49609 432.96092 C 662.93368 435.59552 659.35995 438.47861 659.55664 439.36717 C 659.94577 441.12589 645.92602 442.69033 629.86914 442.67967 C 615.37823 442.66967 620.33915 447.47308 636.73632 449.32811 C 647.12869 450.50388 650.90798 449.99016 657.81054 446.46874 C 662.43667 444.10868 667.52224 440.94043 669.11132 439.42772 C 670.7004 437.91502 675.19429 434.04344 679.09765 430.82421 C 683.00098 427.60499 685.10362 424.97069 683.77148 424.97069 C 682.43937 424.97069 685.00583 418.2582 689.4746 410.05272 C 693.94336 401.84725 698.19161 395.12766 698.91406 395.11913 C 700.59563 395.10083 697.8422 409.19619 694.56054 417.40624 C 693.17504 420.87247 688.73408 428.31236 684.6914 433.93944 C 679.39549 441.31097 678.24966 444.16991 680.59179 444.16991 C 686.43886 444.16991 699.90044 419.7072 702.95117 403.53905 C 704.49068 395.37987 706.38099 388.70507 707.15038 388.70507 C 707.91977 388.70507 711.36618 394.70436 714.80859 402.0371 C 724.4326 422.53737 749.19749 461.53119 756.4707 467.6367 C 757.16955 468.22337 759.09046 471.28062 760.73827 474.42967 C 762.38606 477.5787 768.16324 487.6591 773.57812 496.83006 C 778.99309 506.00099 790.88069 528.38365 799.99413 546.5703 C 809.10755 564.75695 818.97676 584.43801 821.92577 590.30467 C 824.87478 596.17132 828.45055 602.40991 829.87304 604.1699 C 831.29554 605.9299 836.11109 613.6116 840.57226 621.23826 C 848.87844 635.43825 849.98377 642.26456 845.84374 653.77147 C 840.25525 669.3043 838.8326 672.43748 837.36522 672.43748 C 835.47194 672.43748 829.70647 663.94774 811.2871 634.03709 C 798.64252 613.50397 766.93359 551.00243 766.93359 546.61131 C 766.93359 545.58372 765.68877 543.47427 764.16796 541.92381 C 762.64715 540.37332 758.65905 532.61335 755.30468 524.67967 C 748.44487 508.45488 745.12312 506.85758 750.8203 522.52342 C 756.25599 537.47014 770.73558 567.36562 773.31054 568.95701 C 774.53439 569.71341 774.95217 571.27651 774.23827 572.43162 C 773.01828 574.40559 783.32808 597.5672 786.47655 599.92576 C 787.2754 600.52418 788.57183 603.57505 789.35741 606.70506 C 790.14301 609.83506 792.02618 612.87117 793.54296 613.45311 C 795.05974 614.03517 799.45777 620.10521 803.3164 626.94139 C 807.17503 633.77758 816.32168 648.09137 823.64257 658.74998 L 836.95311 678.12889 L 831.27733 687.71092 C 828.15539 692.9806 822.70509 700.76605 819.16796 705.00975 L 814.31444 710.83396 L 821.29687 710.83396 L 823.22851 708.1699 C 833.05527 694.62721 838.49434 685.29105 842.17772 675.64451 C 844.41617 669.78219 847.11143 664.45254 848.16601 663.80076 C 849.22057 663.14901 851.06048 657.4593 852.25585 651.15623 C 853.4512 644.85316 854.9683 639.15665 855.62694 638.49803 C 856.28557 637.8394 858.65809 639.6877 860.89843 642.6035 C 864.19757 646.89737 864.98112 647.19369 865.01952 644.1699 C 865.04562 642.11657 864.33083 640.43748 863.43163 640.43748 C 862.53243 640.43748 858.63918 635.15838 854.77929 628.70506 C 850.91938 622.25173 847.00907 616.97068 846.08983 616.97068 C 845.17062 616.97068 843.27422 614.45765 841.87499 611.3867 L 839.33007 605.80467 L 847.39843 607.19529 C 855.72921 608.63167 867.99131 619.98131 873.89647 631.72264 C 877.9074 639.6976 888.47973 653.54138 894.80663 659.10154 C 898.79315 662.60484 899.19259 663.52507 896.28514 662.5117 C 892.86061 661.31812 892.62017 661.71526 894.56835 665.35545 C 895.81413 667.68321 898.56621 670.94977 900.68358 672.61326 C 904.20973 675.38352 904.28341 675.32017 901.56249 671.8535 C 899.92861 669.77181 899.31317 667.37116 900.1953 666.51951 C 901.07744 665.66788 903.37569 667.32921 905.30077 670.21092 C 907.22585 673.09262 913.3693 680.09885 918.95311 685.78123 C 926.86779 693.83548 931.40356 699.23159 933.38085 703.21092 L 933.38085 661.27146 L 932.26757 689.71092 L 923.19921 680.46092 C 913.55069 670.61636 912.22771 667.22526 917.27343 665.28904 C 919.90616 664.27876 920.2592 658.82031 919.46483 631.46092 C 918.54906 599.91968 921.32638 541.36146 922.63085 564.70506 L 923.22655 575.37108 L 925.00585 562.5703 C 927.75705 542.77954 926.96498 512.43748 923.69725 512.43748 C 921.38195 512.43748 918.40038 508.0511 918.40038 504.64452 C 918.40038 504.06974 920.55921 503.88253 923.19921 504.2285 C 925.8392 504.57444 928.26681 503.92322 928.59374 502.78123 C 929.58711 499.31135 909.71836 498.37582 868.80077 499.96678 C 785.81286 503.19353 784.05092 503.18806 783.04296 499.67772 C 782.53136 497.89603 781.45391 475.3015 780.64843 449.46874 L 779.18554 402.49999 L 791.72655 399.6035 C 799.59156 397.78737 823.76675 396.32369 856.5664 395.67577 C 899.77377 394.82225 910.79947 395.21709 919.98632 397.9453 C 926.34804 399.83454 931.61997 400.41569 932.30663 399.30467 C 932.96677 398.23654 931.12735 396.76565 928.21678 396.03514 C 923.57608 394.8704 922.76827 393.22129 921.65819 382.63866 C 919.27223 359.89312 915.81354 345.75425 912.90819 346.86913 C 911.40688 347.44526 909.03168 346.534 907.62889 344.84374 C 906.2261 343.15348 903.20249 341.77147 900.91014 341.77147 C 896.98951 341.77147 896.77479 343.1953 897.29296 365.77147 L 897.84374 389.77147 L 876.65429 389.88475 C 865.00069 389.94705 844.42691 390.68563 830.93358 391.52733 C 815.03216 392.51927 808.00032 392.3494 810.94921 391.04296 C 816.17377 388.72833 825.7885 363.50529 822.64452 360.36132 C 821.53916 359.25595 820.15022 359.43283 819.31444 360.78514 C 817.15164 364.28466 813.82298 363.56704 815.22851 359.90429 C 815.9039 358.14429 817.69028 356.70507 819.19921 356.70507 C 822.4214 356.70507 825.11498 350.83619 823.26562 347.84374 C 822.56031 346.70236 823.66584 343.90943 825.72265 341.63671 C 829.31813 337.66361 829.27282 337.50389 824.58202 337.50389 C 821.89867 337.50389 816.41979 339.53315 812.40624 342.01366 C 808.39271 344.49415 804.51933 345.93532 803.79882 345.21483 C 803.07833 344.49432 803.84952 343.87326 805.51171 343.83593 C 807.66674 343.78753 807.37152 342.88857 804.48437 340.70311 C 799.9543 337.27427 799.51505 337.5655 819.19921 330.96288 C 823.89253 329.38861 828.42279 327.55853 829.26562 326.89647 C 830.10852 326.23442 831.13627 314.44278 831.54882 300.69335 C 832.26131 276.94756 833.40172 270.99547 836.62304 274.21679 C 838.59555 276.18931 839.08361 282.01118 839.28905 306.0371 L 839.46679 326.83788 L 849.5996 327.17186 L 859.73241 327.5078 L 849.23241 328.77343 C 837.32917 330.20715 834.09346 334.18938 843.33202 336.0371 C 850.35648 337.44199 858.66601 335.78979 858.66601 332.98827 C 858.66601 331.95179 860.58693 331.1035 862.93358 331.1035 C 865.28025 331.1035 867.19921 330.14403 867.19921 328.97069 C 867.19921 327.79736 869.06243 326.83788 871.33983 326.83788 C 875.22811 326.83788 879.28542 323.27956 877.46874 321.46288 C 877.01543 321.00955 873.04975 320.24218 868.65429 319.7578 C 864.25879 319.27343 859.97285 318.18751 859.13085 317.34569 C 858.28884 316.50388 857.53531 307.61157 857.45702 297.58397 C 857.34368 283.07007 856.58324 278.81686 853.7246 276.72655 C 851.74958 275.28239 850.1328 273.48695 850.1328 272.73632 C 850.1328 272.04821 857.58398 271.68662 867.2539 271.60546 C 869.26845 271.58856 871.37918 271.58293 873.53905 271.58983 C 888.65814 271.63803 906.17798 272.25871 909.86718 273.29687 C 915.13912 274.78031 915.20214 275.07797 915.43749 299.21679 C 915.72914 329.13352 915.76945 329.52988 918.35546 327.93163 C 920.90632 326.35512 929.21013 330.56506 932.6621 335.18554 C 932.91554 335.52477 933.15543 336.55592 933.38085 338.10155 L 933.38085 325.1953 C 931.7496 328.30697 928.72138 326.97219 923.32616 325.52538 C 919.19067 324.41639 918.75377 323.13045 919.53124 314.35546 C 920.01453 308.90085 920.87116 294.69474 921.43553 282.7871 L 922.46093 261.13671 L 915.92382 258.42773 C 909.73242 255.86317 909.45156 255.23579 910.63475 246.60351 C 911.74619 238.49458 911.36065 237.32774 907.14257 236.04296 C 904.53446 235.24857 900.81031 233.2053 898.86718 231.50194 C 890.9853 224.59275 840.00238 226.43306 839.17968 233.65624 C 839.02209 235.03971 839.10808 240.24742 839.37108 245.23046 C 839.74958 252.40321 839.03308 254.55578 835.92577 255.55858 C 823.67744 259.51131 822.10619 261.24904 823.66796 269.12694 C 824.49409 273.29422 825.56218 287.32163 826.04101 300.29882 L 826.9121 323.89452 L 805.29882 332.07811 C 764.91996 347.36993 760.5332 355.98869 760.5332 420.01952 C 760.5332 453.33248 760.08194 458.79599 757.4121 457.77147 C 752.39291 455.84542 733.67491 425.00932 718.35156 393.41991 C 705.7088 367.35656 704.12304 362.6612 703.78124 350.30468 C 703.31029 333.27908 701.78778 326.66093 695.19335 312.97069 C 682.67034 286.97245 670.60888 270.83419 644.17968 244.70507 C 633.49841 234.14508 622.47827 221.39983 619.68945 216.3828 C 614.94535 207.84828 605.76166 200.9707 599.10937 200.9707 C 597.51372 200.9707 594.54131 200.06781 592.5039 198.96484 C 590.46648 197.86187 580.63933 196.00035 570.66601 194.82812 C 560.69268 193.65597 541.97305 189.19037 529.0664 184.90429 C 501.57425 175.77463 499.86182 174.24964 475.23437 136.9707 C 466.32028 123.47738 458.22512 112.11767 457.24609 111.72656 C 456.26704 111.33544 455.4668 109.75739 455.4668 108.2207 C 455.4668 106.684 454.02758 104.8746 452.26758 104.19921 C 450.50758 103.52384 449.03513 101.74178 448.99609 100.23828 C 448.81041 93.086229 436.12093 83.636714 426.70117 83.636714 z M 301.33985 148.05663 C 307.41396 148.21518 311.2475 151.52248 315.97071 159.58202 C 320.79001 167.80547 321.42629 170.92924 320.61914 182.37499 C 319.20493 202.42899 311.35274 213.52902 293.35743 220.90819 C 278.58857 226.96432 271.30334 227.82285 262.64063 224.52929 C 258.28975 222.87506 257.4965 223.07726 258.4629 225.59569 C 259.11893 227.3053 258.59379 228.70507 257.29493 228.70507 C 255.99605 228.70507 254.9336 227.74364 254.9336 226.5703 C 254.9336 225.39698 253.07927 224.43749 250.8125 224.43749 C 248.54576 224.43749 244.50799 221.37204 241.83985 217.62499 C 237.94938 212.16134 236.98829 207.96832 236.98829 196.45507 C 236.98829 183.81629 237.61414 181.5786 242.22657 177.74023 C 245.10812 175.34224 248.27256 173.34763 249.25782 173.30859 C 250.24308 173.26959 252.64372 171.3637 254.5918 169.07421 C 258.81189 164.11452 285.14195 150.85489 294.88477 148.7832 C 296.80031 148.37588 298.52164 148.12896 300.09375 148.0664 C 300.51953 148.0495 300.93491 148.04653 301.33985 148.05663 z M 299.98243 150.36913 C 295.23038 150.41573 280.80174 156.02363 272.5918 161.32812 C 267.05977 164.90245 265.25383 167.9792 263.35157 177.07421 C 260.78993 189.32173 262.64367 198.43431 269.15821 205.6328 C 273.62052 210.5636 276.36341 210.49767 287.49024 205.19335 C 299.28298 199.57158 307.54522 193.13896 305.54493 191.13866 C 304.67022 190.26396 301.32575 191.87878 298.11133 194.72655 C 289.74044 202.1427 283.54322 205.23827 277.06446 205.23827 C 268.87264 205.23827 265.74562 199.63174 265.66797 184.80859 C 265.59217 170.32067 267.98702 166.83087 283.70118 158.52929 C 297.71464 151.12618 299.19922 151.99653 299.19922 167.61718 C 299.19922 175.08592 300.22903 183.00554 301.48633 185.21679 C 303.22563 188.27562 303.67256 184.81516 303.35352 170.74804 C 303.12288 160.57892 302.2347 151.56061 301.38086 150.70702 C 301.14335 150.46958 300.66129 150.36247 299.98243 150.36913 z M 249.1836 176.86132 C 248.992 176.86332 248.73811 177.11231 248.41993 177.61523 C 245.79388 181.76626 245.88816 195.07902 248.59375 202.1953 C 249.79992 205.36774 251.36831 207.37975 252.08008 206.66796 C 252.79184 205.95619 252.16049 202.445 250.67774 198.86523 C 249.12257 195.11059 248.48791 188.58447 249.17774 183.4414 C 249.76181 179.08759 249.75815 176.85653 249.1836 176.86132 z M 408.66016 192.43749 C 409.76424 192.43749 410.66602 193.39698 410.66602 194.5703 C 410.66602 195.74364 409.16909 196.70507 407.33984 196.70507 C 405.51056 196.70507 404.60883 195.74364 405.33399 194.5703 C 406.05915 193.39698 407.55607 192.43749 408.66016 192.43749 z M 396.92578 196.70507 C 397.4432 196.70507 397.86719 197.66455 397.86719 198.83788 C 397.86719 200.01121 396.85 200.9707 395.60742 200.9707 C 394.36484 200.9707 393.94085 200.01121 394.66602 198.83788 C 395.39118 197.66455 396.40836 196.70507 396.92578 196.70507 z M 413.74023 207.37109 C 415.56948 207.37109 417.06641 208.33056 417.06641 209.5039 C 417.06641 210.67723 416.16268 211.63671 415.05859 211.63671 C 413.95452 211.63671 412.45758 210.67723 411.73242 209.5039 C 411.00726 208.33056 411.911 207.37109 413.74023 207.37109 z M 402.92383 209.28124 C 404.59909 209.23844 405.74528 209.59006 406.75195 210.21874 C 408.90453 211.56304 410.66602 214.68901 410.66602 217.16405 C 410.66602 222.74398 420.05894 235.88262 431.11719 245.77148 L 439.4668 253.23827 L 395.25781 253.3496 L 351.04688 253.46093 L 348.01563 244.8164 C 346.34848 240.06139 344.30116 234.49082 343.46485 232.43749 C 342.31106 229.60468 342.99288 228.70507 346.29688 228.70507 C 348.69163 228.70507 356.23458 226.37695 363.0586 223.53319 C 388.11224 213.09269 397.89804 209.40952 402.92383 209.28124 z M 316.97071 212.70507 L 321.15235 217.74023 C 323.45199 220.51023 325.33399 224.58997 325.33399 226.80663 C 325.33399 229.02331 326.62105 230.83788 328.19532 230.83788 C 330.91542 230.83788 336 243.67968 336 250.55077 C 336 252.36489 333.40907 254.28809 330.06446 254.95702 C 326.80021 255.60986 317.92111 258.98276 310.33203 262.45116 C 302.74294 265.91956 294.13255 269.45373 291.19922 270.30468 C 288.2659 271.15562 276.74627 275.49696 265.59961 279.95312 C 254.45295 284.40937 236.21307 291.56912 225.06641 295.86327 C 213.91975 300.15746 196.95345 306.96425 187.36329 310.98827 C 170.21951 318.18181 162.25736 319.86732 160.35548 316.70507 C 153.29434 304.96448 148.26759 294.30354 148.26759 291.07421 C 148.26759 288.28099 151.66365 285.58102 159.4668 282.17382 C 165.6268 279.48409 174.5059 275.57012 179.19923 273.47655 C 183.89255 271.38296 196.37361 266.09774 206.9336 261.73046 C 217.49359 257.36314 234.29425 250.16437 244.26758 245.73437 C 254.2409 241.30429 265.98745 236.55061 270.3711 235.16991 C 274.75475 233.7892 278.89024 231.76937 279.5625 230.68163 C 280.23476 229.59391 285.57832 228.70507 291.43555 228.70507 C 300.99616 228.70507 302.84505 227.88707 309.52735 220.70507 L 316.97071 212.70507 z M 389.08203 215.90429 C 387.9087 215.90429 387.54242 216.86377 388.26758 218.0371 C 388.99274 219.21043 390.54542 220.16991 391.71875 220.16991 C 392.89208 220.16991 393.25837 219.21043 392.5332 218.0371 C 391.80804 216.86377 390.25536 215.90429 389.08203 215.90429 z M 384.3125 218.95116 C 378.87053 218.65543 359.4668 231.33919 359.4668 235.65624 C 359.4668 236.76926 362.86032 234.70014 367.00781 231.05859 C 371.15529 227.41706 375.71487 224.48738 377.14063 224.54882 C 378.56647 224.61032 377.33372 226.28183 374.40039 228.26171 C 371.46707 230.24159 366.30581 234.5577 362.93164 237.85351 C 359.55749 241.14932 357.36712 242.35823 358.06446 240.54101 C 358.76178 238.72375 358.50513 237.23827 357.49414 237.23827 C 355.64384 237.23827 353.06641 242.30657 353.06641 245.9453 C 353.06641 249.56256 356.49005 247.95113 362.80078 241.36327 C 366.24697 237.76578 373.14435 232.24486 378.12891 229.09569 C 387.38347 223.24888 388.72915 221.36745 385.20508 219.18944 C 384.97627 219.04803 384.6753 218.97088 384.3125 218.95116 z M 531.66406 220.98046 C 531.3311 221.01176 530.60304 221.79258 529.66406 223.20116 C 524.61955 230.76867 512.58908 243.63671 510.55859 243.63671 C 509.45255 243.63671 509.13472 242.68918 509.85156 241.52929 C 510.63087 240.26834 509.65196 239.99625 507.41797 240.85351 C 504.98665 241.7865 504.60703 242.59555 506.33008 243.16991 C 509.87851 244.35272 505.30954 250.0371 500.81055 250.0371 C 498.06977 250.0371 498.03133 249.50225 500.53906 246.30468 C 503.15129 242.97382 503.0888 242.86676 499.96094 245.31054 C 498.03272 246.81703 492.27193 248.87813 487.16015 249.89257 C 478.53067 251.60512 478.87026 251.70361 491.90234 251.26171 C 501.67759 250.93023 507.5261 249.58836 511.16992 246.83983 C 517.26433 242.24279 530.92691 225.63409 531.79883 221.76171 C 531.92221 221.21374 531.86383 220.96168 531.66406 220.98046 z M 535.95312 223.23437 C 535.42476 223.29507 534.49552 224.4012 533.00586 226.6289 C 531.06591 229.52996 527.04712 234.54482 524.07422 237.77148 C 521.10135 240.99814 519.70915 243.63671 520.98047 243.63671 C 524.43187 243.63671 536.5332 229.1008 536.5332 224.95507 C 536.5332 223.77238 536.36415 223.18711 535.95312 223.23437 z M 317.05664 231.49804 C 316.2169 231.52494 315.17729 231.70621 313.95313 232.08202 C 308.04758 233.89503 307.56503 234.37674 309.1211 236.89452 C 309.93309 238.20836 312.29026 238.07673 315.55274 236.5371 C 320.5889 234.1604 320.6955 231.38152 317.05664 231.49804 z M 300.29688 232.14648 C 299.93228 232.11728 299.5758 232.27575 299.22852 232.62304 C 297.83937 234.01218 298.4759 236.54406 301.09375 240.04296 C 306.12323 246.76506 306.77576 246.11828 303.74414 237.42187 C 302.55433 234.00873 301.39058 232.23426 300.29688 232.14648 z M 508.6582 235.95898 C 507.27025 235.81304 496.10302 241.00025 494.04492 242.84179 C 493.55605 243.27923 493.8431 243.63671 494.68359 243.63671 C 496.97307 243.63671 508.80078 237.28929 508.80078 236.06054 C 508.80078 236.00084 508.75078 235.96875 508.6582 235.95898 z M 296.89258 240.45312 C 296.25946 240.48792 295.50925 240.82626 294.76563 241.21679 C 294.97937 241.79034 295.19698 242.35732 295.40039 242.94726 C 295.68504 243.77277 295.95853 244.61254 296.22461 245.45702 C 297.95964 243.29436 298.82127 241.19305 298.02539 240.70116 C 297.70884 240.50552 297.32251 240.42958 296.89258 240.45312 z M 598.82421 250.52538 C 597.15161 250.45828 596.51929 250.85384 597.04296 251.70116 C 597.76345 252.86696 601.62718 254.43482 605.6289 255.18554 C 609.63062 255.93626 614.06997 257.95388 615.49414 259.66991 C 618.27766 263.02387 622.80097 261.80863 620.62695 258.29101 C 619.08963 255.80356 612.96085 253.3301 602.93359 251.14843 C 601.2066 250.77268 599.82778 250.56563 598.82421 250.52538 z M 588.40429 254.64452 C 583.24664 254.50017 588.00001 258.6812 596.60156 260.71483 C 600.5236 261.64211 605.65333 262.42098 608 262.4453 C 613.5438 262.5029 600.55993 256.72738 591.24023 254.99023 C 590.08121 254.77419 589.1411 254.66514 588.40429 254.64452 z M 532.80078 258.74023 C 529.79692 258.87573 529.69284 259.16114 532.26758 260.20116 C 534.27395 261.01159 531.88633 262.462 525.86719 264.08983 C 520.56005 265.5251 518.35095 266.77868 520.92773 266.89452 C 527.15073 267.17416 536.5332 263.48497 536.5332 260.7578 C 536.5332 259.55543 534.85411 258.64765 532.80078 258.74023 z M 389.79688 258.9121 C 420.95416 258.9684 442.23835 259.72427 437.70117 260.61522 C 424.62302 263.1834 420.58156 268.86377 419.83203 285.72655 L 419.19141 300.16991 L 422.41016 288.74218 C 427.85195 269.42484 431.24204 265.43045 444.54883 262.66796 C 459.42141 259.58043 474.57852 261.18076 478.26953 266.22851 C 480.03745 268.64627 481.06641 276.48605 481.06641 287.54296 C 481.06641 311.56262 478.74829 314.27876 457.07031 315.66991 C 436.24505 317.0064 430.68722 315.48703 425.54102 307.04686 C 423.23514 303.26502 421.34606 301.44504 421.3418 303.00194 C 421.3378 304.55887 424.1386 308.63861 427.56836 312.06835 C 433.41596 317.91596 434.91035 318.31795 451.56836 318.51561 L 469.33398 318.72655 L 459.73242 321.7871 C 444.42373 326.66705 422.21238 328.79642 385.85547 328.87108 C 323.75998 328.99861 318.47424 329.25944 297.84766 333.22069 C 286.56451 335.38756 275.89281 337.68959 274.13282 338.33593 C 270.12177 339.80894 262.86239 333.86144 258.63868 325.64257 C 256.86586 322.19284 255.06662 312.81331 254.64063 304.79882 L 253.86719 290.22655 L 266.4961 285.0664 C 282.32734 278.59617 283.45024 278.62639 281.72852 285.48632 C 278.52809 298.23777 277.96359 304.54556 280.32032 301.23827 C 281.57447 299.47827 282.68273 298.99658 282.78321 300.16991 C 282.88365 301.34325 283.79239 300.38377 284.80079 298.0371 C 286.32242 294.49604 286.69628 295.04144 287.00196 301.23827 L 287.36914 308.70507 L 288.96875 302.00194 C 292.60873 286.73781 310.31472 267.06899 325.11914 261.84569 C 331.75795 259.50339 346.54337 258.83381 389.79688 258.9121 z M 885.15624 261.2246 C 895.50965 261.2515 904.13364 261.54824 907.56639 262.19335 C 920.55355 264.63397 922.35332 270.07032 909.56639 268.23437 C 904.45158 267.49994 889.70743 266.83903 876.80077 266.76757 C 863.89411 266.69617 849.01241 267.20579 843.73241 267.90038 C 833.29296 269.27369 823.93281 266.912 828.5371 264.0664 C 831.2265 262.40425 862.37873 261.16548 885.15624 261.2246 z M 510.67773 263.10937 C 509.51773 263.09507 508.27807 263.22173 507.24023 263.49218 C 505.16457 264.03306 506.34719 264.51116 509.86719 264.55468 C 513.38718 264.59818 515.08496 264.15664 513.64062 263.57226 C 512.91855 263.28002 511.83773 263.12361 510.67773 263.10937 z M 585.72656 267.10351 C 577.58249 267.10351 570.32477 268.06494 569.59961 269.23827 C 568.83037 270.4829 570.99928 271.37108 574.80664 271.37108 C 578.39588 271.37108 581.33398 272.33056 581.33398 273.5039 C 581.33398 274.67723 583.25294 275.63671 585.59961 275.63671 C 587.94627 275.63671 589.86718 274.65857 589.86718 273.46288 C 589.86718 272.20923 592.1237 271.85699 595.19921 272.6289 C 599.23232 273.64114 600.5332 273.12989 600.5332 270.53515 C 600.5332 267.71189 597.91006 267.10351 585.72656 267.10351 z M 378.70508 268.24218 C 378.60002 268.24518 378.48476 268.28378 378.35938 268.36132 C 377.35554 268.98171 376.5332 271.35343 376.5332 273.63085 C 376.5332 279.41164 377.97254 278.79626 379.17578 272.50194 C 379.66048 269.96637 379.44045 268.22282 378.70508 268.24218 z M 903.87499 277.77538 C 903.06424 277.77738 902.21236 283.29634 901.98436 290.04101 C 901.75626 296.78568 900.97063 305.66482 900.23632 309.77147 L 898.90038 317.23827 L 903.19139 312.97069 C 906.35627 309.82387 907.63904 305.34477 908.07616 295.90429 C 908.63503 283.83428 907.22894 277.76685 903.87499 277.77538 z M 197.25782 279.90429 C 195.74337 279.90429 195.73668 281.18648 197.23829 283.99218 C 198.80523 286.92003 199.983 287.48981 203.41212 286.45897 C 202.91646 285.18326 202.39076 283.84843 201.93946 282.71679 C 200.4382 283.2459 199.46485 283.23383 199.46485 282.11327 C 199.46485 280.89866 198.47244 279.90429 197.25782 279.90429 z M 375.74024 280.64452 C 375.21851 280.79478 374.44676 284.99468 373.44727 293.23827 C 372.44951 301.46772 372.71192 305.5039 374.2461 305.5039 C 375.62576 305.5039 376.5332 300.28646 376.5332 292.3496 C 376.5332 284.39387 376.26198 280.49426 375.74024 280.64452 z M 181.71485 286.61132 C 181.63065 286.59542 181.55073 286.59668 181.47462 286.61718 C 181.38762 286.64028 181.30577 286.68638 181.23243 286.75976 C 180.64581 287.34641 180.69789 289.21297 181.34766 290.90624 C 182.06301 292.77041 185.4496 293.98433 189.93165 293.98436 C 197.88526 293.98436 199.07739 292.54068 194.35938 288.62499 C 192.07059 286.72547 190.64322 286.89781 188.16602 289.37499 C 185.29649 292.24454 184.80344 292.22062 183.62305 289.14452 C 183.06547 287.69154 182.30419 286.72253 181.71485 286.61132 z M 161.55665 290.87499 C 160.78489 290.79969 161.36577 293.16114 163.39063 297.60546 C 165.14686 301.45989 166.97203 302.46539 170.85743 301.72265 C 173.68572 301.18197 176.00001 299.83625 176.00001 298.73046 C 176.00001 297.62465 176.95949 297.31194 178.13282 298.0371 C 179.30616 298.76226 180.26758 297.85852 180.26758 296.02929 C 180.26758 292.02871 177.40645 291.79073 171.75782 295.31835 C 168.23484 297.5185 167.06808 297.26389 164.38673 293.71679 C 162.96897 291.84127 162.01971 290.92015 161.55665 290.87499 z M 379.73242 291.05077 C 379.44429 291.18548 379.24805 293.3407 379.24805 296.97069 C 379.24805 302.25069 379.6634 304.41147 380.17188 301.77147 C 380.68029 299.13148 380.68029 294.80991 380.17188 292.16991 C 380.01298 291.34491 379.86339 290.98954 379.73242 291.05077 z M 204.5254 293.38476 C 201.87217 293.40956 195.19922 297.57594 195.19922 299.61718 C 195.19922 302.06323 197.93268 301.45642 202.51172 297.99218 C 204.77273 296.28161 206.06485 294.32463 205.38477 293.64452 C 205.20094 293.4607 204.90443 293.38121 204.5254 293.38476 z M 146.19532 294.93749 C 146.25852 294.94649 146.29655 294.98159 146.3086 295.04101 C 148.51569 305.91094 148.21284 306.57741 139.17969 310.70507 C 134.20442 312.97852 129.41321 315.21729 128.53321 315.68163 C 126.63627 316.68255 126.53473 316.48101 125.89063 310.41015 C 125.51684 306.88594 127.0124 305.1498 131.89063 303.44921 C 135.4648 302.20324 140.13219 299.60687 142.26173 297.67968 C 144.12504 295.99339 145.753 294.8729 146.19532 294.93749 z M 189.77344 299.81444 C 188.06507 299.81444 186.66602 300.61595 186.66602 301.59374 C 186.66602 302.57151 187.56975 303.37108 188.67383 303.37108 C 189.77791 303.37108 191.17501 302.57151 191.7793 301.59374 C 192.38361 300.61595 191.48183 299.81444 189.77344 299.81444 z M 177.19141 304.0664 C 176.85078 304.0463 176.44001 304.1656 176.00001 304.43749 C 174.82668 305.16265 173.86719 306.71533 173.86719 307.88866 C 173.86719 309.062 174.82668 309.43023 176.00001 308.70507 C 177.17334 307.97991 178.13282 306.42528 178.13282 305.25194 C 178.13282 304.51861 177.75911 304.09991 177.19141 304.0664 z M 151.78321 312.9121 C 152.66166 312.9576 153.45972 313.65164 154.5918 315.01561 C 156.83598 317.71968 156.28986 318.57949 151.16602 320.40233 C 147.81183 321.59561 143.39875 323.53225 141.36134 324.70507 C 136.7885 327.3374 133.94288 327.41535 132.41993 324.95116 C 131.77893 323.914 134.36174 321.83672 138.16016 320.33397 C 141.95858 318.83123 146.60905 316.29557 148.49415 314.69921 C 149.9468 313.46905 150.90476 312.86658 151.78321 312.9121 z M 486.33203 317.58202 C 485.35658 317.54112 484.53334 317.87162 484.03516 318.67772 C 483.08919 320.20831 483.49799 320.50513 485.14648 319.48632 C 486.74303 318.49961 487.59973 318.99075 487.35742 320.75585 C 487.13982 322.34025 487.07575 324.83801 487.21484 326.30468 C 487.35385 327.77134 489.29638 328.97069 491.5332 328.97069 C 494.39889 328.97069 495.3031 327.83592 494.5957 325.13085 C 493.55868 321.16531 489.25839 317.70463 486.33203 317.58202 z M 496.36914 321.6289 C 496.29534 321.6101 496.24373 321.61557 496.21289 321.64647 C 495.71939 322.13998 496.90907 324.30607 498.85742 326.45897 C 503.273 331.33812 503.5194 334.68892 499.19922 331.1035 C 496.81458 329.1245 496 329.09051 496 330.96874 C 496 332.35504 495.04051 332.89507 493.86719 332.16991 C 490.9241 330.35099 491.19408 332.72211 494.40039 336.85155 C 499.97098 344.02599 518.24568 360.65787 519.62304 359.80663 C 520.41495 359.3172 523.63397 361.29957 526.77539 364.21093 C 536.94739 373.63803 535.60423 369.81599 524.7207 358.36522 C 518.89814 352.23922 513.20185 346.53181 512.0625 345.68163 C 510.92315 344.83145 510.54038 343.58656 511.21289 342.91405 C 511.88538 342.24154 518.97756 347.94892 526.97265 355.59764 C 534.96774 363.24634 542.32046 369.50389 543.3125 369.50389 C 544.30454 369.50389 540.058 364.94442 533.87695 359.37108 C 527.69593 353.79776 516.89577 342.82815 509.875 334.99413 C 503.29304 327.64974 497.47693 321.91078 496.36914 321.6289 z M 489.47461 322.5703 C 490.71719 322.5703 491.73242 323.53173 491.73242 324.70507 C 491.73242 325.8784 491.31039 326.83788 490.79297 326.83788 C 490.27555 326.83788 489.25837 325.8784 488.5332 324.70507 C 487.80804 323.53173 488.23203 322.5703 489.47461 322.5703 z M 515.75195 333.58202 C 515.46017 333.54762 515.28158 333.72059 515.26758 334.12304 C 515.18398 336.52872 541.5803 362.23034 547.25195 365.26561 C 550.58578 367.04983 551.13238 366.85101 550.12304 364.22069 C 549.43723 362.43354 549.90981 360.97069 551.17187 360.97069 C 552.45355 360.97069 552.86598 359.32371 552.10547 357.23827 C 550.88322 353.88668 551.21596 353.91992 555.37109 357.56835 C 560.1958 361.80465 561.82499 366.61685 557.53711 363.96678 C 555.96324 362.99407 555.65484 363.38622 556.68359 365.05077 C 557.56903 366.48339 558.75726 367.18998 559.32422 366.62303 C 559.89117 366.0561 562.292 367.52831 564.6582 369.89452 C 570.50901 375.74533 574.69727 371.76974 569.31054 365.4785 C 567.18773 362.99923 564.22581 360.97069 562.72656 360.97069 C 561.22732 360.97069 559.9705 360.25108 559.93359 359.37108 C 559.89669 358.49108 557.33764 355.92761 554.24804 353.67382 C 551.15845 351.42004 549.32478 350.69847 550.17383 352.07225 C 552.34333 355.58258 549.01726 355.17873 543.4082 351.24999 C 536.75938 346.59297 537.49257 349.475 544.5332 355.67186 C 547.75985 358.51174 549.27638 360.86717 547.90429 360.90428 C 545.53062 360.96848 523.43243 342.14195 517.93359 335.37108 C 517.04026 334.27108 516.23826 333.63932 515.75195 333.58202 z M 335.47461 333.69725 C 340.68058 333.70025 343.33174 334.14869 340.93946 335.20507 C 334.43988 338.07512 331.73242 344.10107 331.73242 355.70116 C 331.73242 366.52453 338.00502 378.0371 343.90039 378.0371 C 346.20181 378.0371 345.49143 376.65964 341.6211 373.61522 C 337.08335 370.04585 336 367.40142 336 359.88866 C 336 347.4847 338.96461 340.35392 344.94531 338.36913 C 350.33616 336.58009 379.62838 336.84909 385.59961 338.74218 C 388.58231 339.6878 389.32975 342.36339 389.31055 352.04882 C 389.29765 358.71639 388.72106 367.5828 388.03125 371.75194 L 386.77734 379.33202 L 367.25586 378.66796 C 343.68302 377.86647 348.22701 381.41508 372.78516 382.98632 L 388.78516 384.00975 L 391.19336 375.97655 C 392.51724 371.55784 393.59961 363.43807 393.59961 357.93163 C 393.59961 351.80039 394.42595 348.43083 395.73242 349.23827 C 399.24457 351.4089 398.05773 369.94419 393.80664 379.30468 C 387.93875 392.22521 381.83545 394.23997 316.80078 404.73046 C 305.65413 406.52846 293.32658 409.04182 289.40821 410.31444 C 285.48986 411.58706 279.28367 412.02664 275.61524 411.29296 C 269.3521 410.04033 269.20027 410.15323 273.13868 413.13085 C 276.36717 415.57171 276.59602 416.35184 274.13282 416.51952 C 271.94925 416.66813 272.2878 417.3243 275.19922 418.58592 C 277.99811 419.79878 275.79803 420.0531 268.80079 419.32616 C 261.82368 418.60132 259.11582 418.91295 260.97266 420.22655 C 263.07113 421.71108 261.95756 422.67621 256.70508 423.92577 C 250.6486 425.36662 250.30899 425.74714 254.4004 426.5078 C 257.04039 426.99862 259.19922 428.29498 259.19922 429.38671 C 259.19922 435.71762 239.37323 427.80924 227.54688 416.76171 C 220.77519 410.43599 220.74398 410.309 222.08985 394.75194 C 224.02003 372.4409 228.66098 362.75396 239.11915 359.20311 C 243.71046 357.64431 254.35256 353.09191 262.76954 349.08593 C 271.18651 345.07991 283.66756 340.29683 290.50391 338.45702 C 300.20172 335.84716 324.02149 333.69119 335.47461 333.69725 z M 502.59765 334.46093 C 504.27062 334.48773 506.43248 335.22255 508.05664 336.41014 C 510.22217 337.99363 511.38884 339.89237 510.65039 340.63085 C 509.91192 341.36932 507.75317 340.41921 505.85351 338.51952 C 503.95382 336.61983 502.40039 336.09442 502.40039 337.35155 C 502.40039 338.6087 501.44091 339.63671 500.26758 339.63671 C 497.0683 339.63671 497.69782 335.9948 501.125 334.67968 C 501.53649 334.52177 502.04 334.45199 502.59765 334.46093 z M 502.81055 340.73632 C 503.7818 340.62488 507.74294 343.81029 512 348.16991 C 522.75726 359.18635 520.9598 360.96973 509.98437 350.16991 C 505.35598 345.61561 502.05828 341.4007 502.65625 340.80272 C 502.69365 340.76532 502.74575 340.74372 502.81055 340.73632 z M 800.99023 346.03124 C 801.32762 345.94414 800.69771 346.8018 799.20507 348.70507 C 797.59472 350.75839 795.91563 352.43749 795.47265 352.43749 C 793.71683 352.43749 794.84679 350.68534 798.40038 347.89843 C 799.8807 346.73748 800.72782 346.09898 800.99023 346.03124 z M 920.05858 346.42382 C 918.50861 346.54715 918.19059 348.54911 920.47264 351.29882 C 921.94737 353.07575 923.76395 361.0178 924.50975 368.94921 L 925.86718 383.37108 L 926.49999 367.54686 C 926.97967 355.57528 926.34354 350.93339 923.88475 348.4746 C 922.36199 346.95185 920.98857 346.34982 920.05858 346.42382 z M 791.91796 356.03514 C 792.91645 355.92034 792.03804 360.35415 789.05077 368.58397 C 786.27278 376.23723 783.99999 385.75813 783.99999 389.74217 C 783.99999 396.70558 781.15277 401.26003 778.98827 397.7578 C 777.54196 395.41764 783.58393 370.09733 787.30663 362.89843 C 789.67383 358.32077 791.23478 356.11368 791.91796 356.03514 z M 813.86718 367.37108 C 815.04051 367.37108 815.99999 368.27481 815.99999 369.37889 C 815.99999 370.48297 815.04051 371.97991 813.86718 372.70507 C 812.69384 373.43023 811.73241 372.52649 811.73241 370.69725 C 811.73241 368.86801 812.69384 367.37108 813.86718 367.37108 z M 454.11133 370.24218 C 453.78798 370.19318 453.56595 370.97407 453.50195 372.52733 C 453.40935 374.77621 453.91414 376.03505 454.62305 375.32616 C 455.33185 374.61726 455.40726 372.77826 454.79102 371.23827 C 454.53564 370.60009 454.30534 370.27155 454.11133 370.24218 z M 695.34179 372.35546 C 695.68241 372.32176 696.0932 372.43316 696.5332 372.70507 C 697.70654 373.43023 698.66601 374.44546 698.66601 374.96288 C 698.66601 375.4803 697.70654 375.90428 696.5332 375.90428 C 695.35987 375.90428 694.40038 374.8871 694.40038 373.64452 C 694.40038 372.86791 694.77408 372.41165 695.34179 372.35546 z M 701.46288 378.23632 C 701.71035 378.21842 702.27548 378.68664 703.19726 379.60155 C 704.65492 381.04868 705.31112 382.77089 704.65429 383.42772 C 703.99745 384.08456 702.80503 382.9007 702.0039 380.79686 C 701.35268 379.08662 701.1447 378.25932 701.46288 378.23632 z M 456.30078 380.82616 C 456.26358 380.81916 456.23193 380.8281 456.20703 380.8535 C 454.8145 382.24603 462.34999 404.71551 464.70312 406.18749 C 468.14443 408.34003 468.86388 406.76378 466.5 402.24608 C 465.36583 400.07849 462.74958 394.21347 460.68555 389.21483 C 458.75051 384.52864 456.85858 380.92908 456.30078 380.82616 z M 549.69726 402.75389 C 550.69162 402.63751 553.21439 403.90883 555.76562 405.86913 C 558.68144 408.10945 560.051 409.9642 558.80859 409.99022 C 555.72542 410.05502 548.00876 404.25102 549.36914 402.89061 C 549.44444 402.81541 549.5552 402.77051 549.69726 402.75389 z M 267.55664 414.56835 C 266.81554 414.53785 265.96921 414.67233 265.19922 414.98046 C 263.49739 415.66145 264.00306 416.16712 266.48829 416.26952 C 268.73716 416.36212 269.99796 415.8573 269.28907 415.14842 C 268.93462 414.79402 268.29775 414.59886 267.55664 414.56835 z M 473.44922 416.43749 C 472.86255 416.43749 473.41012 418.3584 474.66601 420.70506 C 475.9219 423.05172 477.43091 424.97069 478.01758 424.97069 C 478.60424 424.97069 478.05668 423.05172 476.80078 420.70506 C 475.54489 418.3584 474.03589 416.43749 473.44922 416.43749 z M 418.03711 418.29491 C 417.47018 418.44528 417.27144 421.32744 417.20117 427.76366 C 417.12677 434.57957 417.8174 439.69171 418.73438 439.12499 C 421.25291 437.56838 421.63107 426.09223 419.35156 420.40038 C 418.8443 419.13375 418.45539 418.40271 418.15625 418.30077 C 418.11515 418.28677 418.07495 418.28511 418.03711 418.29491 z M 933.38085 427.90038 C 931.9392 432.60834 931.97113 457.2385 933.38085 464.96092 L 933.38085 427.90038 z M 515.96289 434.14256 C 515.40754 434.19846 515.88389 434.95844 517.29297 436.65624 C 520.36524 440.35808 521.59961 440.74336 521.59961 437.99999 C 521.59961 436.95218 520.0236 435.48904 518.09765 434.74999 C 516.99967 434.32865 516.2961 434.10902 515.96289 434.14256 z M 532.01562 435.6367 C 530.84238 435.6367 530.47406 436.59814 531.19922 437.77147 C 531.92438 438.94481 533.47901 439.90428 534.65234 439.90428 C 535.82568 439.90428 536.19195 438.94481 535.46679 437.77147 C 534.74163 436.59814 533.18896 435.6367 532.01562 435.6367 z M 547.68554 436.76561 C 547.55338 436.77261 547.45154 436.8082 547.38672 436.87303 C 546.86817 437.39155 548.29563 439.2152 550.55664 440.92577 C 552.81765 442.63632 555.62745 444.044 556.80078 444.05467 C 557.97411 444.06587 556.54861 442.24226 553.63281 440.00194 C 551.08149 438.04164 548.61063 436.71859 547.68554 436.76561 z M 483.56836 436.78905 C 483.29341 436.76215 483.19922 436.98684 483.19922 437.37694 C 483.19922 438.62851 484.19904 440.26888 485.41992 441.02342 C 486.64081 441.77796 489.90695 445.9877 492.67773 450.37694 C 495.44855 454.76618 501.19735 462.04994 505.45312 466.56249 C 511.57231 473.05069 513.73536 474.21698 515.79492 472.1367 C 517.84815 470.06283 517.59125 469.04852 514.57617 467.34764 C 512.47271 466.16103 507.9677 462.14102 504.5664 458.41405 C 489.36191 441.75378 484.75982 436.90558 483.56836 436.78905 z M 568.01367 439.90038 C 566.00311 439.74548 567.00381 442.70837 572.30078 448.27342 C 577.57723 453.81695 580.98725 455.92984 582.40039 454.53124 C 583.81724 453.12896 582.19351 450.31789 577.5664 446.1621 C 572.96303 442.0276 569.57744 440.02086 568.01367 439.90038 z M 540.67383 439.90428 C 539.43125 439.90428 539.00726 440.86377 539.73242 442.0371 C 540.45758 443.21042 541.47477 444.16991 541.99218 444.16991 C 542.5096 444.16991 542.93359 443.21042 542.93359 442.0371 C 542.93359 440.86377 541.9164 439.90428 540.67383 439.90428 z M 524.77734 440.02342 C 523.78244 440.07062 526.59551 442.30755 533.33398 446.30467 C 539.20065 449.78465 544.95948 452.63261 546.13281 452.63475 C 548.7351 452.63975 544.4801 449.65382 533.95117 444.08788 C 528.62787 441.2738 525.55116 439.9867 524.77734 440.02342 z M 546.67773 444.16991 C 545.4877 444.16991 545.71777 445.58604 547.19922 447.37108 C 548.65988 449.13108 550.81495 450.5703 551.98828 450.5703 C 553.17832 450.5703 552.94824 449.15613 551.46679 447.37108 C 550.00612 445.61108 547.85107 444.16991 546.67773 444.16991 z M 522.28906 444.60741 C 521.8493 444.55171 521.59961 444.8531 521.59961 445.52147 C 521.59961 446.73393 522.23926 448.36621 523.02148 449.14842 C 523.80369 449.93065 524.94064 450.07497 525.54687 449.46874 C 526.153 448.86253 525.51348 447.23024 524.125 445.84178 C 523.3596 445.07638 522.72882 444.66316 522.28906 444.60741 z M 561.54687 444.61522 C 561.17379 444.62222 560.86498 444.72875 560.64648 444.94725 C 559.77252 445.82119 560.4693 447.42991 562.19531 448.52147 C 567.38905 451.8061 569.69753 450.8206 565.84179 446.96483 C 564.35416 445.47728 562.66599 444.59484 561.54687 444.61522 z M 232.34376 446.30467 C 230.01429 446.30467 231.8549 457.05411 234.66602 459.86522 C 236.42602 461.62522 237.86719 464.09442 237.86719 465.35155 C 237.86719 466.6087 238.82668 467.6367 240 467.6367 C 241.17333 467.6367 242.13282 466.98063 242.13282 466.17772 C 242.13282 464.06596 233.38407 446.30467 232.34376 446.30467 z M 529.46484 450.5703 C 528.21091 450.5703 529.04858 451.98052 531.32617 453.70311 C 536.67756 457.75071 537.72241 457.77421 534.40039 453.77147 C 532.93972 452.01147 530.71875 450.5703 529.46484 450.5703 z M 557.86718 450.5703 C 556.69385 450.5703 555.73242 451.53173 555.73242 452.70506 C 555.73242 453.87839 556.69385 454.83788 557.86718 454.83788 C 559.04051 454.83788 560 453.87839 560 452.70506 C 560 451.53173 559.04051 450.5703 557.86718 450.5703 z M 553.47461 461.23827 C 552.23203 461.23827 551.80804 462.19775 552.5332 463.37108 C 553.25837 464.54442 554.27555 465.50389 554.79297 465.50389 C 555.31039 465.50389 555.73242 464.54442 555.73242 463.37108 C 555.73242 462.19775 554.71719 461.23827 553.47461 461.23827 z M 691.59374 464.23241 C 691.28167 464.27211 690.78288 465.05753 690.13281 466.5703 C 689.12441 468.91697 688.30077 472.2771 688.30077 474.03709 C 688.30077 476.05411 688.97714 475.66006 690.13281 472.97069 C 691.14122 470.62403 691.96679 467.26389 691.96679 465.50389 C 691.96679 464.62144 691.83646 464.2015 691.59374 464.23241 z M 680.66015 467.6367 C 680.14273 467.6367 679.12554 468.59814 678.40038 469.77147 C 677.67523 470.94481 678.09726 471.90428 679.33984 471.90428 C 680.58243 471.90428 681.5996 470.94481 681.5996 469.77147 C 681.5996 468.59814 681.17756 467.6367 680.66015 467.6367 z M 236.92579 472.37889 C 235.67594 472.50131 233.37086 475.95676 231.6836 480.96678 L 229.34766 487.90428 L 233.56055 482.5703 C 235.87722 479.63697 237.79233 475.98122 237.81836 474.4453 C 237.84366 472.95639 237.4939 472.32324 236.92579 472.37889 z M 423.4668 474.03709 C 420.74718 474.03709 420.74616 478.61375 423.46289 485.75975 C 426.50249 493.75453 430.0234 490.55642 427.57617 482.02342 C 426.48928 478.23365 425.59961 474.88699 425.59961 474.58592 C 425.59961 474.28484 424.64013 474.03709 423.4668 474.03709 z M 676.41601 476.16991 C 675.82934 476.16991 674.32229 478.09082 673.0664 480.43749 C 671.81057 482.78415 671.26293 484.70506 671.8496 484.70506 C 672.43627 484.70506 673.94332 482.78415 675.19921 480.43749 C 676.45504 478.09082 677.00267 476.16991 676.41601 476.16991 z M 684.50976 485.44139 C 684.18641 485.39239 683.96634 486.17329 683.90234 487.72655 C 683.80974 489.97543 684.3126 491.23622 685.02148 490.52733 C 685.73028 489.81843 685.80765 487.97747 685.1914 486.43748 C 684.93602 485.79931 684.70376 485.47076 684.50976 485.44139 z M 349.57031 493.69334 C 348.78304 493.67214 348.71189 494.80599 349.33008 497.16991 C 349.99171 499.70004 349.6631 501.77147 348.59961 501.77147 C 347.53612 501.77147 346.68215 503.45055 346.69922 505.50389 C 346.72712 508.68949 347.03063 508.76761 348.77149 506.03709 C 350.17335 503.83836 350.44168 505.50775 349.62891 511.37108 C 348.74278 517.76361 349.01858 519.10226 350.72461 516.70506 C 353.78325 512.40719 353.69112 496.00754 350.59766 494.09569 C 350.17467 493.83427 349.83274 493.7004 349.57031 493.69334 z M 287.71094 493.97459 C 287.38759 493.92559 287.16557 494.70648 287.10157 496.25975 C 287.00897 498.50862 287.51375 499.76941 288.22266 499.06053 C 288.93146 498.35162 289.00689 496.51068 288.39063 494.97069 C 288.13535 494.33251 287.90495 494.00397 287.71094 493.97459 z M 680.60937 500.48631 C 679.95922 500.64083 679.13795 501.70132 678.5371 503.27928 C 677.37938 506.3197 677.62354 506.56386 679.73046 504.47264 C 681.18812 503.02551 681.84432 501.30525 681.18749 500.64842 C 681.02328 500.48421 680.82599 500.4348 680.60937 500.48631 z M 895.99999 503.29491 L 895.99999 555.33201 C 895.99999 583.95311 896.7777 616.72991 897.7285 628.1699 C 898.79307 640.97894 898.68629 648.97068 897.44921 648.97068 C 896.34433 648.97068 892.93959 645.69453 889.88475 641.68943 C 886.82991 637.68434 883.11722 633.1229 881.6328 631.55467 C 880.14839 629.98643 877.67811 626.30441 876.14452 623.37108 C 868.93497 609.58118 858.80846 602.53087 844.81444 601.56053 C 837.71122 601.068 835.79611 599.90719 833.28515 594.57029 C 831.62902 591.0503 829.70275 587.69016 829.0039 587.1035 C 828.30502 586.51683 826.19126 582.67696 824.30663 578.5703 C 821.51853 572.49491 821.06259 565.763 821.86327 542.43944 C 822.72168 517.43426 822.39511 513.4433 819.29687 511.17772 C 817.34337 509.74931 816.59386 508.05691 817.63085 507.416 C 818.66786 506.7751 836.72461 505.58432 857.7578 504.77147 L 895.99999 503.29491 z M 677.13476 508.59178 C 676.15636 508.58068 669.01287 521.41343 668.88867 523.6367 C 668.83947 524.5167 669.32805 525.23827 669.9746 525.23827 C 671.27896 525.23827 677.38536 511.40828 677.24413 508.77342 C 677.23713 508.65156 677.19993 508.59252 677.13476 508.59178 z M 828.66991 510.30467 C 826.36866 510.30467 826.01233 542.44725 828.04687 566.51561 C 828.80559 575.49265 830.11204 582.83787 830.95116 582.83787 C 833.39869 582.83787 835.47461 555.85503 834.12694 541.55467 C 831.78603 516.71459 830.66699 510.30467 828.66991 510.30467 z M 345.31055 511.04295 C 344.9872 510.99395 344.76517 511.7729 344.70117 513.32616 C 344.60857 515.57503 345.11336 516.83583 345.82227 516.12694 C 346.53107 515.41806 346.6065 513.57708 345.99024 512.03709 C 345.73487 511.39891 345.50456 511.07233 345.31055 511.04295 z M 744.13085 538.23631 C 743.81267 538.25931 744.0187 539.08662 744.66991 540.79686 C 745.47104 542.9007 746.66542 544.08456 747.32226 543.42772 C 747.97909 542.77089 747.3232 541.04867 745.86523 539.60155 C 744.94346 538.68664 744.37832 538.21842 744.13085 538.23631 z M 640.12499 602.03709 C 638.43425 602.03709 636.45758 602.99658 635.73242 604.1699 C 635.00726 605.34324 636.39073 606.30467 638.80664 606.30467 C 641.22255 606.30467 643.19921 605.34324 643.19921 604.1699 C 643.19921 602.99658 641.81574 602.03709 640.12499 602.03709 z M 628.14062 606.30467 C 625.7248 606.30467 624.31625 607.22164 625.00976 608.34373 C 625.70324 609.46582 627.67991 609.84453 629.40234 609.18358 C 633.81217 607.49136 633.29171 606.30467 628.14062 606.30467 z M 637.99218 612.70506 C 634.98961 612.70506 632.5332 613.66454 632.5332 614.83787 C 632.5332 616.0112 634.39641 616.97068 636.67382 616.97068 C 638.95124 616.97068 641.40765 616.0112 642.13281 614.83787 C 642.88059 613.62793 641.08841 612.70506 637.99218 612.70506 z M 641.0664 621.51365 C 640.09973 621.51365 639.13371 621.66307 638.40039 621.95897 C 636.93372 622.55078 638.13306 623.03318 641.0664 623.03318 C 643.99973 623.03318 645.19909 622.55078 643.73242 621.95897 C 642.99909 621.66307 642.03306 621.51365 641.0664 621.51365 z M 647.46679 630.04686 C 646.50012 630.04686 645.53411 630.19626 644.80078 630.49217 C 643.33411 631.08398 644.53345 631.56639 647.46679 631.56639 C 650.40012 631.56639 651.59948 631.08398 650.13281 630.49217 C 649.39948 630.19626 648.43345 630.04684 647.46679 630.04686 z M 867.02538 651.1035 C 863.87733 651.1035 864.70637 653.42885 870.61522 661.17576 C 873.66704 665.17691 876.6558 667.95941 877.2578 667.3574 C 878.75574 665.85946 869.46645 651.1035 867.02538 651.1035 z M 933.38085 710.55076 C 933.2511 710.64836 933.10987 710.74351 932.94725 710.83396 L 933.38085 710.83396 L 933.38085 710.55076 z "
       transform="matrix(0.93750001,0,0,0.93750001,-320.66853,-215.88763)" />
    <text
       xml:space="preserve"
       style="font-size:27.5px;line-height:1.25;font-family:Arial;-inkscape-font-specification:Arial;letter-spacing:-2.8125px;stroke-width:0.9375;fill:#1f1c30;fill-opacity:1"
       x="410.52188"
       y="209.36714"
       id="text15627"><tspan
         sodipodi:role="line"
         id="tspan15625"
         style="font-style:normal;font-variant:normal;font-weight:bold;font-stretch:normal;font-size:27.5px;font-family:Arial;-inkscape-font-specification:'Arial Bold';stroke-width:0.9375;fill:#1f1c30;fill-opacity:1"
         x="410.52188"
         y="209.36714">@PathParam</tspan></text>
    <text
       xml:space="preserve"
       style="font-size:45px;line-height:1.25;font-family:Arial;-inkscape-font-specification:Arial;fill:#f57337;fill-opacity:1;stroke-width:0.9375"
       id="text18286"
       transform="translate(9.2334251,-3.3145634)"><textPath
         xlink:href="#path18288"
         id="textPath18292"
         style="font-style:normal;font-variant:normal;font-weight:bold;font-stretch:normal;font-size:45px;font-family:Arial;-inkscape-font-specification:'Arial Bold';fill:#f57337;fill-opacity:1">id=4</textPath></text>
    <path
       style="fill:#fdb835;fill-opacity:1;stroke:#1b208b;stroke-width:3.54375;stroke-opacity:1;opacity:0"
       d="m -133.77672,68.024694 c 28.25321,-10.96982 56.505913,-21.939443 84.758123,-32.908875"
       id="path18288"
       inkscape:path-effect="#path-effect18290"
       inkscape:original-d="M -133.77672,68.024694 C -105.52307,57.05601 -77.270366,46.086388 -49.018597,35.115819" />
  </g>
</svg>
