<?xml version="1.0" encoding="UTF-8" standalone="no"?>
<!-- Created with Inkscape (http://www.inkscape.org/) -->

<svg
   width="31.430475mm"
   height="26.605448mm"
   viewBox="0 0 31.430475 26.605448"
   version="1.1"
   id="svg26816"
   inkscape:version="1.2.2 (732a01da63, 2022-12-09)"
   sodipodi:docname="icon.svg"
   xmlns:inkscape="http://www.inkscape.org/namespaces/inkscape"
   xmlns:sodipodi="http://sodipodi.sourceforge.net/DTD/sodipodi-0.dtd"
   xmlns="http://www.w3.org/2000/svg"
   xmlns:svg="http://www.w3.org/2000/svg">
  <sodipodi:namedview
     id="namedview26818"
     pagecolor="#505050"
     bordercolor="#eeeeee"
     borderopacity="1"
     inkscape:showpageshadow="0"
     inkscape:pageopacity="0"
     inkscape:pagecheckerboard="0"
     inkscape:deskcolor="#505050"
     inkscape:document-units="mm"
     showgrid="false"
     inkscape:zoom="0.76880612"
     inkscape:cx="310.22126"
     inkscape:cy="313.47305"
     inkscape:window-width="1920"
     inkscape:window-height="1017"
     inkscape:window-x="-8"
     inkscape:window-y="-8"
     inkscape:window-maximized="1"
     inkscape:current-layer="layer1" />
  <defs
     id="defs26813" />
  <g
     inkscape:label="Layer 1"
     inkscape:groupmode="layer"
     id="layer1"
     transform="translate(-11.816628,-65.507241)">
    <g
       id="g7475"
       transform="translate(-6.1999488,-12.627042)">
      <path
         id="path4152"
         style="fill:#fdb835;fill-opacity:1;stroke:#1f1c30;stroke-width:1.1;stroke-dasharray:none;stroke-opacity:1"
         d="m 27.899072,78.685636 -9.225793,4.03593 2.040185,7.4073 h 4.258138 v 14.060644 l 17.433045,-0.007 c -0.0031,-4.743635 -0.0015,-9.487008 -0.0015,-14.230655 h 3.72587 l 2.616895,-6.919474 -10.201445,-4.346505 h -0.4439 a 4.9233871,3.858871 0 0 1 0,0.02222 4.9233871,3.858871 0 0 1 -4.923214,3.858679 4.9233871,3.858871 0 0 1 -4.923214,-3.858679 4.9233871,3.858871 0 0 1 0.0016,-0.02222 z" />
      <path
         id="path6640"
         style="fill:#fdb835;fill-opacity:1;stroke:#1f1c30;stroke-width:1.1;stroke-dasharray:none;stroke-opacity:1"
         d="m 28.301269,78.684283 a 4.9233871,3.858871 0 0 0 -0.02325,0.355017 4.9233871,3.858871 0 0 0 4.923214,3.85868 4.9233871,3.858871 0 0 0 4.923214,-3.85868 4.9233871,3.858871 0 0 0 -0.02067,-0.355017 h -0.305924 a 4.8447704,2.4654884 0 0 1 -4.595069,1.687753 4.8447704,2.4654884 0 0 1 -4.595068,-1.687753 z" />
    </g>
  </g>
</svg>
