<?xml version="1.0" encoding="UTF-8" standalone="no"?>
<svg
   height="2039"
   viewBox="0 0 1936 2039"
   width="1936"
   version="1.1"
   id="svg22111"
   sodipodi:docname="injection.svg"
   inkscape:version="1.2.2 (732a01da63, 2022-12-09)"
   xmlns:inkscape="http://www.inkscape.org/namespaces/inkscape"
   xmlns:sodipodi="http://sodipodi.sourceforge.net/DTD/sodipodi-0.dtd"
   xmlns="http://www.w3.org/2000/svg"
   xmlns:svg="http://www.w3.org/2000/svg">
  <defs
     id="defs22115">
    <inkscape:path-effect
       effect="bspline"
       id="path-effect23325"
       is_visible="true"
       lpeversion="1"
       weight="33.333333"
       steps="2"
       helper_size="0"
       apply_no_weight="true"
       apply_with_weight="true"
       only_selected="false" />
  </defs>
  <sodipodi:namedview
     id="namedview22113"
     pagecolor="#505050"
     bordercolor="#eeeeee"
     borderopacity="1"
     inkscape:showpageshadow="0"
     inkscape:pageopacity="0"
     inkscape:pagecheckerboard="0"
     inkscape:deskcolor="#505050"
     showgrid="false"
     inkscape:zoom="0.2992806"
     inkscape:cx="1100.9735"
     inkscape:cy="811.94704"
     inkscape:window-width="1920"
     inkscape:window-height="1017"
     inkscape:window-x="-8"
     inkscape:window-y="-8"
     inkscape:window-maximized="1"
     inkscape:current-layer="svg22111" />
  <path
     style="fill:#fdb835;fill-opacity:1;stroke-width:3.78"
     d="m 795.24167,349.67864 c 0.19654,-2.75692 1.77166,-5.51339 4.52829,-8.66386 2.75663,-3.15047 6.69437,-6.69444 10.23876,-8.86031 3.54439,-2.16586 6.69457,-2.95341 12.20771,-3.54402 5.51314,-0.59062 13.38861,-0.98439 21.46128,-0.78741 8.07268,0.19697 16.34191,0.98452 26.9742,3.54429 10.63229,2.55977 23.62681,6.89128 31.10841,10.82952 7.4816,3.93824 9.45046,7.48221 10.63153,11.6169 1.18106,4.1347 1.57483,8.85998 -1.18176,14.37246 -2.75659,5.51248 -8.66319,11.81286 -12.7979,16.14446 -4.13472,4.3316 -6.49736,6.69424 -8.66324,13.78283 -2.16589,7.08859 -4.13476,18.90179 -4.33143,28.1559 -0.19667,9.25411 1.37843,15.94826 5.71053,21.65794 4.33211,5.70968 11.42003,10.43496 14.96349,14.37292 3.54345,3.93796 3.54345,7.08815 -6e-4,11.61615 -3.54405,4.528 -10.63198,10.43461 -17.7202,17.52284 -7.08822,7.08823 -14.17614,15.35747 -18.90159,23.82416 -4.72546,8.46668 -7.0881,17.1297 -7.67862,27.76213 -0.59052,10.63242 0.5908,23.23317 2.75682,33.47163 2.16602,10.23846 5.31621,18.11393 5.70965,27.56456 0.39343,9.45064 -1.96921,20.47629 -7.67911,60.24895 -5.70989,39.77265 -14.76668,108.28924 -19.88586,146.28921 -5.11918,37.99996 -6.3005,45.48166 -10.23827,51.97865 -3.93776,6.49699 -10.63191,12.00982 -15.16006,14.96316 -4.52816,2.95335 -6.8908,3.34712 -8.07255,6.498 -1.18175,3.15087 -1.18175,9.05748 -2.56008,13.97939 -1.37834,4.9219 -4.13475,8.85964 -6.10366,14.76675 -1.96891,5.90711 -3.15023,13.78258 -3.54392,21.26461 -0.39368,7.48203 9e-5,14.56995 3e-5,21.26424 -7e-5,6.69428 -0.39384,12.99466 -4.5284,18.11329 -4.13455,5.11863 -12.01002,9.05637 -17.52266,9.64758 -5.51264,0.59121 -8.66283,-2.1652 -12.4038,-5.51237 -3.74098,-3.34718 -8.07248,-7.28491 -10.43567,-12.40408 -2.36318,-5.11916 -2.75695,-11.41954 -0.39417,-16.53932 2.36278,-5.11979 7.48183,-9.05752 10.04134,-14.76687 2.5595,-5.70935 2.5595,-13.19105 3.5439,-22.44512 0.98441,-9.25407 2.95328,-20.27973 2.3629,-29.53346 -0.59038,-9.25374 -3.74057,-16.73543 -8.07197,-23.23299 -4.33141,-6.49755 -9.84424,-12.01038 -8.26958,-46.46696 1.57465,-34.45658 10.23767,-97.85411 16.93196,-135.26363 6.69428,-37.40952 11.41956,-48.82895 16.34188,-61.03629 4.92232,-12.20735 10.04138,-25.20187 12.40418,-39.5748 2.36279,-14.37293 1.96902,-30.12387 1.37835,-46.07216 -0.59066,-15.9483 -1.37821,-32.09301 -3.93762,-45.6785 -2.55941,-13.5855 -6.89092,-24.61114 -9.64738,-31.50235 -2.75646,-6.8912 -3.93778,-9.64761 -1.96858,-11.02645 1.9692,-1.37884 7.08825,-1.37884 12.40395,-3.34785 5.3157,-1.96902 10.82853,-5.90675 13.58491,-10.82851 2.75637,-4.92176 2.75637,-10.82837 3.15013,-19.49171 0.39375,-8.66333 1.1813,-20.08277 0.1972,-28.15521 -0.98411,-8.07244 -3.74052,-12.79772 -6.49677,-15.94824 -2.75625,-3.15052 -5.51267,-4.72561 -7.48192,-6.89117 -1.96925,-2.16556 -3.15057,-4.92197 -2.95403,-7.67888 z"
     id="path23323"
     inkscape:path-effect="#path-effect23325"
     inkscape:original-d="m 793.86327,349.67787 c 1.57612,-2.75547 3.15125,-5.51194 4.72537,-8.26941 3.9389,-3.5431 7.87663,-7.08707 11.81345,-10.6321 3.15131,-0.78658 6.3015,-1.57412 9.45075,-2.36269 7.87678,-0.39279 15.75225,-0.78656 23.62688,-1.18134 8.27058,0.78858 16.53982,1.57612 24.80823,2.36269 12.99605,4.33268 25.99057,8.66419 38.98436,12.99478 1.96994,3.54511 3.93881,7.08907 5.90672,10.6321 0.39479,4.72647 0.78856,9.45175 1.18134,14.17613 -5.90584,6.30163 -11.81244,12.602 -17.72016,18.90151 -2.36174,2.36373 -4.72438,4.72637 -7.08807,7.08806 -1.96794,11.81468 -3.93681,23.62788 -5.90672,35.44033 1.57616,6.69541 3.15125,13.38956 4.72538,20.08285 7.08921,4.72647 14.17713,9.45175 21.26419,14.17613 10e-4,3.15131 10e-4,6.3015 0,9.45075 -7.0872,5.90784 -14.17513,11.81444 -21.26419,17.72016 -7.08721,8.27058 -14.17513,16.53982 -21.26419,24.80823 -2.36174,8.66436 -4.72438,17.32738 -7.08807,25.98957 1.18237,12.60226 2.36369,25.20301 3.54403,37.80301 3.15132,7.87679 6.30151,15.75226 9.45076,23.62689 -2.36174,11.0271 -4.72438,22.05275 -7.08807,33.07763 -9.05615,68.52033 -18.11294,137.03692 -27.17091,205.55388 -1.18037,7.483 -2.36169,14.9647 -3.54404,22.44554 -6.69341,5.51405 -13.38756,11.02688 -20.08285,16.53882 -2.36173,0.39479 -4.72437,0.78856 -7.08806,1.18135 10e-4,5.90783 10e-4,11.81444 0,17.72016 -2.75553,3.93889 -5.51194,7.87663 -8.26941,11.81344 -1.18037,7.87678 -2.36169,15.75225 -3.54403,23.62688 0.39479,7.08921 0.78856,14.17713 1.18134,21.2642 -0.39279,6.30162 -0.78656,12.602 -1.18134,18.9015 -7.87479,3.9389 -15.75026,7.87663 -23.62689,11.81344 -3.14931,-2.75552 -6.2995,-5.51193 -9.45075,-8.2694 -4.33068,-3.9369 -8.66219,-7.87463 -12.99479,-11.81345 -0.39278,-6.29962 -0.78656,-12.6 -1.18134,-18.9015 5.12026,-3.9369 10.23932,-7.87463 15.35747,-11.81344 10e-4,-7.481 10e-4,-14.9627 0,-22.44554 1.96995,-11.0251 3.93882,-22.05076 5.90673,-33.07764 -3.14932,-7.48099 -6.29951,-14.96269 -9.45076,-22.44554 -5.51205,-5.51205 -11.02488,-11.02488 -16.53882,-16.53882 8.66437,-63.39907 17.32738,-126.7966 25.98958,-190.1964 4.72647,-11.41889 9.45175,-22.83832 14.17612,-34.25898 5.12027,-12.99405 10.23932,-25.98858 15.35748,-38.98436 -0.39279,-15.75057 -0.78656,-31.50151 -1.18135,-47.25377 -0.78657,-16.14436 -1.57412,-32.28907 -2.36268,-48.43511 -4.33069,-11.0251 -8.66219,-22.05075 -12.99479,-33.07763 -1.18037,-2.75553 -2.36169,-5.51194 -3.54403,-8.26941 5.12026,0.001 10.23931,0.001 15.35747,0 5.51405,-3.9369 11.02688,-7.87463 16.53882,-11.81344 10e-4,-5.90584 10e-4,-11.81245 0,-17.72017 0.78858,-11.41888 1.57613,-22.83832 2.36269,-34.25898 -2.75553,-4.72447 -5.51194,-9.44975 -8.26941,-14.17613 -2.75553,-1.57415 -5.51194,-3.14925 -8.26941,-4.72537 -1.18037,-2.75553 -2.36169,-5.51194 -3.54403,-8.26941 z" />
  <path
     d="m605 2037.2c-19.355-5.2328-29.997-15.694-32.318-31.769-1.5649-10.84-1.0455-10.699-14.21-3.857-5.9699 3.1029-14.706 7.1351-19.413 8.9605-4.7073 1.8255-10.584 4.2107-13.059 5.3006s-7.65 2.2713-11.5 2.6255c-6.2804 0.5777-15.254 2.3064-31.424 6.0533-4.4217 1.0246-6.8245 1.0074-13-0.093-4.1666-0.7426-14.326-2.5307-22.576-3.9736s-17.025-3.0359-19.5-3.54-9.225-1.6017-15-2.4391c-5.775-0.8373-11.964-1.9978-13.754-2.5789-3.5315-1.1465-17.298-4.1919-29.246-6.4696-4.125-0.7864-10.2-1.9436-13.5-2.5717s-9.15-1.9634-13-2.9674-11.725-3.0091-17.5-4.4557c-5.775-1.4467-13.2-3.9364-16.5-5.5327s-7.0178-2.9022-8.2618-2.902-9.344-1.8493-18-4.11-19.13-4.8936-23.275-5.8508c-4.1453-0.9572-8.4289-2.2177-9.519-2.8011-3.1204-1.67-13.931-5.1526-19.693-6.3444-2.8878-0.5972-7.5006-2.3302-10.251-3.851-2.75-1.5208-7.6765-3.5409-10.948-4.4891-3.2712-0.9482-8.4917-3.0082-11.601-4.5778s-8.5328-3.822-12.052-5.0055c-3.5195-1.1835-6.9038-2.568-7.5206-3.0768-0.6169-0.5087-4.365-2.0281-8.3291-3.3763-3.9641-1.3483-8.6344-3.3322-10.378-4.4087-1.744-1.0765-5.4209-2.5019-8.1709-3.1675-4.7308-1.1452-8.7887-2.8837-18-7.7118-8.0214-4.2044-17.253-8.2075-23.188-10.054-3.3404-1.0397-7.5897-3.0437-9.4429-4.4534-1.8532-1.4098-5.8445-3.5267-8.8695-4.7042-3.025-1.1776-8.4521-3.9131-12.06-6.0789-3.608-2.1-6.915-3.9-7.349-3.9-5.3362 0-14.662-9.7854-11.93-12.518 2.033-2.033 2.2782-1.9801 10.542 2.276 4.0136 2.0672 8.8725 4.4975 10.798 5.4008 1.925 0.9033 9.7732 4.837 17.44 8.7415 7.6673 3.9046 14.662 7.0993 15.545 7.0993 0.88245 0 8.3342 3.3308 16.56 7.4019 8.2253 4.071 17.655 8.1671 20.955 9.1024 3.3 0.9354 7.8057 2.7359 10.013 4.0012 2.207 1.2654 6.707 3.0654 10 4 3.293 0.9347 7.8818 2.7867 10.197 4.1156 2.3154 1.3289 8.3904 3.9342 13.5 5.7897 19.268 6.9967 27.829 10.385 30.251 11.972 1.3744 0.9005 7.8774 2.9507 14.451 4.556 6.5738 1.6052 12.812 3.3788 13.863 3.9412 1.0509 0.5624 6.8189 2.1477 12.818 3.5229 14.689 3.3673 39.737 11.014 42.565 12.995 1.2581 0.8812 3.2954 1.6022 4.5274 1.6022s4.6194 0.8707 7.5275 1.9349c2.9081 1.0643 7.3125 2.4311 9.7875 3.0376 2.475 0.6064 6.075 1.7763 8 2.5997 5.6236 2.4057 52.629 11.955 88 17.878 11.825 1.9801 23.75 4.0176 26.5 4.5278 41.245 7.6517 77.901-3.6862 137.5-42.53 5.225-3.4054 15.575-9.559 23-13.675 24.673-13.676 40.274-23.998 42.5-28.118 2.1394-3.9599 10.211-9.818 21.5-15.604 9.8739-5.0604 24.477-15.597 34.5-24.894 4.95-4.5912 12.016-10.313 15.702-12.716 20.42-13.308 37.175-43.75 78.401-142.44 6.7358-16.125 7.6353-15.199-15.119-15.573-18.876-0.3101-45.4-2.8094-52.484-4.9455-4.1855-1.262-9.0155-1.9282-32.5-4.4827-4.95-0.5384-13.95-1.5318-20-2.2076-7.3157-0.8171-30.761-1.2686-70-1.3479-62.212-0.1259-86.49-0.7466-98-2.5057-3.85-0.5884-11.05-1.6857-16-2.4385s-15.3-1.8776-23-2.4996c-24.244-1.9582-30.17-2.8359-36.171-5.3572-3.2059-1.3471-8.529-3.2184-11.829-4.1586-42.231-12.032-60.596-48.334-43.855-86.688 3.2847-7.5249 19.857-17.921 36.355-22.805 4.125-1.2213 8.9375-2.8246 10.695-3.563 10.933-4.595 22.901-5.2452 82.805-4.4986 19.853 0.2474 65.025-0.6493 76-1.5087 3.85-0.3014 17.35-0.9671 30-1.4792s29.75-1.8325 38-2.9343 19.725-2.4494 25.5-2.9947 11.625-1.2592 13-1.5864c10.683-2.5425 29.2-3.497 86.5-4.459 34.1-0.5724 63.641-1.4783 65.647-2.013 4.295-1.1452 4.0939-0.7198 8.4478-17.867 4.8986-19.292 4.7313-20.121-4.2813-21.193-3.1971-0.3804-10.088-1.1956-15.313-1.8114-9.2033-1.0848-31.719-0.6241-85.5 1.7494-18.995 0.8383-52.787-0.058-65-1.7244-12.93-1.7641-49.751-2.8151-66.5-1.898-10.132 0.5547-21.967 0.447-34.171-0.3111-18.57-1.1534-18.69-1.1476-22.293 1.0788-4.3184 2.6689-7.5969 2.1143-21.486-3.635-4.6654-1.9312-12.095-4.6527-16.511-6.0476-4.4158-1.395-10.281-3.5265-13.034-4.7366-7.8705-3.4598-48.168-15.481-67.505-20.137-5.775-1.3906-14.1-3.4581-18.5-4.5944s-12.275-3.0839-17.5-4.3279-13.775-3.3947-19-4.7793c-22.47-5.9546-63.204-12.956-83-14.267-5.225-0.3459-12.875-1.2914-17-2.1013-7.2312-1.4196-16.092-2.3913-39.5-4.3316-29.666-2.4591-36.38-3.1922-41-4.4765-2.75-0.7645-8.15-1.6676-12-2.0069-13.094-1.154-37.973-4.6517-46.5-6.5374-4.675-1.0338-13.45-2.1372-19.5-2.452-6.05-0.3147-14.15-1.0032-18-1.53s-10.808-1.4589-15.462-2.0715c-4.6543-0.6125-9.8293-1.8318-11.5-2.7095-1.8021-0.9467-9.5454-2.313-19.038-3.3592-16.217-1.7874-23.729-3.2827-37.802-7.5249-4.322-1.2-9.235-2.3-10.949-2.3-10.553 0-21.277-3.547-22.795-7.5392-2.1272-5.595 1.5079-7.4198 8.9428-4.4892 2.8371 1.1182 9.0764 2.7076 13.865 3.5318 14.429 2.4834 19.573 3.6563 22.399 5.1066 1.4808 0.76 5.5308 1.8023 9 2.3161 27.553 4.0813 33.798 5.1677 36.839 6.4089 1.9075 0.7784 10.218 2.1791 18.468 3.1126s17.16 2.1147 19.799 2.6248c2.6396 0.5102 7.141 0.9276 10.003 0.9276 2.8622 0 8.1275 0.8325 11.701 1.85 3.5732 1.0175 9.4218 2.1609 12.997 2.541 16.703 1.7757 47.858 5.7991 51 6.5864 1.925 0.4822 14.525 1.8317 28 2.9987 27.432 2.3759 38.253 3.6185 48.5 5.5697 23.528 4.4799 24.798 2.9512 19.568-23.546-4.2557-21.56-5.6077-33.431-8.542-75-4.4009-62.346-4.0489-60.03-9.4978-62.487-10.37-4.6762-13.978-12.511-15.108-32.803-1.2561-22.56-4.0745-36.178-12.772-61.71-2.1545-6.325-4.5867-13.525-5.4048-16-2.9919-9.051-5.1244-19.616-4.8884-24.217 0.13308-2.5945-0.43763-6.8695-1.2682-9.5-7.3708-23.343-10.9-30.311-22.229-43.886-38.46-46.1-51.69-130.13-31.39-199.4 1.0476-3.575 2.3293-8.75 2.848-11.5 3.9214-20.787 17.542-65.124 25.72-83.725 1.9036-4.3294 3.461-8.3374 3.461-8.9067 0-0.56924 1.4068-4.4849 3.1262-8.7016 4.73-11.59 10.88-29.23 10.88-31.19 0-0.9582 2.8788-10.457 6.3972-21.109 6.4536-19.537 8.2098-26.532 11.015-43.867 2.7348-16.902 4.7188-28.251 7.0802-40.5 1.2724-6.6 2.631-14.025 3.0193-16.5 1.1852-7.5554 5.1398-21.167 7.9895-27.5 1.485-3.3 3.7543-8.7985 5.0431-12.219 9.4683-25.13 43.029-68.638 68.868-89.281 3.7864-3.025 10.08-8.1794 13.986-11.454 11.084-9.2928 43.621-42.721 55.038-56.546 14.265-17.273 18.76-20.747 13.884-10.728-4.3184 8.8723-48.613 57.663-59.218 65.228-1.5419 1.1-8.5752 7.175-15.629 13.5-29.545 26.49-37.046 35.356-57.968 68.51-7.8686 12.469-10.658 18.616-19.505 42.99-1.6965 4.6736-4.309 16.309-7.073 31.5-0.65046 3.575-1.7869 9.65-2.5254 13.5-2.2842 11.908-4.5501 25.702-5.3388 32.5-0.86212 7.4304-8.3079 36.61-10.397 40.745-1.4142 2.7996-4.2996 11.535-9.1676 27.755-2.9086 9.6914-10.171 29.895-16.535 46-5.77 14.61-12.96 34.46-12.96 35.79 0 0.63387-1.3031 5.4404-2.8957 10.681-1.5926 5.2408-4.348 15.829-6.123 23.529s-4.2714 17.825-5.5476 22.5-2.7819 11.875-3.346 16-1.5368 11.1-2.1616 15.5c-1.9848 13.979-1.7381 63.268 0.37539 75 4.1467 23.017 8.8067 39.911 13.601 49.31 1.1498 2.2537 3.027 6.6006 4.1715 9.6596s3.0849 6.7923 4.312 8.2962 3.2156 4.4451 4.419 6.5359c1.2034 2.0909 5.5802 8.0626 9.7263 13.271 9.951 12.5 12.958 17.382 15.594 25.319 1.2071 3.6347 3.4523 8.1836 4.9893 10.109 4.9524 6.2026 5.6911 9.3452 5.6584 24.072-0.03 13.508-0.008 13.639 4.6025 27.5 4.2186 12.683 6.5988 20.753 11.186 37.928 0.88144 3.3 2.0062 10.95 2.4994 17 1.4548 17.846 2.6799 19.266 8.619 9.9875 10.756-16.804 36.554-47.324 50.565-59.822 17.056-15.214 33.263-29.446 37.769-33.166 2.6647-2.2 9.489-7.8474 15.165-12.55 5.6761-4.7024 11.895-9.6223 13.82-10.933 1.925-1.3109 7.55-5.3774 12.5-9.0366 9.891-7.3118 25.273-17.499 44.5-29.472 6.875-4.2811 17.693-11.21 24.04-15.396 17.348-11.444 83.638-43.817 109.46-53.456 42.021-15.686 63.239-22.262 79.5-24.639 13.291-1.943 35.228-4.122 35.795-3.5554 2.2844 2.2844-12.163 6.9365-24.795 7.9843-11.708 0.97105-17.313 2.3078-34.5 8.2281-8.8 3.0312-18.25 6.2101-21 7.0643-5.2353 1.6261-24.432 8.8516-33 12.421-18.839 7.8484-23.727 9.9404-29.5 12.627-3.575 1.6634-10.55 4.821-15.5 7.0169-12.037 5.3396-32.512 14.948-35 16.424-1.1 0.6527-4.475 2.4879-7.5 4.0783s-9.775 5.6957-15 9.1228c-5.225 3.4272-10.907 7.0954-12.626 8.1517-1.7192 1.0563-5.0942 3.2372-7.5 4.8464-4.3075 2.8814-7.0152 4.6128-21.874 13.987-15.185 9.5798-19.678 12.571-27.81 18.511-4.5706 3.3386-9.1841 6.5378-10.252 7.1094-3.1359 1.6783-29.853 23.811-46.277 38.336-6.1381 5.4285-13.547 11.954-16.464 14.5-37.885 33.069-72.418 82.764-63.624 91.559 2.1581 2.1581 3.1139 1.9813 5.0205-0.9286 4.9154-7.5019 6.5262-0.013 9.3566 43.5 1.5508 23.842 3.0556 42.83 3.8039 48 0.35821 2.475 0.70477 6.975 0.77014 10 0.16004 7.4069 1.3496 18.002 2.9755 26.5 0.73654 3.85 2.3036 13.075 3.4823 20.5 4.6863 29.52 4.2643 28.647 14.52 30.031 3.85 0.5196 9.925 1.6033 13.5 2.4083 5.9659 1.3434 16.933 3.1413 26.25 4.3034 4.5231 0.5641 4.6676-0.2328 1.7371-9.5815-6.691-21.345 0.41721-41.884 18.062-52.19 15.821-9.2401 39.698-15.59 74.951-19.935 9.1852-1.1318 49.179-2.6232 95.5-3.5612 15.95-0.3229 32.588-1.0121 36.974-1.5314 4.3856-0.5193 10.859-0.9442 14.385-0.9442s9.3878-0.4956 13.026-1.1014c11.825-1.9687 37.385-6.8046 47.115-8.9142 5.225-1.1328 13.55-2.4528 18.5-2.9333 4.95-0.4804 13.05-1.7722 18-2.8706s11.475-2.4822 14.5-3.0751c17.456-3.4213 19.123-4.1885 12.75-5.8678-4.2524-1.1205-28.316 0.2577-37.25 2.1335-3.85 0.8084-11.5 1.9932-17 2.6329s-15.175 2.4516-21.5 4.0266c-14.917 3.7145-22.467 5.0635-33.5 5.9864-4.95 0.4141-14.85 1.4902-22 2.3914-13.609 1.7154-37.266 1.4464-46.382-0.5274-2.9952-0.6485-5.4641-0.5918-7.7998 0.1791-20.639 6.8115-34.445-42.689-21.911-78.56 0.76874-2.2 1.6348-5.35 1.9246-7 2.1136-12.034 16.302-27.807 38.169-42.432 8.7847-5.8753 42.681-17.982 59-21.072 2.2-0.4167 6.25-1.254 9-1.8607 30.122-6.6459 51.128-9.6875 87.5-12.67 6.4188-0.5263 23.348-3.9221 37.5-7.522 12.483-3.1754 31.193-5.1008 54.89-5.6488 31.241-0.7224 33.229-3.257 26.115-33.295-0.71649-3.025-1.5829-7.975-1.9254-11-0.69417-6.1315-2.992-17.64-5.1912-26-0.79577-3.025-2.1213-9.325-2.9457-14-0.82435-4.675-1.9008-10.75-2.3922-13.5-0.49138-2.75-2.3374-10.175-4.1024-16.5-1.7649-6.325-3.7968-14.2-4.5152-17.5-6.9083-31.733-7.5841-39.5-3.4368-39.5 3.074 0 8.0038 11.578 8.0038 18.797 0 1.5551 1.3327 6.7701 2.9615 11.589 1.6288 4.8187 3.868 12.945 4.976 18.059 3.5871 16.556 4.5122 17.525 8.563 8.962 7.3005-15.432 8.3007-46.147 2.062-63.322-1.29-3.64-5.39-13.8-9.08-22.6-12.78-30.48-14.19-36.5-8.55-36.5 2.5282 0 3.8071 1.8005 5.0011 7.0409 0.55881 2.4525 5.1417 14.584 10.184 26.959 6.3706 15.634 9.898 25.857 11.56 33.5 1.3152 6.05 2.8508 13.025 3.4126 15.5 2.6143 11.518 2.4613 13.124-2.6402 27.717-5.2112 14.907-9.3505 21.06-13.447 19.988-3.2713-0.8555-3.4233 3.2365-0.57659 15.522 1.4365 6.1996 2.6078 12.251 2.6029 13.448-0.005 1.1971 0.85787 6.5971 1.9173 12s2.8734 16.798 4.031 25.324c4.2799 31.519 4.957 35.343 6.5378 36.925 3.4064 3.41 80.54 0.2511 120.5-4.9351 4.125-0.5353 12-1.4603 17.5-2.0555 5.5-0.5951 13.825-1.7173 18.5-2.4937 30.742-5.1051 55.959-5.9783 71-2.4585 11.196 2.62 48.657 12.48 55.079 14.497 24.37 7.6538 49.161 10.23 106.34 11.051 21.404 0.3072 39.292 0.7905 39.751 1.0738 0.4584 0.2833 10.396 0.4971 22.083 0.475 11.687-0.022 37.991 0.3932 58.454 0.923 32.952 0.8531 51.354 1.8913 89.295 5.0377 5.775 0.4789 20.4 1.3369 32.5 1.9067 22.6 1.0643 54.598 4.144 67 6.4484 20.4 3.7906 53.538-1.2626 75-11.437 14.506-6.8766 26.291-11.877 39.736-16.859 7.2955-2.7034 15.794-6.0504 18.886-7.4377 3.0918-1.3873 7.2653-2.8308 9.2744-3.2077 5.4651-1.0252 6.804-3.5347 4.9681-9.3114-3.6008-11.33-4.0468-10.203 10.381-26.234 13.006-14.452 30.027-30.771 44.752-42.908 4.3376-3.575 10.388-8.7859 13.444-11.58 3.0568-2.7938 11.408-9.5146 18.558-14.935 7.15-5.4205 15.043-11.685 17.541-13.92 2.4974-2.2356 11.22-9.6898 19.383-16.565 24.297-20.463 33.234-28.734 39.794-36.829 3.4191-4.2192 8.8768-10.47 12.128-13.89 3.2514-3.4202 8.2164-9.5649 11.033-13.655 14.164-20.565 24.504-30.762 28.872-28.473 2.6567 1.3921 2.5475 1.5809-9.5194 16.455-6.1982 7.6402-12.383 15.466-13.743 17.391-4.8796 6.9045-29.373 33.656-37.997 41.5-28.248 25.693-40.338 36.128-54.449 47-2.8557 2.2-9.4331 7.2665-14.616 11.259-5.1834 3.9924-12.799 10.179-16.924 13.748-4.125 3.5688-10.425 8.9161-14 11.883-12.383 10.276-49 49.162-49 52.036 0 0.732 0.7528 3.0734 1.6728 5.2031 1.4236 3.2953 1.6345 7.1102 1.4159 25.611-0.3953 33.458 8.772 81.872 19.475 102.85 0.7264 1.4237 4.0664 10.874 7.4221 21 7.2167 21.777 23.023 54.88 35.586 74.529 1.7997 2.8145 5.1593 8.8895 7.466 13.5 11.032 22.05 45.881 69.957 83.304 114.52 8.7134 10.375 17.183 21.114 18.822 23.864 13.317 22.348 18.423 32.527 17.509 34.908-1.352 3.5234-4.3708-0.3518-22.316-28.647-1.3041-2.0563-6.5305-8.5019-11.614-14.324-25.25-28.915-37.453-44.568-68.16-87.43-12.319-17.195-38.498-60.935-47.587-79.508-3.4989-7.15-7.5171-15.025-8.9292-17.499-1.4122-2.4747-3.07-6.2997-3.684-8.5s-2.7484-8.2756-4.7429-13.501c-7.3985-19.381-15.469-42.738-17.45-50.5-8.8293-34.605-12.587-57.28-13.704-82.689-0.458-10.418-2.0786-11.019-14.443-5.354-4.1494 1.9012-15.419 6.6786-25.044 10.616-9.625 3.9379-20.425 8.661-24 10.496-13.085 6.7156-26.735 10.751-40 11.824-4.125 0.3339-10.637 1.2795-14.472 2.1012-9.2999 1.9929-45.511-0.2563-53.592-3.3287-1.3608-0.5174-12.59-1.2602-24.955-1.6508-12.364-0.3907-28.556-1.345-35.981-2.1207-7.425-0.7758-22.05-1.8413-32.5-2.3678s-21.475-1.2283-24.5-1.5596c-5.851-0.6407-19.806-1.0331-69.5-1.9538-17.05-0.316-42.7-1.0366-57-1.6014-14.3-0.5649-36.575-0.922-49.5-0.7937-39.923 0.3962-62.814-2.2542-96.5-11.173-11.778-3.1186-19.62-4.7592-28.457-5.9536-4.6513-0.6287-11.176-2.2622-14.5-3.63-13.232-5.4455-47.601-7.3948-66.654-3.7805-4.5828 0.8694-9.5411 1.3389-11.018 1.0434-1.4774-0.2954-4.19-0.071-6.0282 0.498-3.764 1.1659-23.099 3.4218-41.842 4.8818-6.875 0.5355-14.075 1.4556-16 2.0445-1.925 0.589-14.975 1.4802-29 1.9804-14.025 0.5003-30 1.3804-35.5 1.9558-5.5 0.5755-18.775 1.047-29.5 1.0478-47.558 0-74.803 1.6405-90 5.4071-3.025 0.7497-7.3 1.6659-9.5 2.0359s-7.9861 1.785-12.858 3.1443c-5.2208 1.4567-14.049 2.8827-21.5 3.4727-18.486 1.4638-20.057 1.6298-26.642 2.8156-3.3 0.5943-9.8405 1.0831-14.534 1.0863-6.0485 0-13.154 1.0253-24.395 3.5058-8.7231 1.925-17.267 3.5-18.987 3.5-1.7198 0-6.2672 0.9325-10.105 2.0723-3.8381 1.1397-11.253 3.1841-16.478 4.5431-5.225 1.3591-10.85 2.9588-12.5 3.5549-1.65 0.5962-7.1177 2.5715-12.15 4.3895-11.747 4.2437-17.903 7.3896-23.328 11.922-2.3963 2.002-5.5189 4.2434-6.9392 4.9809-10.477 5.4403-22.281 23.541-24.492 37.556-5.1594 32.704-3.6583 46.761 6.6441 62.219 4.7872 7.183 3.1297 6.8786 34.766 6.3854 29.64-0.462 52.348-2.7319 74.5-7.4467 10.435-2.2209 41.04-6.0764 47.5-5.9838 1.375 0.02 6.775-0.5123 12-1.1824 8.8492-1.1348 13.859-0.9915 27.924 0.7988 4.6514 0.5921 5.6587 1.116 7.0756 3.68l1.6521 2.9896 29.424 0.2075c18.115 0.1278 37.112-0.3531 49.424-1.2512 48.669-3.5497 90.923-1.7352 101.51 4.3594 9.5297 5.4842 43.727 7.9773 48.965 3.5697 5.6924-4.7898 12.157 1.6688 7.0799 7.0732-2.4231 2.5793-11.728 4.8919-16.619 4.1305-1.6169-0.2518-6.5398-0.976-10.94-1.6095-4.4-0.6334-12.275-1.9786-17.5-2.9892s-13.775-2.5591-19-3.4412-11.75-2.0244-14.5-2.5384c-2.75-0.5139-7.25-1.1988-10-1.5219s-7.6106-1.3014-10.801-2.1739c-5.0577-1.3832-8.0058-1.441-23-0.4507-35.704 2.3579-71.061 3.4625-80.459 2.5135-12.834-1.2959-48.67 0.699-63.74 3.5481-13.141 2.4844-32.934 6.4211-41.5 8.254-32.32 6.9155-39.566 8.1889-61.5 10.808-11.824 1.4119-48.416 3.0678-78 3.5298-14.3 0.2233-31.625 0.8665-38.5 1.4293s-18.35 1.4958-25.5 2.0733c-15.05 1.2155-15.203 1.2378-35 5.1018-14.114 2.7546-28.5 7.8489-28.5 10.092 0 0.4437 6.4125 0.8112 14.25 0.8166 20.298 0.014 26.285 3.1772 33.378 17.636 6.6951 13.648 0.3357 51.354-8.6611 51.354-4.305 0-4.2367-3.4913 0.25645-13.1 8.2086-17.554 6.5827-35.154-4.0764-44.123-9.5789-8.0601-58.838-3.0762-63.765 6.4515-0.86754 1.6777-2.0457 7.6807-2.618 13.34l-1.0407 10.29 3.0185 6.3205c1.6602 3.4763 3.3052 7.2619 3.6557 8.4124 1.7172 5.637 14.025 9.8329 52.103 17.763 27.44 5.7147 63.688 15.704 71.694 19.758 5.4715 2.7705 18.629 6.8868 22.013 6.8868 1.6235 0 5.839 1.155 9.3677 2.5668 3.9063 1.5627 8.8624 2.6751 12.671 2.8439 3.44 0.1524 12.78 1.062 20.755 2.0213 12.036 1.4479 20.022 1.6596 47 1.246 34.453-0.5281 60.375 0.8071 76.997 3.9661 8.9986 1.7102 23.344 1.5687 72.503-0.7151 81.399-3.7817 156.31 0.3959 172.84 9.6398 2.4842 1.3884 8.2605 3.7957 12.836 5.3494 28.344 9.6245 33.167 12.711 60.32 38.606 27.562 26.284 31.898 30.035 39.631 34.288 11.707 6.4383 12.994 9.8197 2.5859 6.794-6.5183-1.895-11.465-5.188-24.173-16.092-5.4759-4.6985-12.578-10.224-15.783-12.278-3.2045-2.0547-10.649-7.1557-16.544-11.336-22.792-16.163-36.448-19.852-54.218-14.647-3.025 0.886-11.575 2.3542-19 3.2626-7.425 0.9085-16.2 2.2537-19.5 2.9895-33.242 7.4112-45.01 8.3883-108.5 9.0084-58.501 0.5713-69.993 0.9867-85.297 3.083-14.395 1.9718-39.759 5.1008-55.703 6.8718-6.875 0.7636-14.075 1.8419-16 2.3963s-13.625 1.2648-26 1.5786-31.725 0.9522-43 1.4185c-11.275 0.4664-33.325 0.647-49 0.4014-70.743-1.1084-88.833 0.7218-108.5 10.977-2.2 1.1472-6.025 3.1096-8.5 4.3609-7.0412 3.5599-15.942 13.171-16.633 17.961-0.3125 2.1661-1.423 6.3178-2.4677 9.2259-8.1758 22.758 15.608 56.966 42.259 60.781 2.388 0.3418 11.092 1.9871 19.342 3.6561 8.25 1.6691 18.6 3.1607 23 3.3146s16.1 1.2298 26 2.3908c9.9 1.1611 24.268 2.5258 31.929 3.0328 7.6607 0.507 15.536 1.1733 17.5 1.4808 12.049 1.886 32.503 2.8077 78.071 3.5183 51.502 0.803 78.92 2.7077 102 7.0858 32.711 6.2049 66 7.3443 119.5 4.0902 101.01-6.1437 170.59-4.4776 179.36 4.2946 3.5709 3.5708-5.4005 4.1383-16.361 1.035-2.75-0.7787-9.5-1.5399-15-1.6916l-10-0.2759 0.11881 3.5c0.0653 1.925 0.45464 6.425 0.86509 10 0.63647 5.5436 0.35672 7.7739-1.9012 15.158-4.069 13.306-5.7042 14.75-33.583 29.636-4.675 2.4964-9.7201 5.3822-11.211 6.4129-1.4912 1.0307-5.2159 2.7357-8.2771 3.7889s-8.1411 3.499-11.289 5.435c-3.1476 1.936-13.148 6.618-22.223 10.404-9.075 3.7864-20.55 8.9134-25.5 11.393-4.95 2.48-12.375 5.9481-16.5 7.7068-16.934 7.22-31.771 15.537-42.718 23.947-6.1699 4.7396-14.72 10.956-19 13.815-4.2801 2.8587-9.6161 6.5055-11.858 8.1039-6.6741 4.7589-40.605 21.196-49.924 24.185-3.9331 1.2614-18.571 11.614-27.598 19.519-5.5484 4.8586-23.201 16.641-38.902 25.966-15.541 9.2296-15.809 9.7526-7.42 14.487 23.192 13.089 12.562 53.054-17.273 64.942-2.6436 1.0533-6.8316 3.0424-9.3066 4.4202-7.2765 4.0509-12.759 5.3495-14.641 3.468-2.4745-2.4745-0.16377-5.3625 5.8812-7.3506 37.009-12.171 51.457-38.601 30.349-55.516-3.6303-2.9091-7.2835-6.3316-8.1182-7.6056-2.0648-3.1512-2.2772-3.0883-11.161 3.3052-4.2959 3.0918-8.9358 6.1151-10.311 6.7185-6.223 2.7307-24.059 13.902-24.998 15.657-0.5739 1.0723-4.8997 4.3062-9.6129 7.1863-31.517 19.259-1.7202 54.55 39.611 46.915 4.125-0.762 11.1-1.5063 15.5-1.654 9.2334-0.3099 38.582-10.062 61.5-20.434 3.575-1.618 9.875-4.2554 14-5.8607 4.125-1.6054 13.125-5.6236 20-8.9293 12.415-5.9698 29.571-13.22 31.282-13.22 0.49145 0 5.9165-1.9819 12.056-4.4041 6.1392-2.4223 16.562-6.4866 23.162-9.0317s14.512-5.7295 17.582-7.0764 8.695-3.4034 12.5-4.57c3.805-1.1665 10.518-3.6253 14.918-5.4639 18.485-7.724 31.929-12.556 47-16.891 8.8-2.5315 20.725-6.217 26.5-8.1902 5.775-1.9731 19.95-6.5072 31.5-10.076 25.672-7.9318 37.309-11.999 62.5-21.846 10.725-4.1921 22.2-8.6431 25.5-9.8912 3.3-1.248 11.52-4.3543 18.266-6.9029 6.7463-2.5486 18.058-7.5641 25.137-11.145 7.0789-3.5814 13.144-6.5116 13.478-6.5116 1.0523 0 20.79-8.961 28.738-13.048 4.1904-2.1544 10.005-4.4288 12.921-5.0541 2.9159-0.6254 8.9374-2.5961 13.381-4.3795 11.127-4.4655 11.815-4.5197 58.579-4.6116 40.529-0.08 45.706-0.3697 69-3.8645 3.575-0.5364 8.75-1.6605 11.5-2.498 2.75-0.8376 6.7481-1.5277 8.8847-1.5337 4.0391-0.011 11.808-1.1276 24.615-3.5371 4.125-0.7761 10.425-1.653 14-1.9488 8.6967-0.7196 40.247-6.0322 50.931-8.5762 10.839-2.5807 35.995-7.7069 46.947-9.5664 4.608-0.7824 8.7404-1.6465 9.1832-1.9201 0.4428-0.2737 5.6727-1.808 11.622-3.4096 48.792-13.135 78.862-23.537 117.32-40.583 22.937-10.167 37.782-16.851 43.5-19.584 36.449-17.422 81.204-31.395 116.5-36.372 9.617-1.3559 31.28-5.8707 48-10.004 9.625-2.3792 19.525-4.6433 22-5.0314 11.054-1.7332 51.932-17.867 76.5-30.194 27.583-13.84 42.895-20.454 45.256-19.548 5.3 2.0338-7.2358 9.2063-65.756 37.623-8.9477 4.3449-28.274 11.64-30.837 11.64-1.0002 0-5.8099 1.567-10.688 3.4822-4.8784 1.9151-13.843 4.6633-19.922 6.1071-6.0787 1.4437-15.307 3.7018-20.507 5.0178-5.2002 1.3161-10.6 2.3961-12 2.3999-1.3999 0-6.3702 0.9444-11.045 2.09-8.2914 2.0319-20.884 4.1856-34 5.8152-3.575 0.4441-10.35 1.9834-15.056 3.4206-4.7056 1.4371-11.773 3.2897-15.705 4.1168s-11.332 3.2702-16.444 5.429c-30.063 12.695-36.735 15.408-40.795 16.591-2.475 0.7212-11.025 4.483-19 8.3595-7.975 3.8766-19.208 8.8789-24.961 11.116-5.7537 2.2374-12.054 5.1205-14 6.4069-3.1175 2.0604-19.578 9.1538-37.539 16.177-3.3 1.2903-12.075 4.227-19.5 6.526s-16.089 5.027-19.254 6.0623c-3.1647 1.0352-6.7519 1.8822-7.9716 1.8822-2.4336 0-27.871 6.77-39.792 10.591-4.1349 1.3252-9.002 2.4094-10.816 2.4094-1.8138 0-4.1634 0.4632-5.2213 1.0294s-8.5658 2.3687-16.684 4.0056c-8.1185 1.6369-16.754 3.6487-19.189 4.4706-2.4355 0.8219-6.2605 1.5021-8.5 1.5115-2.2396 0.01-7.4469 0.9018-11.572 1.9829-4.125 1.0811-8.9226 1.9734-10.661 1.9829-1.7388 0.01-7.9226 1.1421-13.742 2.5171-5.8192 1.375-12.497 2.5083-14.839 2.5184-2.342 0.01-8.0832 0.7043-12.758 1.5426-4.675 0.8382-13.9 2.4079-20.5 3.4882-6.6 1.0802-18.975 3.2772-27.5 4.8822-21.616 4.0696-35.615 5.058-64.5 4.5541-46.999-0.82-49.718-0.7794-55 0.8209-22.03 6.6748-39.969 13.805-61.035 24.261-12.669 6.2881-23.469 11.433-24 11.432-0.5309-0.0002-3.6652 1.3393-6.9652 2.9767-6.4782 3.2143-18.03 7.7522-37 14.534-6.6 2.3597-15.825 5.9605-20.5 8.0018s-11.425 4.744-15 6.0059-8.525 3.0068-11 3.8776c-11.01 3.8737-22.822 7.5116-26.5 8.1618-2.2 0.3889-9.4906 2.8692-16.201 5.5118-6.7108 2.6427-20.211 7.0683-30 9.8348-9.7892 2.7665-23.199 7.1174-29.799 9.6687s-15.522 5.9149-19.828 7.4747c-4.3052 1.5598-8.4288 3.3349-9.1636 3.9448-0.73484 0.6099-4.6374 2.1787-8.6724 3.4862s-10.486 3.5666-14.336 5.0201c-7.9976 3.0194-23.736 8.6566-33.97 12.168-3.8334 1.3152-7.8834 2.9796-9 3.6988s-5.6495 2.4671-10.073 3.8843-11.398 4.1318-15.5 6.0324c-4.1015 1.9007-9.9323 4.2558-12.957 5.2336-3.025 0.9777-11.8 4.8971-19.5 8.7098s-18.725 8.6298-24.5 10.705c-5.775 2.075-12.525 4.8174-15 6.0943s-7.2 3.1211-10.5 4.0983c-3.3 0.9771-10.05 3.1636-15 4.8588-22.59 7.7363-54.798 11.662-67.5 8.2281zm158.91-173.34c11.938-6.3085 26.947-15.997 40.094-25.88 20.624-15.505 42.555-26.767 88.5-45.447 49.268-20.032 80.98-37.64 86.146-47.833 3.6962-7.294 3.294-26.002-0.65028-30.248l-2.4953-2.6858-28.5 0.6476c-26.299 0.5976-43.51 1.1175-68 2.0538-60.13 2.2988-57.028 1.2328-64.951 22.32-1.591 4.2344-4.3159 11.074-6.0552 15.199s-4.6434 11.55-6.4536 16.5c-4.4735 12.233-26.496 59.444-32.323 69.293-9.8982 16.73-12.546 20.821-15.83 24.46-3.2933 3.6488-4.0869 5.7141-2.7206 7.0804 1.0155 1.0156 0.87888 1.0719 13.24-5.4601zm127.85-314.89c5.3591-1.1027 12.669-2.681 16.244-3.5073 3.575-0.8264 11.807-2.1798 18.294-3.0076 25.195-3.2152 30.866-6.2611 18.497-9.9345-6.094-1.8097-8.7908-4.0033-8.7908-7.1503 0-3.4365-2.492-4.2468-18.199-5.9176-7.8653-0.8366-16.326-1.9938-18.801-2.5715-16.89-3.9421-24.357-2.4375-25.883 5.2155-1.5449 7.7463-3.3415 14.271-5.2536 19.079-4.605 11.579-0.69653 12.854 23.893 7.7945zm-132.21 394.89c-3.0271-3.5975-2.978-6.2296 0.12447-6.6739 2.3554-0.3372 7.3343 5.1964 7.3343 8.1516 0 2.875-4.5556 1.9724-7.4588-1.4777zm-46.442-7.4681c-3.1074-3.9505-3.6282-8.6503-1.452-13.105 2.5896-5.3011 5.5686-5.2068 6.5285 0.2065 2.3408 13.2-0.0537 19.284-5.0766 12.899zm54.258-7.5958c-6.633-10.458-14.806-33.789-12.365-35.298 1.4259-0.8812 14.99 28.47 15.322 33.154 0.20354 2.8733-1.6447 4.2132-2.9573 2.1439zm114.32-30.608c-0.93565-1.0339-2.8058-4.6986-4.156-8.1437-3.9365-10.045-7.3187-15.149-14.316-21.606-7.6631-7.071-7.5642-8.4497 0.60529-8.433l5.691 0.012 7 14.698c3.85 8.0839 8.0631 16.273 9.3624 18.198 3.4552 5.1195-0.18104 9.7006-4.1866 5.2746zm16.485-3.7414c-0.63829-1.4008-1.1654-3.5383-1.1713-4.75-0.006-1.2116-0.64128-4.2801-1.4118-6.8189-2.1358-7.0368-2.3861-12.384-0.57983-12.384 1.0057 0 2.0808 2.2764 3.3058 7 0.99847 3.85 2.4637 9.0854 3.256 11.634 2.3764 7.6443-0.37647 11.952-3.3988 5.3187zm-57.17-32.7c-3.5426-4.8905-3.7652-7.4132-0.92135-10.44 1.1467-1.2206 2.5074-4.1746 3.0239-6.5644 1.3941-6.4516 2.9604-9.8452 4.5439-9.8452 2.3321 0 2.4963 2.2044 0.86196 11.568-0.90996 5.213-1.2876 10.748-0.90682 13.293 0.47626 3.1832 0.27978 4.5965-0.72773 5.2346-2.2126 1.4014-2.7048 1.1294-5.8738-3.2452zm272.99-46.4c0-2.9652 10.64-23.775 14.934-29.206 6.9681-8.8152 14.183-11.731 7.8775-3.1836-1.818 2.4643-6.7305 11.006-10.917 18.981-7.3786 14.057-11.895 19.148-11.895 13.41zm16.667-0.076c-1.226-1.2259-0.6938-2.236 3.9075-7.4168 2.5157-2.8326 6.581-9.243 9.0338-14.245 4.6125-9.4068 5.7742-10.846 8.0513-9.9717 2.9866 1.1461-0.2301 9.309-8.4948 21.557-5.794 8.5864-10.331 12.244-12.498 10.077zm-87.7-61.8c0-0.2538 1.9125-0.9504 4.25-1.5481 2.3375-0.5976 9.2-2.6093 15.25-4.4703 12.379-3.808 32.397-7.0656 38.438-6.2553 2.2001 0.2951 5.821 0.1274 8.0465-0.3726 2.8378-0.6376 6.0579-0.4808 10.781 0.525 22.518 4.7951 47.901 3.385 61.201-3.3998 7.8216-3.9903 8.4913-1.4673 0.7841 2.9535-12.499 7.1695-36.252 10.608-48.25 6.9848-1.65-0.4982-5.025-1.1403-7.5-1.4267-2.475-0.2865-7.6867-0.992-11.582-1.5678-4.8445-0.7163-8.4773-0.7253-11.5-0.028-2.4302 0.5601-7.1862 1.0294-10.569 1.0429-8.1345 0.032-31.061 3.4936-39.846 6.0157-6.992 2.0073-9.5032 2.4162-9.5032 1.5472zm163.52-44.513c-1.4022-2.2688 1.9588-3.9545 9.9859-5.0083 4.399-0.5776 9.7291-1.3221 11.845-1.6545 3.3806-0.5312 3.8038-0.3779 3.4936 1.2662-0.5944 3.151-23.673 8.069-25.324 5.3966zm-18.5-9.1c-2.475-0.4618-8.55-1.3201-13.5-1.9074-42.812-5.0794-57.372-9.6426-61.186-19.176-2.1971-5.4911-2.2791-5.5093-28.314-6.2702-25.241-0.7377-26.45-0.6089-45 4.7931-7.98 2.3239-25.104 4.7483-32.289 4.5717l-3.2108-0.079 4-1.2711c2.2-0.6991 8.275-2.3038 13.5-3.566s12.344-3.3462 15.819-4.6312c26.532-9.8091 75.425-7.1338 80.201 4.3884 2.8086 6.7762 6.0605 8.4592 20.525 10.622 5.5066 0.8233 11.266 1.9738 12.798 2.5564 1.5326 0.5827 4.8948 1.0596 7.4715 1.0597s10.31 0.9181 17.185 2.0399c7.7084 1.2579 17.675 2.0812 26 2.1479 13.856 0.111 15.697 0.6419 13.895 4.0081-1.0709 2.0011-18.593 2.4496-27.895 0.714zm482.25-16.572c-0.6875-0.2774-1.2463-1.2544-1.2418-2.171 0.01-1.6435 2.1928-3.094 14.992-9.9538 8.2871-4.4416 12.754-8.7 25.761-24.557 10.735-13.087 15.699-17.676 27.239-25.178 12.253-7.966 12.576-8.597 16.049-31.399 1.1243-7.3814 2.2277-13.718 2.4519-14.08 0.2242-0.3628 1.5641-8.0484 2.9776-17.079 4.269-27.274 7.6022-44.293 9.1466-46.702 2.1995-3.4304 3.5587-1.712 2.8635 3.6206-1.0814 8.295-3.5795 24.391-5.5348 35.661-1.0496 6.05-3.0644 18.875-4.4773 28.5-5.0038 34.088-7.2519 38.587-23.976 47.986-7.697 4.326-21.376 17.528-27.477 26.518-5.8503 8.6214-10.006 12.689-18.898 18.495-4.2756 2.7922-7.4986 5.7334-8.4921 7.75-1.5869 3.2209-6.8496 4.4172-11.384 2.5877zm-894.11-11.664c-6.1416-7.4002-7.9456-37-2.3851-39.134 2.6876-1.0313 3.0587 0.5447 3.4051 14.461 0.31127 12.503 0.53279 13.835 2.9991 18.03 3.5218 5.9904 0.11387 11.624-4.0192 6.6436zm-341.09-1.208c-10.59-1.9879-16.231-5.103-17.796-9.8273-0.68369-2.0643-2.3403-5.1918-3.6814-6.9501-5.5892-7.3277-9.5859-29.403-7.0681-39.039 1.8468-7.0676 9.2062-19.554 11.881-20.157 61.763-13.936 103.88 13.903 79.428 52.508-1.219 1.925-2.464 5.7305-2.7666 8.4568l-0.5502 4.9567-8.0787 4.2795c-11.426 6.0528-35.477 8.7554-51.368 5.7723zm29.5-8.4c7.4722-1.0545 17.388-5.5057 20.698-9.2908 12.781-14.618 15.057-33.91 5.0661-42.944-10.855-9.8169-54.078-14.422-69.264-7.3787-13.201 6.1222-8.0257 45.356 7.0755 53.641 2.506 1.375 5.825 3.5125 7.3754 4.75 3.2203 2.5704 15.76 3.0981 29.049 1.2224zm109.82 6.2776c-2.9477-6.9922-4.1111-37.25-1.4322-37.25 2.0058 0 3.5019 6.5212 4.1296 18 0.52116 9.5316 1.1613 13.45 2.6957 16.5 2.3827 4.7363 2.0179 6.5-1.3445 6.5-1.9038 0-2.8289-0.8568-4.0486-3.75zm245.4 2.1292c-1.2222-1.2222-0.79176-3.946 1.4105-8.9245 3.8412-8.6837 2.5867-14.288-11.916-53.237-7.1045-19.08-7.7073-21.415-6.2388-24.159 2.3891-4.4641 7.0314-0.8032 7.0314 5.5449 0 2.7777 6.7619 23.358 13.766 41.896 7.7528 20.521 4.905 47.837-4.0531 38.879zm-216.95-5.2969-3.2658-2.9176-0.34881-12.436c-0.45-16.3 6.51-45.7 10.35-43.8 1.1279 0.5639 1.165 0.2176-0.96447 9-4.9628 20.467-5.5477 38.648-1.4764 45.891 3.7694 6.7068 1.2621 9.1542-4.2934 4.1909zm196.15-22.249c-1.7-7.1-0.18-25.9 2.08-25.9 4.5667 0 3.8606 24.252-0.75 25.758-0.6875 0.2247-1.2862 0.2585-1.3304 0.075zm346.61-74.789c-1.0552-1.7072 3.7652-3.7964 13.973-6.0558 5.5-1.2174 16.3-4.1447 24-6.5052 21.366-6.5499 29.533-8.6843 31.03-8.1099 0.7506 0.2881 8.281-0.5592 16.734-1.8829 44.117-6.9082 74.512 2.4143 48.737 14.948-10.994 5.3459-16.568 2.015-6.5006-3.8849 4.7376-2.7764 5.6652-4.8334 2.75-6.0981-2.9853-1.295-27.33-1.6411-35.75-0.5082-4.4 0.592-12.5 1.5539-18 2.1375-11.226 1.1912-26.091 4.5141-39.804 8.8979-19.711 6.3009-35.755 9.3492-37.168 7.0619zm182.78-38.68c-1.4515-3.7824 5.8798-7.8123 26.272-14.442 18.79-6.1082 55.783-8.2702 76.918-4.4952 40.171 7.1747 61.415 8.2724 79 4.0821 3.85-0.9174 8.575-2.0307 10.5-2.474 1.925-0.4434 7.2159-1.96 11.757-3.3702 4.5416-1.4103 13.092-3.5377 19-4.7275 5.9085-1.1899 13.243-2.9882 16.3-3.9962 11.411-3.7635 30.943-4.3578 30.943-0.9415 0 2.439-1.9549 3.0031-10.332 2.9814-7.2079-0.019-31.602 5.3432-55.168 12.126-5.5 1.583-13.375 3.5087-17.5 4.2793-4.125 0.7705-10.65 1.985-14.5 2.6988-11.733 2.1753-29.656 1.4708-51.455-2.0226-50.848-8.1483-85.557-4.993-116.25 10.568-3.5217 1.7857-4.7251 1.7272-5.4902-0.2667zm451.9-17.552c-0.8342-0.8342-1.2147-5.596-1.2195-15.262-0.01-17.49-5.0434-39.65-12.28-54.05-1.1056-2.2-3.7065-8.725-5.7797-14.5s-5.3638-13.974-7.3123-18.22c-1.9486-4.2457-4.2149-10.096-5.0362-13-0.8213-2.9043-3.2799-11.234-5.4637-18.509-2.1837-7.2759-4.6978-17.499-5.5869-22.719-0.8891-5.2193-2.081-10.822-2.6487-12.45-1.4868-4.265-0.7772-8.5106 1.4945-8.9418 2.4109-0.4578 3.5834 1.4382 3.6115 5.8398 0.012 1.925 0.918 7.2362 2.0128 11.803 1.0947 4.5665 2.2781 10.866 2.6297 14 0.3517 3.1335 1.7433 8.6223 3.0926 12.197 1.3492 3.575 3.957 10.775 5.795 16 5.8824 16.722 9.1989 25.25 14.001 36 14.639 32.771 15.876 37.656 15.933 62.912 0.043 19.223-0.3909 21.753-3.2437 18.901zm-677.84-12.432c-2.1277-1.4249-4.7685-3.355-5.8685-4.2891-3.4501-2.9298-13.548-8.667-26.016-14.781-20.574-10.089-27.484-16.054-27.484-23.723 0-5.3415-0.9236-6.1477-8.5-7.419-17.448-2.928-28.538-2.4523-51 2.1879-3.85 0.7953-8.7156 1.7411-10.812 2.1018-6.5076 1.1193-4.2789 3.3618 11.415 11.486 18.331 9.4888 35.148 23.056 28.58 23.056-0.7247 0-5.3372-3.2258-10.25-7.1684-4.9129-3.9426-11.858-8.487-15.432-10.099-22.611-10.194-26.933-12.585-26.985-14.929-0.029-1.3193 10.492-7.6152 14.485-8.6681 38.866-10.248 81.896-5.4951 76.053 8.4013-2.6724 6.356 0.1585 8.9355 21.825 19.887 16 8.0871 19.01 9.9361 30.682 18.85 7.1901 5.491 6.5832 9.9788-0.6907 5.1074zm-400.9-21c-6.3828-3.785-9.5-6.7641-9.5-9.0791 0-3.0185 3.0495-2.3173 9.0126 2.0726 3.4141 2.5133 7.2461 4.5696 8.5156 4.5696 3.5695 0 5.4718 1.043 5.4718 3 0 4.1817-5.9146 3.935-13.5-0.5631zm-175.85-7.2c-0.26552-0.9625-1.2136-6.25-2.1069-11.75-0.89329-5.5-2.3516-13.15-3.2406-17-3.4308-14.857-2.1852-28.909 3.4086-38.454 3.6497-6.2277 3.8345-4.0475 0.72877 8.5967-2.9613 12.056-2.8553 17.697 0.49214 26.19 3.3207 8.4247 6.0518 30.275 4.0808 32.65-1.6566 1.9961-2.7693 1.9193-3.3628-0.2321zm181.91-5.1375c-0.8565-1.6563-2.1901-5.3967-2.9636-8.312-0.77346-2.9153-2.6027-9.3505-4.065-14.3-5.0429-17.071-5.0902-24.159-0.28358-42.5 1.3693-5.225 2.7514-11.85 3.0713-14.721 0.75894-6.8132 2.1454-9.2786 5.2178-9.2786 3.219 0 3.3891 5.4497 0.42986 13.775-8.2076 23.09-8.1775 33.8 0.16553 58.902 2.7743 8.3473 4.8878 15.997 4.6966 17-0.60636 3.1801-4.5146 2.8283-6.269-0.5643zm-204.73-8.1472c-6.06-3.6-7.65-34-1.77-34 3.6943 0 4.9864 3.9613 4.3314 13.28-0.57689 8.207-0.40021 9.8215 1.578 14.42 2.8609 6.6502 1.099 9.3201-4.135 6.2658zm233.39-9.2153c-5.4862-6.6927-9.1881-45.217-3.8196-39.75 1.3073 1.3313 2.1875 5.2097 5.5605 24.5 0.48085 2.75 1.3613 6.2668 1.9566 7.8151 1.5448 4.018 1.3374 7.3731-0.49946 8.0779-2.0689 0.7939-2.0105 0.8057-3.198-0.643zm-154.58-128.2c-6.0735-10.364-10.417-28.768-8.6894-36.822 0.58805-2.7419 0.84155-5.3537 0.56334-5.8038-2.2323-3.612 5.4209-30.185 8.8857-30.852 2.0459-0.394 2.0702-0.624-0.82743 7.8375-2.2032 6.4338-5.3864 25.866-4.9144 30 1.7165 15.032 2.7171 18.739 7.5261 27.881 2.7141 5.1594 4.6983 9.9969 4.4093 10.75-1.0816 2.8185-4.3802 1.3997-6.9532-2.9908zm473.86-19.712c-3.85-2.155-9.475-4.8378-12.5-5.9616-26.188-9.7296-36.327-16.615-41.931-28.477-3.7567-7.951-7.1514-10.63-10.095-7.9668-2.8154 2.5479-2.477 6.822 0.84678 10.692 6.0801 7.0793 7.9703 11.785 4.7339 11.785-4.4702 0-13.388-18.745-12.124-25.484 0.86996-4.6373 2.2187-5.4017 10.108-5.729l6.9241-0.2872 0.56 4c1.4389 10.278 14.844 25.084 26.678 29.468 3.1894 1.1814 8.724 3.6362 12.299 5.4552 3.575 1.8189 8.75 4.0435 11.5 4.9434 5.7443 1.8799 14.231 8.6426 13.114 10.45-1.1007 1.7809-2.4724 1.3892-10.114-2.8879zm-253.75-16.454c-6.6069-6.6068-5.6955-12.039 1.8305-10.91l4.2693 0.6402 0.68482-4.5666c0.38985-2.5998 0.18374-6.6554-0.47854-9.4161-3.2268-13.451-0.97885-41.221 3.3368-41.221 2.322 0 2.4681 1.003 1.2321 8.4578-0.74002 4.4631-0.87767 10.2-0.38393 16 3.2334 37.984-0.17955 51.328-10.491 41.016zm-43.964-1.2243c-3.9774-4.5598-7.2503-20.778-4.791-23.741 2.1559-2.5978 3.2826-0.2172 3.5158 7.4293 0.17435 5.7152 0.7129 7.7974 2.8533 11.032 3.9078 5.9052 2.647 10.124-1.5781 5.2798zm22.522-26.895c-0.82547-2.1511 1.6166-19.183 4.4958-31.355 0.58544-2.475 1.5701-6.75 2.1882-9.5 1.3112-5.834 3.4464-9.5 5.533-9.5 1.9679 0 1.8648 1.568-0.56505 8.5948-1.1231 3.2478-2.4338 8.6052-2.9127 11.905-3.4119 23.513-4.3961 29.148-5.2838 30.25-1.3824 1.7169-2.7031 1.566-3.4556-0.395zm-26.262-15.105c0.0481-5.2518 1.3442-12.971 2.3461-13.973 2.7898-2.7898 2.6956 10.048-0.12825 17.473-1.0723 2.8197-2.2586 0.9475-2.2178-3.5zm-6.3769-107.92c-0.89256-0.8925-0.69737-14.47 0.3067-21.333 0.44253-3.025 1.9715-13.825 3.3978-24 4.2308-30.184 5.7083-40.083 7.1635-48 3.9715-21.606 4.13-27.922 1.0839-43.18-1.956-9.7978-3.5209-13.471-9.2007-21.596-2.5334-3.624-4.9912-7.6018-5.4617-8.8394-1.309-3.443 3.4157-29.598 5.579-30.884 5.3568-3.1856 6.2152-4.4683 6.8412-10.223 1.8619-17.116 1.8899-18.94 0.32851-21.373-3.5726-5.5677-3.9674-10.437-1.2662-15.617 1.3728-2.6326 2.8013-7.4045 3.1744-10.604l0.67836-5.8178-4.459-4.6822c-14.34-15.03-15.48-21.33-10.4-57.66 1.4625-10.45 3.0835-22.375 3.6021-26.5 1.2995-10.335 2.5871-19.645 4.4257-32 0.85943-5.775 2.2068-15.675 2.9942-22 0.78739-6.325 1.8727-13.75 2.4118-16.5 0.53909-2.75 1.6962-10.85 2.5713-18 0.87514-7.15 2.2331-17.275 3.0176-22.5 0.78456-5.225 1.6959-12.65 2.0252-16.5 0.32928-3.85 1.2828-9.6543 2.1189-12.898 2.4006-9.3143 1.0769-9.7945-10.665-3.869l-9.44 4.77h-15.058-15.058l-9.5941-6.3597-9.5941-6.3597-5.4936-11.64c-3.02-6.4-6.87-15.46-8.55-20.14-8.9482-24.84-15.626-40.163-23.49-53.904-15.178-26.521-18.628-42.271-16.78-76.611 1.2867-23.909 1.3433-49.395 0.12783-57.485-2.159-14.369-2.9934-20.458-4.4537-32.5-2.1163-17.451-2.5551-18.885-5.9678-19.5l-2.7737-0.5 2.3452-2.9754c2.0843-2.6444 2.3576-4.0907 2.4567-13 0.16761-15.066 5.6229-32.512 10.667-34.113 3.1464-0.99864 4.2277 0.99769 2.8754 5.3084-0.65223 2.079-1.3813 5.355-1.6201 7.28-0.23883 1.925-1.1545 7.1814-2.0349 11.681-2.6468 13.528-1.7162 34.216 2.3986 53.319l3.3387 15.5 0.13188 37c0.11991 33.639 0.29293 37.237 1.9046 39.609 1.9156 2.8195 1.5823 4.8331-1.4553 8.7915-4.0245 5.2445 3.3957 34.837 12.668 50.52 2.4832 4.2002 4.515 7.8585 4.515 8.1294 0 0.27095 1.0904 2.1705 2.4231 4.2212 2.2082 3.3978 5.304 10.939 15.078 36.729 16.884 44.553 16.014 43.508 27.144 32.575 10.841-10.65 17.609-33.386 13.306-44.704-0.52307-1.3758-0.95116-3.7096-0.95133-5.1863-0.001-10.51-15.035-38.193-24.244-44.644-4.8346-3.3862-15.296-1.2141-23.891 4.9605-5.1166 3.6759-6.091 3.0213-3.0137-2.0247 4.3138-7.0739 19.462-13.87 26.807-12.027 5.3764 1.3494 15.99 14.878 23.728 30.245 9.4004 18.668 11.105 51.023 3.3071 62.771-1.8377 2.7685-4.5518 6.9462-6.0314 9.2836-1.4796 2.3375-3.0212 4.2556-3.4259 4.2625-1.7632 0.0299-9.1724 7.9892-8.6659 9.3092 2.5106 6.5425 21.777 8.5478 35.793 3.7253 35.594-12.246 55.819-76.14 45.659-144.24-0.97361-6.5262-2.6833-11.616-8.9429-26.626-8.18-19.62-15.9-46.5-14.13-49.18 2.022-3.0552 4.4739 0.50438 7.8615 11.413 3.9047 12.574 4.2071 12.779 12.987 8.8074 3.6858-1.6672 7.6733-3.3161 8.8611-3.6644 4.6622-1.3668 7.5538-13.955 8.7948-38.286 0.76017-14.904 1.7088-12.428-8.2763-21.6-18.938-17.395-13.554-40.275 10.822-45.989 11.145-2.6126 12.622-2.6844 33.319-1.6194 20.087 1.0336 23.151 1.5466 43.378 7.2619 29.512 8.339 39.958 40.803 16.853 52.376-11.228 5.624-12.23 8.352-15.653 42.623-1.3821 13.835-0.80485 15.384 7.3539 19.732 3.385 1.8042 8.9126 6.1399 12.45 9.7658l6.3625 6.521 3.3671-1.6057c1.8519-0.88312 9.0955-5.0373 16.097-9.2315 7.0014-4.1942 15.934-8.9104 19.851-10.48 3.9166-1.57 10.537-4.4231 14.711-6.3402 8.8888-4.0822 25.873-9.6822 29.365-9.6822 5.8366 0 27.865-8.5425 34.341-13.317 12.323-9.0858 15.109-11.79 17.622-17.102 1.4135-2.9879 5.3103-9.5294 8.6596-14.537 6.1157-9.1431 16.302-29.493 21.297-42.544 3.9816-10.405 7.4743-17.5 8.6144-17.5 4.4253 0-7.8105 35.929-17.539 51.5-7.4099 11.861-10.317 17.247-11.332 21-1.3779 5.0917-7.0681 13.13-12.034 17-2.1173 1.65-5.8949 4.7152-8.3947 6.8116-4.252 3.5658-11.676 6.7478-29.689 12.724-3.025 1.0037-8.3205 2.9881-11.768 4.4098-3.4473 1.4217-13.797 4.8414-23 7.5994-39.435 11.818-85.609 45.678-105.62 77.455-10.021 15.911-4.9064 48.991 11.133 72 20.855 29.918 69.954 44.544 112.83 33.612 4.3601-1.1117 11.302-2.5418 15.427-3.1778 21.06-3.2474 43.372-12.84 66-28.375 11.374-7.8089 37.65-23.828 46.153-28.136 13.415-6.7978 38.847-12.946 38.847-9.3913 0 0.56727-0.7875 1.2746-1.75 1.5719-12.789 3.9501-33.221 13.13-42.494 19.093-4.1089 2.642-10.477 6.6037-14.152 8.8037-3.6748 2.2-11.65 7.4675-17.724 11.705-42.046 29.341-101.37 44.704-142.09 36.798-5.657-1.0983-11.926-1.9983-13.932-2-6.9826-0.006-33.66-13.345-42.45-21.226-8.5242-7.6422-9.5304-7.1601-10.9 5.2226-0.33466 3.025-1.2424 9.55-2.0173 14.5-0.77484 4.95-2.1016 13.5-2.9484 19-0.84676 5.5-2.2141 14.242-3.0386 19.426-2.3988 15.084-2.3595 15.282 4.6095 23.359 28.989 33.598 22.209 94.64-9.834 88.532-5.8774-1.1204-1.4066-6.6985 7.4851-9.3391 18.929-5.6212 18.728-55.364-0.28378-70.319-4.4884-3.5306-5.8112-2.0454-6.9833 7.8403-0.35866 3.025-1.0472 7.075-1.53 9-0.48286 1.925-1.3324 7.55-1.8878 12.5-1.3747 12.251-3.5475 27.978-5.5268 40-5.1016 30.989-7.1387 27.65 22.452 36.803 26.249 8.1195 24.838 7.975 46 4.7112 4.125-0.63616 10.258-1.565 13.629-2.0642 12.208-1.8076 13.043-2.6645 6.6208-6.8011-5.2522-3.3832-6.661-5.1907-7.6871-9.8625-1.1347-5.1662-1.3924-5.2126-27.708-4.992-19.864 0.1665-24.871-0.0629-26.244-1.2023-5.6224-4.6657 10.492-10.432 17.405-6.2284 2.4143 1.4682 4.4879 1.7785 9.7742 1.4626 3.6904-0.22055 17.51-0.81094 30.71-1.312 26.974-1.0239 45.644-3.8676 56.09-8.5432 3.2506-1.455 9.2851-3.9046 13.41-5.4436 10.435-3.8932 18.83-8.1416 19.491-9.864 0.6692-1.744-2.1898-5.1634-4.3172-5.1634-14.771 0-14.386-38.948 0.5153-52.032 9.0312-7.9295 45.983-20.478 49.132-16.685 1.6199 1.9519 0.1431 3.3881-4.8204 4.6879-15.005 3.9294-35.23 13.039-39.812 17.932-12.1 12.86-12.4 44.08-0.4 44.08 1.8244 0 4.6005 0.9489 6.1692 2.1087l2.8521 2.1087 7.8574-3.084c51.965-20.396 47.021-17.873 51.677-26.369 8.7872-16.034 5.3604-32.629-8.5514-41.411-4.0928-2.5837-4.1693-2.8873-2.263-8.9848 1.3226-4.2306-12.518-12.309-27.943-16.31-9.8602-2.5573-38.27-2.7956-60.062-0.50377-7.7 0.80982-21.033 1.9163-29.628 2.4589-9.4732 0.59796-17.042 1.5772-19.218 2.4862-6.1892 2.586-15.314 1.9638-21.989-1.4994-7.5309-3.9073-28.203-9.9611-37.4-10.952-8.0964-0.87275-11.035-2.4151-9.0823-4.7676 0.86527-1.0426 2.3538-1.2845 5.2623-0.85529 5.2295 0.77177 22.805 2.4741 33.056 3.2017 6.0453 0.42911 8.5261 1.0531 10.153 2.5538 4.4938 4.1445 44.357 4.7267 75.347 1.1004 21.223-2.4834 43.705-2.2191 53 0.62309 21.084 6.4469 22.762 7.1816 31.487 13.784 7.6328 5.7761 16.563 15.005 19.366 20.014 1.4336 2.5616 53.022 2.595 66.737 0.0431 17.574-3.2698 44.935-14.57 65.155-26.909 3.4356-2.0965 9.957-5.6774 14.492-7.9576 19.428-9.7682 43.395-28.17 50.828-39.025 2.1258-3.1045 7.2406-9.6295 11.366-14.5 4.1257-4.8705 8.4873-10.769 9.6926-13.107 2.8583-5.5463 5.9804-7.7704 36.698-26.143 3.122-1.8672 10.408-6.2259 16.19-9.6858 5.7825-3.46 13.432-7.6526 17-9.3169 9.8918-4.615 28.054-14.652 49.486-27.348 3.3-1.9548 11.175-6.2294 17.5-9.4991 14.547-7.5198 48.999-26.44 52.1-28.613 3.3383-2.3383 6.9002-2.1571 6.9002 0.35106 0 2.1368-6.0348 7.0833-12 9.836-1.925 0.88831-5.3 2.8064-7.5 4.2624s-8.05 4.7299-13 7.2752-12.375 6.6541-16.5 9.1306c-4.125 2.4766-10.2 5.9057-13.5 7.6204s-8.475 4.5955-11.5 6.402c-14.616 8.7281-44.465 25.759-52.5 29.955-14.591 7.6199-23.096 12.645-32.319 19.096-4.7744 3.3392-12.255 8.0309-16.623 10.426-10.402 5.7036-14.371 9.4246-22.342 20.948-25.725 37.187-41.711 50.456-89.716 74.47-42.855 21.438-53.671 24.065-98.786 23.996-25.762-0.0396-28.716 0.12031-28.111 1.5221 3.1452 7.2928-1.3419 34.539-6.2138 37.731-2.6875 1.7609-13.269 6.1533-24.889 10.331-35.092 12.617-42.273 16.642-37.688 21.124 7.1605 7.0006 4.6776 24.209-4.5958 31.853-6.2959 5.1896-10.799 6.1399-34.216 7.22-15.36 0.70845-22.357 1.4172-24.5 2.4818-1.65 0.81957-5.9106 1.915-9.4679 2.4343-3.5574 0.5193-9.4074 1.5794-13 2.3558-20.82 4.4993-54.138 6.9218-63.598 4.6241-2.7138-0.65916-11.234-3.4675-18.934-6.2408-24.267-8.7402-21.922-10.947-26.493 24.929-1.6313 12.803-3.3882 24.053-3.9042 25-1.9971 3.6658-8.2839 8.6442-15.289 12.107-10.003 4.9446-13.299 10.997-13.308 24.432-0.005 8.7368-0.0351 8.8408-3.2689 11.5-2.7762 2.2828-3.411 3.6538-4.2521 9.1834-0.54375 3.575-1.4706 9.1612-2.0596 12.414-0.98008 5.4119-0.89272 6.1332 1.0296 8.5 4.5996 5.6631 5.1099 8.1283 3.5668 17.23-3.9439 23.262-2.3409 19.983-13.862 28.356-3.785 2.7509-6.5429 5.8552-8.8316 9.9408-2.6434 4.7189-3.9964 6.1132-6.5779 6.7787-3.8169 0.9839-3.8703 1.1765-1.25 4.5077 2.5687 3.2656 2.5183 4.4899-0.43918 10.673-1.4474 3.0262-2.8648 8.5557-3.4861 13.6-1.0874 8.8285-2.7906 20.394-5.5228 37.5-0.87845 5.5-2.9281 19.45-4.5548 31-3.9571 28.096-8.2279 38.936-13.33 33.833zm34.887-169.42c1.0305-1.6674-1.2872-3.5795-2.6667-2.2-1.16 1.19-0.43 3.32 1.11 3.32 0.48508 0 1.1843-0.48921 1.5538-1.0871zm-14.06-2.38c0-1.638-0.76917-2.0556-4.25-2.3075-4.1621-0.30113-5.9305 1.7937-3.5357 4.1884 1.6516 1.6516 7.7857 0.16965 7.7857-1.8809zm-0.68689-10.75c0.24607-1.2911-0.32579-1.75-2.1808-1.75-2.7337 0-4.1328 1.3812-3.097 3.0572 1.0052 1.6265 4.9026 0.66118 5.2778-1.3072zm3.932-21c1.341-1.6932 3.6479-17.283 2.8609-19.334-1.5146-3.947-4.6963 2.6866-6.1499 12.822-0.9582 6.6811 0.64354 9.8525 3.2891 6.5123zm13.466-4.5c0.49813-7.2254-0.37501-10.714-1.9305-7.713-2.7 5.2-2.58 13.46 0.19 13.46 0.91875 0 1.4647-1.8078 1.7365-5.75zm13.79-29.79c0-3.0505-13.675-7.2778-18.111-5.5983l-2.3891 0.90462 2.5 1.0338c10.469 4.3288 18 5.8601 18 3.6599zm-16.25-14.71c0.54948-0.6875 1.2977-3.95 1.6628-7.25 0.36505-3.3 0.89292-7.1764 1.173-8.6143 0.3636-1.8663-0.24065-3.5056-2.112-5.7295-2.6511-3.1507-2.6044-3.9805 0.42412-7.5278 0.96009-1.1246 1.5979-3.7043 1.5979-6.463 0-7.4832 3.2008-7.8068 22.793-2.3048 3.7363 1.0492 7.5967 2.6348 8.5787 3.5236 2.6789 2.4244 4.8787 2.1028 2.628-0.38416-0.99549-1.1-2.3524-2-3.0154-2-0.66301 0-2.7308-1.0125-4.595-2.25-2.7869-1.85-8.913-4.1836-16.64-6.3386-0.6875-0.19175-1.25-1.0378-1.25-1.88 0-4.4516 22.541 2.2431 31.634 9.395 3.5838 2.819 6.181 2.6606 6.9552-0.42416 0.87762-3.4967-0.1341-5.4949-2.8074-5.5449-1.2548-0.0235-4.2393-1.7624-6.6323-3.8642l-4.351-3.8216 1.6273-15.886c0.89501-8.7372 2.1338-18.136 2.7528-20.886 0.61903-2.75 1.4521-7.925 1.8513-11.5 1.4004-12.541 4.0962-30.563 5.5347-37 0.7989-3.575 1.4488-8.566 1.4442-11.091-0.005-2.5251 0.66173-6.8001 1.4808-9.5 0.81904-2.6999 1.494-6.7119 1.5-8.9155s0.4881-5.5786 1.0714-7.5c1.1492-3.7853 3.7433-17.751 4.6423-24.993 0.30724-2.475 1.0377-5.1021 1.6232-5.8379 1.7661-2.2195 2.6742 1.9984 1.4601 6.7816-0.76402 3.01-0.75186 4.4908 0.0434 5.286 1.4586 1.4586 1.6228 0.83009 3.5863-13.73 0.89008-6.6 2.0805-14.598 2.6453-17.774 1.1266-6.3343 0.759-7.726-2.0409-7.726-2.5957 0-3.3418-4.2972-2.5003-14.4 0.72-8.67-0.22-12.6-3.02-12.6-2.0676 0-5.4261 14.606-7.0133 30.5-1.3289 13.308-4.6688 36.211-5.7603 39.5-0.6388 1.925-1.2235 6.65-1.2994 10.5s-0.87215 12.4-1.7695 19-2.5149 18.525-3.5946 26.5-2.421 17.875-2.9807 22c-0.55974 4.125-1.7222 12-2.5833 17.5-0.86109 5.5-2.0147 13.825-2.5636 18.5-2.3464 19.985-2.909 22-6.143 22-2.4587 0-2.0958-10.594 0.73506-21.463 1.9788-7.5973 0.27335-11.141-4.8751-10.13-3.91 0.76772-5.6572 2.9992-5.6572 7.2251 0 4.3806-1.1686 4.8813-10.569 4.5285-8.5769-0.32193-10.981 0.74332-10.251 4.5413 0.25619 1.3317 1.6392 1.9648 5.3326 2.441 12.922 1.666 13.834 5.1152 1.549 5.8571-9.0403 0.54596-10.134 1.446-12.737 10.478-0.66584 2.3108-1.8619 3.3478-5.3418 4.6314-5.8959 2.1747-6.1183 4.0364-0.77099 6.4534 3.02 1.365 5.3865 3.5634 8.0066 7.4378l3.7195 5.5 0.0305 13.25c0.0314 13.651 1.1742 16.517 4.7847 12zm61.75-220.74c-0.88108-1.4256 0.43211-5.1645 1.5674-4.4629 1.203 0.74349 1.201 4.1688-0.003 4.9128-0.512 0.31644-1.216 0.11397-1.5646-0.44993zm-88 180.98c0-0.81746-1.0125-1.6301-2.25-1.8058-2.1888-0.31086-3.1235 1.6127-1.5488 3.1874 1.165 1.165 3.7988 0.20716 3.7988-1.3816zm1.0719-9.5813c4.46-2.62 5.27-3.77 3.43-4.91-1.4888-0.92015-1.2103-3.6102 0.5785-5.5867 1.4458-1.5975 1.3848-2.0808-0.72465-5.746-2.264-3.9338-2.2729-4.0652-0.52405-7.7326 1.5604-3.2722 1.6252-4.3311 0.52757-8.6141-1.0928-4.264-1.0363-5.2476 0.44554-7.7562 1.0861-1.8386 1.6971-5.0236 1.6971-8.8462 0-4.0896 0.47302-6.3658 1.5-7.2182 0.825-0.68469 1.5-2.2364 1.5-3.4481 0-2.7485 3.5483-6.0632 7.4944-7.001 5.2814-1.2551 8.3028-7.404 3.7556-7.6427-0.9625-0.0505-3.1-0.16304-4.75-0.25-4.2709-0.22509-4.9089-4.3044-0.81492-5.2102 6.8164-1.5082 7.8149-2.0871 7.8149-4.5312 0-2.0615-0.53989-2.4616-3.6739-2.7225-7.4268-0.61823-7.0072-4.5899 0.69242-6.5541 8.86-2.26 7.67-8.64-1.61-8.64-4.8867 0-5.6909-2.3772-4.0156-11.87 0.64346-3.6463 1.6296-11.58 2.1914-17.63 0.56179-6.05 1.4876-15.05 2.0574-20 2.0345-17.675 2.1206-22.266 0.37579-20.046-2.1672 2.7572-3.5051 8.1792-3.5116 14.231-0.003 2.8517-0.45405 6.3645-1.0022 7.8061-0.54813 1.4417-1.4536 6.7585-2.0122 11.815-0.55861 5.0566-1.8951 14.819-2.97 21.694-3.6642 23.437-7.4129 52.82-8.5478 67-0.33013 4.125-1.2252 11.1-1.9891 15.5-2.2709 13.081-4.6698 34.391-3.9943 35.484 0.86903 1.4061 1.0838 1.3504 6.082-1.5787zm226.93-30.42c6.05-0.49663 15.525-1.2114 21.056-1.5884 20.52-1.3988 27.761-8.0118 27.229-24.867-0.3467-10.982-0.8587-11.269-11.149-6.2474-23.139 11.292-43.815 16.853-68.932 18.538-11.49 0.77099-13.417 2.0232-10.665 6.9291 3.3244 5.9269 14.374 9.5893 25.962 8.6052 3.025-0.2569 10.45-0.87342 16.5-1.37zm-174.3-10.04c2.859-5.7813 3.4649-16.277 1.0774-18.664-2.2264-2.2264-24.674-4.289-26.525-2.4373-2.6725 2.6725-0.26742 4.6524 6.4609 5.319 7.3994 0.733 8.7831 1.268 8.7831 3.396 0 1.1251-1.6259 1.441-7.4182 1.441-15.262 0-15.576 6.69-0.43985 9.3667 4.0469 0.71563 8.9331 2.2741 10.858 3.4633 4.3042 2.6589 5.0541 2.4627 7.2039-1.8844zm-34.244-13.398c2.3173-2.7921 0.81096-5.0586-3.2772-4.931-4.5904 0.14327-5.097 0.59696-4.284 3.8364 0.7371 2.9368 5.4643 3.6212 7.5612 1.0946zm40.92-22.8c1.1716-5.0875 2.1271-11.191 2.1233-13.563-0.0102-6.3762 4.6596-35.991 6.4952-41.19 0.87308-2.4731 1.3722-5.3966 1.1092-6.4966-0.88867-3.7167 3.7571-37.053 5.8678-42.104 0.84622-2.0253 1.467-5.9804 1.3794-8.789-0.0875-2.8087 0.40377-10.852 1.0918-17.873 1.4786-15.091 1.2782-16.049-3.1873-15.232-3.0888 0.56474-9.6896-1.9475-14.872-5.6599-1.2977-0.92975-2.3153-0.59108-5.2679 1.7532-5.404 4.2907-4.4876 5.8859 3.4454 5.9977 12.739 0.17953 18.334 5.5471 6.4309 6.1692-7.5587 0.39504-9.5 1.044-9.5 3.176 0 3.407 1.1866 5.1139 4.5249 6.5087 4.5061 1.8828 4.9002 4.0798 2.5254 14.079-1.13 4.73-2.05 10.39-2.05 12.56 0 2.1696-0.72609 9.6055-1.6135 16.524-1.2212 9.5204-1.3427 13.174-0.5 15.023 1.515 3.3252 1.3994 6.0262-0.28581 6.6728-1.8491 0.70957-3.1305 5.2346-4.5809 16.177-0.65611 4.95-1.8745 10.934-2.7076 13.298-1.2239 3.4733-1.2848 4.8535-0.31712 7.1896 1.7855 4.3106 0.68975 5.0119-7.8316 5.0119-13.005 0-17.985 6.8206-5.9268 8.1165 10.365 1.114 11.225 4.8381 1.1241 4.8682-15.102 0.045-12.705 9.0041 2.8343 10.594 10.174 1.0411 15.805 2.9807 15.805 5.444 0 3.9107 2.1158-0.59634 3.8836-8.273zm23.03-13.75c0.0782-5.9817-1.242-8.09-2.7036-4.3175-1.4528 3.7498-2.4963 14.04-1.5748 15.531 1.1598 1.8765 4.2118-6.123 4.2784-11.214zm-38.845-13.035c4.5891-2.456 0.38622-8.4307-5.8071-8.2551-5.2012 0.14743-8.2021 4.9468-5.0586 8.0903 1.4726 1.4726 8.2306 1.5751 10.866 0.16482zm-17.255-9.2825c-0.46061-3.2355-5.186-3.0643-5.6482 0.20457-0.18562 1.3128 0.24013 2.7439 0.94612 3.1802 2.0357 1.2581 5.0537-0.91443 4.702-3.3848zm58.845-5.7589c0.45288-4.0778 0.31564-5.1563-0.55315-4.3468-0.63551 0.59211-1.4265 3.5171-1.7578 6.5-0.45288 4.0778-0.31564 5.1563 0.55315 4.3468 0.63551-0.59211 1.4265-3.5171 1.7578-6.5zm-46.64-3.92c0-0.96531-0.66378-2.306-1.4751-2.9793-2.1407-1.7767-4.4408 3.1708-2.5393 5.462 1.53 1.85 4.01 0.32 4.01-2.48zm-10.2-3.2c1.7754-1.7754 1.4568-4.5922-0.6468-5.718-2.2621-1.2106-4.1532 0.36089-4.1532 3.4513 0 3.4988 2.4235 4.6432 4.8 2.2667zm0.61821-14.407c2.4259-0.9309 2.0539-5.393-0.44959-5.393-2.2414 0-3.5001 2.1727-2.607 4.5 0.64765 1.6878 0.83946 1.7438 3.0566 0.89301zm3.3847-16.016c0.37374-2.6194-2.0034-3.6823-4.3682-1.9532-2.4164 1.7669-1.1596 4.8179 1.8108 4.3961 1.4031-0.19925 2.3688-1.1218 2.5573-2.4429zm1.5934-10.968c0.82-2.11-0.09-3.4-2.39-3.4-2.2479 0-3.3887 1.5448-2.62 3.5479 0.74768 1.9484 4.2526 1.8519 5.0163-0.13813zm18.454-70.416c4.7565-3.4456 4.8656-3.8143 2.15-7.2666-1.1-1.3984-2-3.2326-2-4.0758 0-2.699 1.8601-2.7944 3.5711-0.18316 2.65 4.03 8.44 2.89 8.44-1.66 0-2.0418 0.81401-2.2014 4.3574-0.8542 3.367 1.2802 4.2639-0.0148 6.1195-8.8364 1.92-9.15 2.98-11.11 6-11.11 2.93 0 5.52-3.42 5.52-7.29 0-1.5638 0.54321-3.8262 1.2071-5.0275 0.66393-1.2013 1.5076-4.6593 1.8748-7.6843 2.708-22.306 3.8945-26.452 6.7524-23.594 1.3091 1.3091 1.3311 2.2358 0.16839 7.0827-1.004 4.1853-1.0524 5.8619-0.1939 6.7204 1.648 1.648 5.1911-1.8196 5.1911-5.0804 0-1.4089 0.72966-4.4722 1.6215-6.8073 1.8575-4.8639 1.3928-6.9481-1.8434-8.2666-22.854-9.3114-51.911-11.279-55.921-3.7875-1.3166 2.4601-2.1695 37.741-0.99056 40.975 0.45253 1.2416 0.40999 12.31-0.0945 24.597-1.1466 27.923-0.88316 28.646 8.0779 22.154zm14.41-25.68c-1.7543-0.65041-1.6245-13.237 0.20865-20.231 0.80226-3.0611 2.1354-8.2656 2.9626-11.566 1.4912-5.949 1.5021-5.8494 1.2914 11.717-0.2177 18.143-0.93846 21.386-4.4626 20.08zm4.8-45.3c-0.0213-7.7095 0.88715-10.774 2.8368-9.5691 1.6714 1.033 1.3433 5.5021-0.85212 11.607l-1.96 5.46-0.02-7.5zm-2.05 68.43c0-0.93124-0.68037-1.4414-1.6671-1.25-2.51 0.48-2.85 2.82-0.41 2.82 1.22 0 2.08-0.65 2.08-1.57zm19.407-96.03c2.2271-0.85462 3.968-7.8273 2.5949-10.393-1.617-3.0214-7.4688-2.748-9.5621 0.44686-3.3028 5.0406 1.5813 12.013 6.9672 9.9461zm-10.588-9.2255c0.21-1.44-0.21-2.17-1.25-2.17-1.02 0-1.57 0.9-1.57 2.58 0 3.1327 2.3485 2.7898 2.8196-0.41166zm56.06-5.42c2.7228-2.3375 6.1128-5.0585 7.5334-6.0467 1.587-1.104 2.5829-2.7426 2.5829-4.25 0-3.8482-3.3066-3.0614-6.5 1.5467-3.2878 4.7442-6.7726 5.2767-11.173 1.7071-5.4225-4.3984-8.5126-5.8535-15.544-7.3196-3.8938-0.81189-7.8004-1.854-8.6812-2.3157-0.88-0.46-3.62-1.17-6.1-1.57-5.543-0.90197-8-2.1305-8-4 0-3.7257 7.5043-4.5334 14.141-1.522 6.4921 2.9459 8.5934 2.6471 10.573-1.5031 3.0657-6.4288-6.9114-11.86-10.179-5.5412-2.369 4.5812-5.1807 4.0569-7.5208-1.4024-2.472-5.7668-3.425-6.001-24.495-6.0178-15.147-0.0121-17.017 0.16885-17.311 1.675-0.58951 3.0196 3.3554 5.8115 8.2115 5.8115 14.004 0 9.7362 5.0174-5.939 6.9823-10.546 1.322-12.072 0.92816-13.965-3.6036-1.4686-3.515-4.0773-4.4152-6.3138-2.1787-2.3522 2.3522-1.3702 5.7671 2.2774 7.9192 2.6747 1.5781 3.9699 3.4022 5.6104 7.9017 2.5199 6.911 3.2077 7.2799 11.255 6.0365 8.2636-1.2768 27.85-0.4875 34.657 1.3966 8.8276 2.4433 10.859 2.1274 12.564-1.954 1.4934-3.5741 4.0635-4.633 5.0439-2.0781 0.30009 0.78202 0.0619 2.3258-0.5294 3.4306-2.2676 4.237 4.0212 6.9044 7.421 3.1476 2.5966-2.8692 4.273-2.4789 5.881 1.3693 3.1396 7.5142 7.659 8.256 14.503 2.3807zm-38.13-49.32c4.2906-0.64993 5.5105-2.0128 2.75-3.0721-2.91-1.12-1.77-4.36 1.53-4.36 5.1225 0 10.778-6.422 8.6949-9.8734-2.1685-3.5929-5.1895-3.8784-7.28-0.68786-3.0286 4.6223-6.551 2.6379-4.4256-2.4932 2.0301-4.901-0.92645-8.3676-6.4865-7.6055-4.5247 0.62019-8.4198-1.1011-7.148-3.1588 0.96846-1.567 19.094-0.35298 23.612 1.5816 1.925 0.82417 5.0607 1.7825 6.9683 2.1297 5.2044 0.94715 7.3063 5.1219 4.2284 8.3982-2.3956 2.55-2.1626 5.1247 0.55819 6.1688 4.053 1.5553 9.1363-14.368 6.6528-20.839-0.50651-1.3199-1.0253-1.2234-3.5817 0.6667-4.5287 3.3482-5.9795 0.8307-5.1533-8.9425 0.831-9.8307-1.6664-10.562-4.2785-1.2525-3.2828 11.7-7.3946 9.0563-5.5677-3.5794 2.1717-15.02-1.461-18.829-17.781-18.64-9.9657 0.11483-13.683 1.5678-11.528 4.5066 4.1646 5.6809 4.7559 7.1515 5.225 12.995 0.89099 11.1-13.962 16.545-19.916 7.3013-1.2903-2.0034-3.9466 1.4677-3.6273 4.7401 0.29821 3.0559 0.35585 3.0852 6.0748 3.0852 7.7042 0 10.316 4.1846 4.0899 6.5518-4.1085 1.5621-2.603 2.9482 3.2021 2.9482 8.8024 0 11.794 3.1865 8.0323 8.5566-2.0246 2.8906-3.8083 10.206-3.0619 12.557 1.2003 3.7819 5.1993 4.2912 18.214 2.3198zm-1.0537-38.071c-1.68-1.67 1.37-18.36 3.35-18.36 2.0292 0 2.2075 10.362 0.29677 17.25-0.48222 1.7382-2.4345 2.3328-3.6544 1.113zm-31.74-18.11c-0.0345-2.6779-2.7578-8.7437-3.0304-6.75-0.25225 1.8446 0.25494 7.9919 0.72193 8.75 1.0439 1.6948 2.3416 0.57049 2.3085-2zm84.04-9.68c0-2.37-2.3-5.57-4-5.57-1.1109 0-4 2.8891-4 4 0 1.7049 3.1967 4 5.5714 4 1.9048 0 2.4286-0.52381 2.4286-2.4286zm-69.5-6.263c10.442-0.8301 9.894-4.2647-0.6849-4.2932-7.3281-0.0197-10.815 1.2946-10.815 4.0765 0 1.8448 0.38081 2.0411 2.75 1.4175 1.5125-0.39812 5.45-0.93849 8.75-1.2008zm51.5-8.92c0-2.61-7.93-11.39-10.28-11.39-2.8891 0-8.8026 4.1731-8.4712 5.978 0.60268 3.2827 18.752 8.5196 18.752 5.4107zm-26.571-6.9602c1.9868-1.9868 2.0118-4.8453 0.0595-6.7977-4.7799-4.7799-32.174-3.3292-36.543 1.9352-1.5619 1.882 0.43464 3.736 3.124 2.9011 1.7736-0.55063 27.91 2.179 28.732 3.0006 0.99712 0.99711 3.0527 0.53546 4.6274-1.0392zm-684.07 474.32c6.5562-24.988 7.9732-38.683 9.7002-93.75 1.226-39.091 2.4827-57.69 5.0002-73.999 1.1462-7.4256 2.4779-16.444 2.9594-20.041 2.292-17.123 7.1302-45.176 8.8755-51.46 1.0692-3.85 2.4362-9.7 3.0377-13 0.60149-3.3 2.8477-11.625 4.9915-18.5s6.2679-20.375 9.1646-30c7.4112-24.626 15.432-44.141 22.504-54.751 3.2074-4.8122 7.4323-11.674 9.3887-15.249 2.5103-4.5871 4.2153-6.5942 5.7936-6.8201 4.5181-0.64675 3.5266 2.6588-4.7908 15.97-13.668 21.875-18.541 33.857-33.897 83.35-8.2383 26.551-13.856 53.605-20.452 98.5-3.7872 25.774-4.6638 37.458-5.6272 75-1.7783 69.291-3.9093 86.352-12.753 102.1-2.8776 5.1235-4.9055 6.5042-3.8947 2.6517zm777.03-43.52c-6.28-4.15-5.73-34.23 0.63-34.23 2.6511 0 3.519 4.0171 2.0226 9.3618-1.3836 4.9419 0.54015 13.562 4.0117 17.975 3.4787 4.4225-1.9324 10.026-6.6608 6.8978zm14.3-22.688c-1.0114-1.0114-1.2501-3.4172-0.91445-9.2156 0.38952-6.7288 0.0999-8.7007-2.0328-13.839-2.9618-7.1358-4.0276-12.488-2.8556-14.34 4.7712-7.5394 14.25 22.963 10.872 34.988-0.89399 3.1831-3.1988 4.2773-5.0695 2.4066zm-238.51-12.29c-4.5771-2.61-13.127-7.6133-19-11.118-5.87-3.51-14.06-8.32-18.18-10.7-9.4369-5.4472-16.457-11.28-22.654-18.823-2.6651-3.2438-6.7184-8.0515-9.0072-10.684-4.11-4.73-12.43-19.07-13.87-23.92-0.40901-1.375-4.4893-10.249-9.0672-19.72-4.578-9.4711-11.293-24.321-14.921-33-3.63-8.68-8.33-19.6-10.44-24.28-28.81-63.787-30.342-76.623-14.457-121.12 7.1758-20.103 10.779-32.495 16.389-56.371 1.0384-4.419 1.1738-4.1391-6.532-13.507-2.4884-3.025-6.0382-7.75-7.8884-10.5-7.2873-10.831-29.617-34.225-37.544-39.332-3.0204-1.9461-7.832-5.3675-10.692-7.6031-9.398-7.3451-17.763-13.293-21.006-14.937-1.7545-0.88931-6.0332-3.769-9.5082-6.3992-13.404-10.146-27.647-16.497-51.302-22.878-11.434-3.0841-33.06-11.166-36.079-13.484-0.59335-0.45544-3.9684-1.9199-7.5-3.2544-12.07-4.57-35.35-16.54-47.42-24.4-4.77-3.1-21.87-11.77-39.02-19.79-20.96-9.8-47.41-20.01-56.7-21.9-3.47-0.71-5.25-3.78-3.78-6.53 1.3865-2.5907 4.5462-2.535 9.5148 0.16793 2.1918 1.1924 6.6852 2.9483 9.9852 3.9021 6.6227 1.9142 26.182 9.6198 34 13.394 2.75 1.3278 7.9654 3.7403 11.59 5.3611 3.6243 1.6208 8.3493 4.0478 10.5 5.3934s5.3393 2.9366 7.0858 3.5357c2.8436 0.97545 8.713 4.2179 20.825 11.504 12.14 7.3 23.34 13.74 23.91 13.74 0.35482 0 6.7975 2.9651 14.317 6.5891s16.171 7.4071 19.225 8.4069c3.0541 0.9998 9.8279 3.365 15.053 5.2559 5.225 1.8909 11.975 3.9878 15 4.6598 3.025 0.67195 7.075 1.8333 9 2.5808s5.6926 1.6164 8.3725 1.931c15.866 1.8622 50.437 20.736 58.127 31.734 1.1 1.5731 5.6 5.3062 10 8.2958 13.441 9.1322 39.676 34.827 55.331 54.19 6.2838 7.7723 8.2722 6.8942 11.645-5.143 1.9561-6.9822 3.9759-10.5 6.0285-10.5 2.5233 0 2.7096 4.4291 0.46634 11.084-1.1896 3.529-5.0834 17.216-8.6528 30.416-9.888 36.567-11.712 42.671-18.088 60.523-3.2455 9.0877-6.2039 19.101-6.5742 22.252-0.37034 3.151-1.4079 7.565-2.3057 9.8089-1.3738 3.4334-1.4668 5.2601-0.58703 11.53 1.6553 11.796 4.4563 13.121 7.1603 3.3861 1.4064-5.0634 3.6373-9 5.1002-9 1.5611 0 1.1397 2.7691-1.1107 7.2983-7.8007 15.7-6.483 23.457 10.053 59.186 2.287 4.9414 5.3095 11.916 6.7167 15.5 2.9021 7.391 13.881 31.983 17.642 39.516 1.373 2.75 5.4536 11.525 9.0681 19.5 13.761 30.362 15.321 32.041 17.969 19.338 0.81611-3.914 2.4276-8.9664 3.5811-11.227 3.4717-6.8051 5.5845-4.7034 2.5566 2.5433-2.5072 6.0006-1.9296 15.122 1.5 23.687 1.65 4.1207 3 8.1496 3 8.9531 0 5.4141 5.4987 4.2421 6.395-1.3631 0.9878-6.1774 1.6239-6.5685 3.7013-2.2761 1.0235 2.1147 2.4181 4.6125 3.0992 5.5507 0.98723 1.3598 0.97489 2.4341-0.0609 5.2984-1.6564 4.5807-1.045 5.3321 8.1313 9.9939 3.916 1.9894 10.009 5.6369 13.541 8.1056 3.5315 2.4687 9.8571 6.2814 14.057 8.4727 15.436 8.0536 20.488 11.844 19.437 14.583-1.0205 2.6593-6.7344 1.3694-15.122-3.4138zm771.82-78.26c-12.578-1.1851-28.05-6.169-47.62-15.34-9.9663-4.6702-21.18-9.4362-24.918-10.591-3.7388-1.1548-9.3096-3.1714-12.38-4.4813-14.152-6.0384-36.632-12.577-46.582-13.548-5.5-0.53704-14.725-1.4413-20.5-2.0095-5.775-0.56817-12.616-1.0305-15.203-1.0273-8.0296 0.01-12.852-3.8136-9.6603-7.6592 2.6895-3.2406 48.36 0.62206 67.363 5.6975 17.349 4.6335 40.039 13.558 63.5 24.976 33.296 16.205 51.54 20.126 64.929 13.954 7.5116-3.4623 11.879-7.9632 7.7262-7.9632-6.4217 0-5.1223-6.128 3.3115-15.618 32.311-36.356 29.999-116.45-4.4554-154.38-3.7478-4.1262-14.023-28.401-19.47-46-6.3851-20.627-13.179-39.91-17.169-48.729-1.6845-3.7238-5.0675-12.171-7.5177-18.771s-5.0708-13.606-5.8237-15.568c-8.4934-22.14-8.8329-40.448-1.0464-56.432 5.7842-11.874 10.7-9.2849 5.6961 3-5.6522 13.877-5.4372 26.868 0.7502 45.342 6.0961 18.201 10.565 30.298 12.807 34.667 2.0065 3.9102 6.9803 16.401 11.743 29.491 2.272 6.244 6.0136 18.174 10.638 33.921 2.4917 8.4842 11.571 26.914 18.149 36.84 17.208 25.966 23.138 41.642 27.762 73.384 4.0837 28.032-9.4892 74.139-27.002 91.726-1.8449 1.8528-2.1205 2.5991-1.0867 2.9437 0.7617 0.2539 2.5489-0.90497 3.9716-2.5753s3.5607-3.5275 4.7512-4.1272c4.0963-2.0634 32.863-26.345 49.336-41.644 9.075-8.4282 18.607-17.044 21.182-19.146 8.7674-7.1575 23.224-19.799 35.284-30.854 14.153-12.974 25.713-23.026 34.462-29.968 3.4658-2.75 7.3543-5.8598 8.6411-6.9108 1.8957-1.5483 2.6222-1.6762 3.8297-0.67406 2.8868 2.3958 1.7261 3.6769-23.898 26.377-4.95 4.3852-16.2 14.856-25 23.268-8.8 8.4122-17.832 16.622-20.07 18.244-4.3174 3.1274-30.738 28.061-33.653 31.758-2.4294 3.0818-29.674 27.855-35.466 32.249-2.6456 2.007-9.5352 7.3074-15.31 11.779-13.128 10.164-27.114 16.497-33.697 15.26-0.4414-0.083-4.1776-0.46891-8.3026-0.85756zm-546.9-64.08c-10.84-7.24-37.73-37.72-43.6-49.42-1.1-2.1936-2.9794-5.5646-4.1764-7.4909-3.727-5.9978-6.7766-17.713-5.3983-20.738 1.5568-3.4168 2.16-2.6456 7.5238 9.6187 11.361 25.977 46.582 66.116 58.015 66.116 13.687 0 26.567-13.855 26.495-28.5-0.21437-43.523-45.084-78.217-77.179-59.676-3.9389 2.2755-4.6084 0.65356-1.2079-2.926 30.962-32.591 96.291 26.3 82.428 74.305-4.8876 16.926-29.495 27.657-42.897 18.708zm175.81-8.5191c-1.7744-2.138 0.5402-3.89 6.3607-4.8148 6.7723-1.076 21.518-6.0299 30.857-10.367 11.908-5.5293 13.176-7.9492 2.4631-4.6994-6.2622 1.8997-10.221 1.8958-10.953-0.0108-1.3069-3.4057 0.1503-4.5237 13.362-10.251 10.496-4.5503 26.591-13.586 30.214-16.963 1.2572-1.1713 5.0595-3.8523 8.4496-5.9578 12.92-8.024 27.016-17.914 31.53-22.121 2.6656-2.4848 5.4383-4.2309 6.4171-4.0411 7.6474 1.4828-4.0362 11.356-54.757 46.274-11.455 7.8862-9.588 10.858 3.5091 5.5849 12.028-4.8427 21.188-8.7557 29.893-12.77 4.2659-1.9671 8.0506-3.282 8.4105-2.922 1.3463 1.3463-3.338 4.8962-11.618 8.8045-4.7017 2.2192-10.348 4.9768-12.548 6.1279s-6.7 3.0885-10 4.3054c-9.6778 3.5687-20.557 8.1564-27 11.386-20.258 10.154-41.554 16.093-44.59 12.435zm185.55-8.4486c-1.1781-1.9062 0.3987-5.3308 5.9598-12.943 13.339-18.259 16.153-24.232 19.199-40.75 0.528-2.8641 3.9067-2.9968 5.3971-0.21192 3.0294 5.6605-5.3162 26.551-14.966 37.462-0.9728 1.1-3.7177 4.925-6.0998 8.5-5.5331 8.3039-7.9941 10.364-9.4901 7.9432zm-251.04-9.3928c-0.3565-1.4204-0.3881-3.5768-0.07-4.7922 1.7821-6.8147-5.3343-33.641-12.995-48.988-6.7807-13.584-4.7513-16.93 3.0444-5.02 8.1367 12.431 13.952 32.607 14.035 48.696 0.064 12.265-2.1032 17.719-4.0144 10.104zm12.272-20.245c-0.2703-0.44295-0.7778-3.9554-1.1279-7.8054-0.6392-7.0312-1.3091-10.085-6.0017-27.36-3.5949-13.234-17.58-38.308-27.021-48.446-3.9479-4.2392-4.262-5.2049-1.978-6.0814 2.0801-0.79822 11.98 8.5688 14.671 13.88 1.1161 2.2038 3.2398 5.5818 4.7192 7.5068 10.439 13.583 19.615 41.155 20.29 60.966 0.2412 7.0824-1.505 10.692-3.5507 7.3398zm-416.7-78.64c0-6.2397 19.336-22.756 22.701-19.39 1.6397 1.6397 0.4585 4.7275-1.8085 4.7275-1.9006 0-11.673 6.579-16.143 10.867-2.6125 2.5066-4.75 4.2146-4.75 3.7954zm11-32.59c0-1.23 4.93-5.07 6.51-5.07 2.8453 0 3.6672 2.7608 1.3128 4.4099-2.45 1.72-7.82 2.17-7.82 0.66zm261.25-20.803c-2.3385-0.81573-1.259-5.9579 3.298-15.71 6.4468-13.796 10.399-26.272 11.518-36.357 0.5309-4.7862 1.1707-9.2688 1.4217-9.9612 0.25105-0.69246-0.004-18.467-0.56673-39.5-0.87693-32.774-0.80645-39.67 0.49303-48.241 0.83392-5.5 1.7829-12.127 2.1089-14.727 0.32597-2.5997 1.0581-5.0143 1.6269-5.3659 0.70459-0.43546 0.76586 1.5492 0.19222 6.2267-0.9955 8.1176-0.77927 20.625 0.68923 39.866 1.6943 22.2 2.7166 58.471 1.7736 62.927-0.47404 2.2401-1.2541 6.9978-1.7336 10.573-1.0312 7.6899-5.4894 21.428-10.478 32.288-1.9676 4.2836-4.2972 9.9888-5.1769 12.678-1.597 4.8826-2.8078 6.1255-5.1662 5.3028zm60.433-0.65181c-0.29177-0.76035-0.14282-3.1228 0.33101-5.25 1.1396-5.1159 4.0133-27.125 3.9977-30.618-0.008-1.7832 0.51511-2.75 1.4878-2.75 2.8176 0 1.2468 35.052-1.7366 38.75-1.3365 1.6569-3.4192 1.5893-4.0799-0.13245zm-8.0613-12.42c-0.30572-0.49466-0.0726-6.3265 0.51793-12.96l1.0738-12.06-4.518-9.8565c-6.0005-13.09-8.3682-20.426-9.2216-28.571-0.71329-6.8076 0.65794-9.6574 1.9246-4 0.33865 1.5125 2.6385 6.8 5.1108 11.75 7.2467 14.509 10.467 22.98 11.123 29.262 1.0611 10.152-3.5474 30.421-6.0107 26.436zm44.961-0.0636c-0.9944-1.6089 1.1264-16.751 3.9405-28.134 1.4276-5.775 3.0279-14.249 3.5562-18.832 0.5283-4.5827 1.8515-10.867 2.9405-13.965 1.0889-3.0983 1.9799-7.982 1.9799-10.853 0-8.6386 3.795-14.305 4.8702-7.2714 0.6307 4.126-1.8721 27.978-3.8743 36.922-2.4555 10.969-3.9959 19.935-3.9959 23.259 0 2.5678-4.7134 18.741-5.4617 18.741-0.2061 0-1.041 0.25568-1.8554 0.56817-0.8143 0.3125-1.7593 0.11718-2.1-0.43404zm-155.2-85.55c-0.29679-0.7734 0.17646-8.3139 1.0516-16.757 1.6529-15.945 1.5727-17.254-1.9818-32.337-1.7216-7.3054-1.5148-14.853 0.46111-16.829 1.7339-1.7339 2.7036 0.48686 3.3812 7.7434 0.32039 3.4309 1.5587 8.6786 2.7519 11.662 1.9814 4.9538 2.1139 6.5498 1.5292 18.424-1.0709 21.746-4.4959 35.123-7.1933 28.094zm-218.4-18.13c0-0.84856 1.9435-3.6611 4.3188-6.25s5.5585-6.8689 7.0737-9.5109c2.0458-3.5673 4.602-5.9864 9.9312-9.3987 3.947-2.5272 13.251-10.5 20.676-17.717 17.702-17.206 28.013-25.416 45.934-36.574 4.6386-2.8881 10.686-7.0317 13.44-9.2079 2.7531-2.1762 9.0829-6.3892 14.066-9.3622 16.473-9.8278 45.147-28.711 51.236-33.742 21.933-18.12 50.151-23.422 71.324-13.403 13.541 6.4077 19.252 8.343 30.248 10.251 10.2 1.7698 41.514 9.0358 45.544 10.568 1.4672 0.55781 6.5017 1.9068 11.188 2.9978 10.696 2.4902 17.25 4.4717 71.52 21.623 69.008 21.809 99.5 34.976 99.5 42.964 0 2.1416-1.6376 1.5878-14.349-4.852-6.683-3.3857-15.751-7.4755-20.151-9.0885-14.686-5.3836-30.913-10.871-39.5-13.357-8.1733-2.3664-58.243-17.966-80-24.925-5.775-1.8471-14.764-4.3455-19.975-5.5521-5.2115-1.2066-12.603-3.2575-16.425-4.5576-3.82-1.31-8.26-2.37-9.86-2.37-1.5995 0-6.3582-0.8432-10.575-1.8738-4.2166-1.0306-11.042-2.4216-15.167-3.0912-15.644-2.5392-41.593-12.779-47.018-18.554-5.822-6.1972-28.187 1.6844-48.716 17.168-4.6994 3.5444-9.9442 7.1542-11.655 8.0218-1.7109 0.86758-6.9357 4.3787-11.611 7.8024-14.174 10.38-23.894 17.086-37 25.529-33.158 21.358-39.826 26.515-60 46.408-8.525 8.4063-17.525 16.576-20 18.154-2.475 1.5785-6.975 4.9445-10 7.4799s-7.525 5.9901-10 7.6769-5.5909 4.2398-6.9243 5.6732c-2.68 2.89-7.07 3.55-7.07 1.07zm254.61-21.039c-0.87239-2.2734-0.74997-6.796 0.37364-13.803 0.53935-3.3634 1.9206-12.64 3.0694-20.615 4.0823-28.34 5.3589-34 7.6682-34 1.9018 0 1.3229 13.79-1.1518 27.434-1.6226 8.9462-3.1636 19.792-4.6037 32.403-1.1551 10.115-3.3919 13.699-5.3558 8.5814zm568.06-21.098c-9.3386-9.8128-25.208-16.495-59.165-24.912-5.5-1.3633-11.575-3.1269-13.5-3.9191-1.925-0.79219-6.65-2.1445-10.5-3.005-3.85-0.86058-9.925-2.8714-13.5-4.4685s-9.3091-4.0002-12.742-5.3403c-5.6868-2.2196-11.709-5.4855-25.758-13.968-21.363-12.899-28.047-15.983-46.171-21.303-21.114-6.1976-21.84-6.3114-36.829-5.7677-23.204 0.84166-52.016 11.75-55.085 20.855-0.9685 2.8735-3.6652 6.094-9.6298 11.5-4.5566 4.1298-9.6348 9.0556-11.285 10.946-1.6501 1.8905-5.5877 6.2666-8.7502 9.7248-8.2179 8.9862-7.6212 9.8507 5.25 7.6063 14.599-2.5457 51 3.7744 51 8.8548 0 1.2704-0.9442 1.1488-13.31-1.7139-14.728-3.4096-27.258-4.1315-35.277-2.0323-21.401 5.6018-30.829-1.5313-17.913-13.552 5.3136-4.9454 6.9879-8.7869 4.5-10.324-1.8329-1.1328-1.0312-5.5926 1.6333-9.0859 2.3441-3.0733 2.5488-3.9719 1.8637-8.1833-1.5338-9.428-1.3173-9.9672 21.579-53.731 6.3306-12.1 12.511-24.475 13.734-27.5 1.2229-3.025 6.5426-13.6 11.822-23.5 5.2789-9.9 11.62-22.05 14.09-27 2.4708-4.95 8.4341-15.525 13.252-23.5 4.8176-7.975 9.8962-16.75 11.286-19.5 2.7921-5.5262 12.485-19.455 16.527-23.75 4.7622-5.0602 7.0216-2.1873 3.5781 4.5497-2.6883 5.2595-15.358 27.684-19.888 35.2-2.3203 3.85-6.5982 11.5-9.5065 17-2.9082 5.5-5.929 10.752-6.7127 11.671-2.1891 2.5676-10.065 16.578-13.335 23.721-1.6095 3.5158-4.1753 8.4658-5.7019 11-2.7087 4.4963-6.6852 12.932-13.25 28.108-1.7844 4.125-8.1345 17.942-14.111 30.705-13.652 29.152-14.134 32.709-3.4376 25.349 41.116-28.289 89.744-29.11 137.26-2.3182 38.73 21.839 55.829 29.044 88.573 37.323 6.4635 1.6343 16.138 4.5983 21.5 6.5867 5.3615 1.9884 13.955 5.1013 19.097 6.9175 14.28 5.0438 22.994 12.373 26.177 22.015 2.1839 6.6173-0.2641 6.1989-7.3608-1.258z"
     id="path22109"
     style="fill:#1f1c30;fill-opacity:1" />
</svg>
